<svg xmlns="http://www.w3.org/2000/svg" width="321.965" height="169.335" viewBox="0 0 321.965 169.335">
  <g id="Group_21" data-name="Group 21" transform="translate(-203.841 -328.237)">
    <path id="Path_108619" data-name="Path 108619" d="M226.81,508.6c22.358-.4,18.252-5.9,20.3,17.1.206,2.431.176,3.213-2.2,3.509-7.428.9-12.182,1.386-18.651,2.068.516,12.16.554,20.155.145,35.52-.133,4.865-2.133,5.058-7.518,5.068-3.416,0-7.333.105-11,.038-3.383-.063-4.058-.945-4.043-4.376.093-15.694.632-75.273,1.413-91,.3-6.015,1.288-4.671,4.669-4.809,10.4-.421,25.418-.642,34.39-.767,2.664.105,3.078,1.291,3.1,3.9.04,4.7.027,9.411,0,14.117-.018,2.644-.5,3.341-3.18,3.419C224.492,492.934,226.8,487.413,226.81,508.6Z" transform="translate(0 -74.347)" fill="#f95d5d"/>
    <path id="Path_108620" data-name="Path 108620" d="M323.6,556.546c9.077-1.466,7.268-20.069,6.747-30.671-.251-5.24,0-6.343,2.017-6.343,5.21,0,7.431-.288,12.05,0,2.368.128,3.128,1.957,3.208,4.218.218,6.118-.278,16.568-.2,22.726.368,27.984-32.488,45.182-43.126,10.619-2.672-8.679-1.935-20.8-1.927-31.077,0-5.386,2.238-6.483,5.564-6.483h9.12c4.233-.025,3.977,1.521,4.07,7.473C321.2,531.6,320.689,557.017,323.6,556.546Z" transform="translate(-51.297 -99.609)" fill="#88e8e5"/>
    <path id="Path_108621" data-name="Path 108621" d="M412.961,481.712c2.311-.123,13.681.09,15.964.07,2.644-.023,3.546-.123,3.546,2.719,0,4.413-.073,5.491.1,9.087,5.729-4.987,11.325-9.774,19.265-9.476,25.771,1.912,22.345,42.1,22.33,60.938,0,3.388-.556,3.95-3.867,4.321-4.932.551-9.859,1.155-14.786,1.779-2.727.346-3.9.233-4.08-2.634-.937-15.355-1.82-21.631-3.426-35.282-9.223,10.526-12.263,24.531-16.633,37.462-1.133,3.739-2.566,3.692-6.2,3.692H413.286c-4.927,0-4.318-.308-4.331-6.4-.025-13.834.584-50.469.476-63.02C409.4,481.346,411.1,481.812,412.961,481.712Z" transform="translate(-106.882 -79.946)" fill="#f786b9"/>
    <path id="Path_108622" data-name="Path 108622" d="M580.935,508.6c22.358-.4,18.253-5.9,20.3,17.1.206,2.431.176,3.213-2.2,3.509-7.429.9-12.183,1.386-18.651,2.068.516,12.16.554,20.155.145,35.52-.13,4.865-2.133,5.058-7.518,5.068-3.416,0-7.333.105-11,.038-3.383-.063-4.057-.945-4.042-4.376.093-15.694.632-75.273,1.414-91,.3-6.015,1.286-4.671,4.672-4.809,10.4-.421,25.418-.642,34.39-.767,2.664.105,3.078,1.291,3.1,3.9.04,4.7.027,9.411,0,14.117-.02,2.644-.5,3.341-3.18,3.419C578.617,492.934,580.923,487.413,580.935,508.6Z" transform="translate(-184.54 -74.347)" fill="#fe8200"/>
    <path id="Path_108623" data-name="Path 108623" d="M698.535,556.789c-16.829,13.6-39.244,2.418-39.2-19.2.025-11.857,1.448-35.119,26.966-34.417,18.907.519,22.147,10.025,22.979,18.593C710.6,535.328,708.113,548.353,698.535,556.789Z" transform="translate(-237.367 -91.143)" fill="#fad700"/>
    <path id="Path_108624" data-name="Path 108624" d="M821.128,489.546c1.318,13.566-1.178,26.588-10.749,35.024-16.829,13.6-39.244,2.418-39.2-19.2.025-11.857,1.449-35.119,26.967-34.417,18.9.519,22.147,10.025,22.979,18.593" transform="translate(-295.649 -74.352)" fill="#6fc749"/>
    <path id="Path_108625" data-name="Path 108625" d="M665.9,328.8c7.341,8.421,14.639,16.882,22.054,25.235,4.549,5.123,4.977,7.092,2.135,13.24a22.456,22.456,0,0,0,4.26,25.195c9.17,8.842,17.924,18.115,26.892,27.17a.85.85,0,0,0,1.236-.033q1.253-1.4,2.586-2.757a.854.854,0,0,0,.078-1.105c-2.256-3.04-4.453-6.015-6.634-9.022q-6.449-8.867-12.854-17.766c-1.566-2.18-1.411-3.945.346-5.24,1.591-1.173,3.426-.795,4.985,1.143,6.609,8.213,13.182,16.453,19.8,24.661.11.138.211.271.3.4a.857.857,0,0,0,1.253.163q1.373-1.168,2.777-2.3a.867.867,0,0,0,.1-1.278,1.506,1.506,0,0,1-.153-.178c-5.609-7.814-11.132-15.691-16.676-23.558-.489-.692-.98-1.383-1.458-2.08-1.594-2.316-1.486-4.188.308-5.441s3.443-.787,5.112,1.358q4.4,5.649,8.772,11.313,5.376,6.932,10.751,13.867h0a.855.855,0,0,0,1.138.193c1.083-.694,2.185-1.353,3.313-1.967a.852.852,0,0,0,.333-1.16c-6.04-10.88-12.15-21.721-18.21-32.58a21.8,21.8,0,0,0-22.7-10.792c-6.423,1.113-8.448.178-11.9-5.263q-6.99-11.027-14.1-21.979" transform="translate(-240.789 0)" fill="#6fc749"/>
  </g>
</svg>
