<svg xmlns="http://www.w3.org/2000/svg" xmlns:xlink="http://www.w3.org/1999/xlink" width="681" height="829" viewBox="0 0 681 829">
  <defs>
    <clipPath id="clip-path">
      <rect id="Rectangle_1457" data-name="Rectangle 1457" width="681" height="829" transform="translate(-5998 4948)" fill="#fff"/>
    </clipPath>
  </defs>
  <g id="Mask_Group_73" data-name="Mask Group 73" transform="translate(5998 -4948)" clip-path="url(#clip-path)">
    <g id="Group_4607" data-name="Group 4607">
      <rect id="Rectangle_1456" data-name="Rectangle 1456" width="637" height="768" transform="translate(-5956 4935)" fill="#89e8e5"/>
      <g id="Group_4606" data-name="Group 4606" transform="translate(-5637.5 4825.625)">
        <path id="Path_108741" data-name="Path 108741" d="M3760.349-64.834c16.034.247,33,1.283,49.566,5.688a105.809,105.809,0,0,1,57.924,38.56c7.54,9.756,11.127,21.069,12.12,33.276,1.438,17.683-2.476,34.438-8.794,50.77-3.6,9.316-8.145,18.207-12.512,27.175-5.058,10.384-10.2,20.733-14.076,31.643a78.775,78.775,0,0,0-4.676,21.153,53.292,53.292,0,0,0,5.111,26.306c3.183,6.88,7.21,13.29,11.032,19.811,8.757,14.94,15.9,30.541,19.75,47.515a167.9,167.9,0,0,1,4.187,28.633,113.069,113.069,0,0,1-10.555,53.55c-8.114,17.735-19.062,33.559-31.859,48.187-21.15,24.178-46.833,42.247-75.527,56.316-20.049,9.831-40.973,17.344-62.287,23.852a421.62,421.62,0,0,1-59.159,13.687,312.317,312.317,0,0,1-58.7,3.862c-32.618-1.171-63.755-8.5-92.27-24.585-53.021-29.915-86.735-74.465-99.582-134.3a198.885,198.885,0,0,1-4.113-48.855,232.541,232.541,0,0,1,14.8-72.842c12.1-32.754,29.8-62.259,52.018-89.082,8.582-10.362,16.422-21.289,24.938-31.695,13.87-16.947,28.6-33.042,45.795-46.719,10.536-8.378,21.394-16.358,33.146-22.906a245.825,245.825,0,0,1,36.139-17c27.156-9.783,54.241-19.774,81.6-28.967a241.516,241.516,0,0,1,49.472-10.669A329.833,329.833,0,0,1,3760.349-64.834Z" transform="translate(-3385.792 64.834)" fill="#fad700"/>
      </g>
      <path id="Path_111708" data-name="Path 111708" d="M6484.042,732.218c-51.453-.09-100.831-10.643-148.626-29.356-6.388-2.5-13.168-3.983-19.624-6.331-18.888-6.869-36.173-16.923-53.459-27.021-31.948-18.661-60.457-41.675-86.231-68.062-27.1-27.742-50.006-58.585-66.653-93.8-12.523-26.491-21.148-54.333-28.218-82.693-2.1-8.43-3.867-16.935-5.118-25.535-1.258-8.647-4.427-16.777-6.632-25.168a435.942,435.942,0,0,1-13.193-74.927c-4.306-51.994,1.036-102.776,18.937-151.961,15.35-42.174,39-78.938,72.358-109.2,33.518-30.4,72.117-51.037,116.724-59.639,28.857-5.565,57.466-4,85.415,5.368,31.469,10.543,54.566,31.182,70.868,59.8,10.961,19.244,18.2,39.953,23.681,61.279,6.488,25.229,12.4,50.607,18.85,75.846a385.79,385.79,0,0,0,22.288,64.51c11.512,25.3,28.426,46.19,50.24,63.325,19.513,15.327,40.536,28.41,61.311,41.861,27.729,17.955,54.379,37.277,77.573,60.959,25.385,25.92,44.606,55.692,55.759,90.432a178.9,178.9,0,0,1,9.03,55.579q-.19,51.734-35.576,89.64c-16.837,18.033-36.593,32.316-57.947,44.423-33.459,18.97-69.426,30.678-107.378,36.561A347.259,347.259,0,0,1,6484.042,732.218Z" transform="translate(-11864.107 3705.739) rotate(14)" fill="#6fc649"/>
      <g id="Group_4605" data-name="Group 4605" transform="translate(-5690.449 5254.276)">
        <path id="Path_108740" data-name="Path 108740" d="M1967.617,422.188c-.257,41.452-4.075,74.893-12.5,107.741-5.334,20.791-12.972,40.665-24.31,59-15.943,25.786-37.521,45.488-64.336,59.487-21.745,11.352-44.974,17.981-69.2,21.32a226,226,0,0,1-61.965.088,212.272,212.272,0,0,1-76.318-26c-41.516-23.529-73.786-56.258-96.029-98.529-14.809-28.142-23.427-58.048-23.1-90.127.145-14.124,2.283-27.909,7.673-41.107,7.773-19.033,21.249-32.351,40.126-40.169,9.093-3.765,18.185-7.548,27.512-10.755,7.393-2.542,14.59-5.655,21.883-8.49a28.767,28.767,0,0,1,5-1.728c13-2.426,25.181-7.416,37.436-12.1a324.74,324.74,0,0,0,61.955-31.679c16.6-10.861,33.521-21.226,51.474-29.781,21.76-10.369,44.585-16.308,68.791-15.93,20.848.325,39.8,6.288,55.958,19.977,11.576,9.806,20.246,21.82,27,35.279,9.947,19.825,16.082,40.862,19.51,62.718C1966.691,397.424,1967.744,413.55,1967.617,422.188Z" transform="translate(-1539.852 -263.419)" fill="#fe8200"/>
      </g>
      <g id="Group_4604" data-name="Group 4604" transform="translate(-5411.944 6545.961) rotate(-137)">
        <path id="Path_108738" data-name="Path 108738" d="M-1659.687-2279.053c0-4.1-.02-8.2,0-12.3a374.738,374.738,0,0,1,3.852-48.4,415.258,415.258,0,0,1,10-51.5c7.383-27.576,18.112-53.691,34.207-77.406,17.851-26.3,40.842-46.773,69.522-60.687a173.494,173.494,0,0,1,20.393-8.526c5.593-1.879,11.508-2.429,17.342-3.137,10.563-1.282,21.2-1.608,31.81-2.272,14.922-.934,29.835-.784,44.72-.352,10.479.3,20.979.122,31.438.785,16.8,1.064,33.587,2.315,50.191,5.378,38.132,7.036,76.023,15.145,113.535,24.986q29.689,7.789,59.013,16.856c26.278,8.157,52.371,16.891,78.4,25.795,35.65,12.193,71.066,25.049,105.47,40.468,31.141,13.955,61.494,29.425,89.8,48.662a288.717,288.717,0,0,1,53.433,46.17c17.657,19.751,31.407,41.949,39.946,67.128a198.308,198.308,0,0,1,9.271,42.591c.825,7.659,1.474,15.342,1.573,23a309.452,309.452,0,0,1-10.91,84.427,446.32,446.32,0,0,1-26.824,73.771,369.328,369.328,0,0,1-52.766,82.587,384.333,384.333,0,0,1-59,56.184,428.256,428.256,0,0,1-75.974,46.927,530.036,530.036,0,0,1-86.936,32.306,540.334,540.334,0,0,1-57.525,12.468q-17.643,2.921-35.528,4.442c-14.676,1.263-29.358,2.234-44.065,3.086-15.414.893-30.815.97-46.2.477-39.45-1.265-77.663-8.532-113.971-24.633-24.719-10.962-47.372-25.205-68.6-41.879a411.063,411.063,0,0,1-41.433-36.891,438.15,438.15,0,0,1-41.067-49.458,513.984,513.984,0,0,1-46.118-78.8,613,613,0,0,1-33.721-87.486,581.2,581.2,0,0,1-16.983-74.6c-1.914-11.768-3.313-23.628-4.462-35.522A416.953,416.953,0,0,1-1659.687-2279.053Z" transform="translate(1686.714 2571.977)" fill="#f786b9"/>
      </g>
      <path id="Path_111709" data-name="Path 111709" d="M361.44,1700c-29.112.036-57.692-3.581-85.413-12.765-22.2-7.354-42.531-18.105-60.15-33.683a151.407,151.407,0,0,1-32.674-40.7c-11.593-21.074-18.637-43.7-22.769-67.3a294.018,294.018,0,0,1-3.672-64.839,355.1,355.1,0,0,1,13.583-82.658,190.224,190.224,0,0,0,5.257-24.244c1.246-8.106,4.47-15.647,7.387-23.255,9.932-25.911,25.594-47.9,45.957-66.59a150.671,150.671,0,0,1,30.153-21.438,361.356,361.356,0,0,1,108.254-37.768,322.512,322.512,0,0,1,65.91-5.272c20.673.51,41.119,3.226,61.415,7.1a347.2,347.2,0,0,1,69.452,20.519c21.3,8.927,41.51,19.81,59.65,34.288a193.105,193.105,0,0,1,43.411,49.113c11.2,17.921,20.3,36.833,26.354,57.131,5.873,19.7,8.626,39.822,7.2,60.367-1.5,21.705-7.129,42.455-15.492,62.484-9.2,22.02-21.94,41.883-36.994,60.308-27.776,34-61.638,60.448-100.431,80.744a425.625,425.625,0,0,1-100.135,37.65c-22.156,5.21-44.556,8.963-67.337,10.23C374.049,1699.774,367.749,1699.876,361.44,1700Z" transform="translate(-6473.204 3656.995)" fill="#f95d5d"/>
    </g>
  </g>
</svg>
