<svg xmlns="http://www.w3.org/2000/svg" xmlns:xlink="http://www.w3.org/1999/xlink" width="30.544" height="36.193" viewBox="0 0 30.544 36.193">
  <defs>
    <clipPath id="clip-path">
      <rect id="Rectangle_1454" data-name="Rectangle 1454" width="20.49" height="20.49" transform="translate(0 0)" fill="#fff" stroke="#707070" stroke-width="1"/>
    </clipPath>
  </defs>
  <g id="Group_4612" data-name="Group 4612" transform="translate(-1042.189 -147.101)">
    <path id="Path_111705" data-name="Path 111705" d="M683.152,535.741c-10.225,8.264-23.844,1.47-23.815-11.666.016-7.2.88-21.337,16.384-20.911,11.487.316,13.456,6.086,13.962,11.3C690.485,522.7,688.968,530.617,683.152,535.741Z" transform="translate(382.851 -356.054)" fill="#fad700"/>
    <g id="Mask_Group_72" data-name="Mask Group 72" transform="translate(1047.216 155.425)" clip-path="url(#clip-path)">
      <path id="user-circle-light" d="M10.245.516A10.245,10.245,0,1,0,20.49,10.761,10.243,10.243,0,0,0,10.245.516Zm5.288,17.416a8.857,8.857,0,0,1-10.575,0v-.562A2.646,2.646,0,0,1,7.6,14.727a12.018,12.018,0,0,0,2.644.471,12.018,12.018,0,0,0,2.644-.471,2.646,2.646,0,0,1,2.644,2.644ZM16.8,16.8A3.953,3.953,0,0,0,12.889,13.4c-.847,0-1.256.471-2.644.471S8.452,13.4,7.6,13.4A3.953,3.953,0,0,0,3.693,16.8a8.923,8.923,0,1,1,13.1,0ZM10.245,5.143A3.635,3.635,0,1,0,13.88,8.778,3.635,3.635,0,0,0,10.245,5.143Zm0,5.949a2.313,2.313,0,1,1,2.313-2.313A2.315,2.315,0,0,1,10.245,11.091Z" transform="translate(0 -0.516)" fill="#fff"/>
    </g>
  </g>
</svg>
