<svg id="Group_147" data-name="Group 147" xmlns="http://www.w3.org/2000/svg" width="55.417" height="44.836" viewBox="0 0 55.417 44.836">
  <g id="Laag_1" data-name="Laag 1" transform="translate(0)">
    <path id="Path_108682" data-name="Path 108682" d="M282.918,98.216a3.563,3.563,0,0,1-2.41-.909,1.508,1.508,0,0,1-.59-1.184c.07-.751,1.045-1.127,1.756-.877a3.776,3.776,0,0,1,1.641,1.506,6.99,6.99,0,0,1-.881-2.635,2.384,2.384,0,0,1,1.215-2.334,1.135,1.135,0,0,1,.852-.064,1.543,1.543,0,0,1,.667.624,10.331,10.331,0,0,1,1.72,4.5,4.314,4.314,0,0,1,1.071-4.783,1.293,1.293,0,0,1,1.192-.406,1.272,1.272,0,0,1,.543.419,4.25,4.25,0,0,1,.709,4.184,1.51,1.51,0,0,1,.463-1.686,4.2,4.2,0,0,1,1.68-.793,1.3,1.3,0,0,1,.707-.07,1,1,0,0,1,.622.846,2.731,2.731,0,0,1-2.2,2.781" transform="translate(-269.535 -91.615)" fill="#f786b9"/>
    <path id="Path_108683" data-name="Path 108683" d="M282.361,184.054c-2.405-.022-4.939.188-6.94,1.523s-3.211,4.119-2.073,6.24c.6,1.11,1.753,1.946,1.965,3.188.247,1.451-.882,2.723-1.474,4.069a6.818,6.818,0,0,0,.463,6.007,9.792,9.792,0,0,0,4.673,3.984,11.629,11.629,0,0,0,12.843-2.421c3.163-3.4,3.514-9.21.457-12.706-.76-.87-1.688-1.583-2.433-2.472-1.321-1.57-2-3.587-3.217-5.236s-3.4-2.94-5.28-2.113" transform="translate(-262.801 -180.297)" fill="#6fc649"/>
    <path id="Path_108684" data-name="Path 108684" d="M421.339,395.37a1.093,1.093,0,1,1-2.153.382" transform="translate(-403.429 -383.639)" fill="none" stroke="#09090b" stroke-linecap="round" stroke-linejoin="round" stroke-width="1"/>
    <path id="Path_108685" data-name="Path 108685" d="M501.764,860.64a20.323,20.323,0,0,0,.041,2.124,8,8,0,0,1,.033,1.023c0,.043-.005.087-.01.13a.418.418,0,0,1-.006.055c0,.012,0,.024,0,.037,0-.02,0-.022,0,0-.011.074-.024.148-.042.221s-.034.129-.055.191c-.011.033-.023.065-.036.1l-.009.022c.012-.029,0,0,0,.009s-.008.018-.012.027a1.708,1.708,0,0,1-.108.2q-.03.049-.065.1l-.013.018c-.017.023.025-.03.006-.008s-.024.03-.039.045a1.372,1.372,0,0,1-.158.157l-.017.014c-.024.02-.016.006,0,0a.312.312,0,0,0-.047.034c-.032.022-.065.042-.1.061a.21.21,0,1,0,.212.363,1.993,1.993,0,0,0,.9-1.545,5.51,5.51,0,0,0,0-1.059c-.026-.361-.048-.722-.058-1.084q-.017-.613,0-1.227a.212.212,0,0,0-.21-.211.216.216,0,0,0-.211.211Z" transform="translate(-482.102 -830.739)" fill="#09090b"/>
    <path id="Path_108686" data-name="Path 108686" d="M615.932,850.022a21.8,21.8,0,0,0,.322,2.687q.06.328.13.655a1.259,1.259,0,0,0,.138.455,2.036,2.036,0,0,0,.613.533,2.843,2.843,0,0,0,.386.21,1.017,1.017,0,0,0,.386.108.21.21,0,1,0,0-.421h-.022c-.042,0,.057.011.022,0l-.059-.014c-.021-.005-.044-.013-.066-.021l-.039-.014c-.009,0-.057-.023-.019-.007s-.008,0-.015-.007l-.042-.019-.081-.039q-.088-.045-.173-.1c-.057-.034-.113-.07-.167-.107l-.077-.053-.039-.027c-.005,0-.036-.027-.005,0l-.005,0a1.807,1.807,0,0,1-.244-.232c.042.049.009.012-.007-.013l-.016-.027c0-.009-.021-.046,0,0s0,.008,0,0-.009-.039-.014-.06l-.039-.165q-.068-.312-.128-.626t-.109-.63q-.026-.162-.049-.325c0-.025-.007-.05-.011-.074s0-.031-.006-.047-.005-.041,0,0c-.007-.053-.014-.105-.021-.158q-.091-.723-.132-1.451a.21.21,0,1,0-.421,0Z" transform="translate(-592.567 -820.534)" fill="#09090b"/>
    <ellipse id="Ellipse_8" data-name="Ellipse 8" cx="2.102" cy="2.102" rx="2.102" ry="2.102" transform="translate(11.762 7.188)" fill="#fff"/>
    <ellipse id="Ellipse_9" data-name="Ellipse 9" cx="0.925" cy="0.925" rx="0.925" ry="0.925" transform="translate(12.939 8.366)" fill="#0a090b"/>
    <ellipse id="Ellipse_10" data-name="Ellipse 10" cx="2.102" cy="2.102" rx="2.102" ry="2.102" transform="translate(16.871 6.748)" fill="#fff"/>
    <ellipse id="Ellipse_11" data-name="Ellipse 11" cx="0.925" cy="0.925" rx="0.925" ry="0.925" transform="translate(18.049 7.926)" fill="#0a090b"/>
    <path id="Path_108687" data-name="Path 108687" d="M25.646,385.361a3.061,3.061,0,0,0-1.928-1.311,4.668,4.668,0,0,0-2.363.134,4.483,4.483,0,0,0-3.022,2.614,3.766,3.766,0,0,0-2.388-1.13,3.217,3.217,0,0,0-2.464.888,6.346,6.346,0,0,0,1.542-5.625,1.89,1.89,0,0,0,.8.291.524.524,0,0,0,.331-.041.407.407,0,0,0,.161-.432,1.115,1.115,0,0,0-.227-.432,3.423,3.423,0,0,0-.927-.913,1.5,1.5,0,0,0-1.257-.175,2.242,2.242,0,0,0-1.033,1.032,10.868,10.868,0,0,0-1.6,3.75,4.9,4.9,0,0,0,.829,3.892,4.866,4.866,0,0,0,2.109,1.456,10.676,10.676,0,0,0,2.528.549,26.99,26.99,0,0,0,8.91-.445" transform="translate(-11.172 -368.053)" fill="#6fc649"/>
    <path id="Path_108688" data-name="Path 108688" d="M698.53,186.715a3.277,3.277,0,0,1,1.22-2.18,5,5,0,0,1,2.329-1,4.806,4.806,0,0,1,4.15,1.057,4.032,4.032,0,0,1,1.747-2.228,3.444,3.444,0,0,1,2.788-.329,6.8,6.8,0,0,1-4.174-4.653,2.027,2.027,0,0,1-.623.66.565.565,0,0,1-.337.119.439.439,0,0,1-.362-.338,1.189,1.189,0,0,1,.011-.523,3.636,3.636,0,0,1,.452-1.32,1.617,1.617,0,0,1,1.12-.772,2.4,2.4,0,0,1,1.485.494,11.639,11.639,0,0,1,3.333,2.827,4.761,4.761,0,0,1-.252,6.535,11.41,11.41,0,0,1-2.16,1.738,28.927,28.927,0,0,1-8.754,3.846" transform="translate(-671.985 -171.968)" fill="#6fc649"/>
  </g>
  <g id="Laag_1-2" data-name="Laag 1" transform="translate(34.565 0.359)">
    <path id="Path_108675" data-name="Path 108675" d="M345.269,712.754q-.06.185-.13.369c-.021.053-.042.105-.064.158,0,0-.029.068-.011.025s0,.006-.007.015c-.014.033-.029.066-.044.1a7.374,7.374,0,0,1-.764,1.317c-.034.047-.068.093-.105.138s.026-.033,0,0l-.027.034-.067.084q-.119.147-.247.288a7.334,7.334,0,0,1-.616.608.289.289,0,0,0,0,.406.294.294,0,0,0,.406,0,7.592,7.592,0,0,0,1.885-2.513,8.082,8.082,0,0,0,.344-.873.289.289,0,0,0-.2-.353.293.293,0,0,0-.353.2Z" transform="translate(-343.105 -693.231)" fill="#09090b"/>
    <path id="Path_108676" data-name="Path 108676" d="M349.27,420.525a8.975,8.975,0,0,0-2.472,4,10.387,10.387,0,0,0,5.447,11.846,9.667,9.667,0,0,0,12.174-4.131,15.493,15.493,0,0,0,1.156-3.379,9.456,9.456,0,0,0,.379-3.133c-.235-2.486-2.212-4.453-4.316-5.8-2.732-1.752-6.413-2.782-9.184-1.246-.451.25-.915.474-1.382.692A6.8,6.8,0,0,0,349.27,420.525Z" transform="translate(-346.292 -414.131)" fill="#89e8e5"/>
    <ellipse id="Ellipse_4" data-name="Ellipse 4" cx="2.867" cy="2.867" rx="2.867" ry="2.867" transform="translate(3.588 7.992)" fill="#fff"/>
    <ellipse id="Ellipse_5" data-name="Ellipse 5" cx="1.261" cy="1.261" rx="1.261" ry="1.261" transform="translate(4.179 9.598)" fill="#0a090b"/>
    <ellipse id="Ellipse_6" data-name="Ellipse 6" cx="2.867" cy="2.867" rx="2.867" ry="2.867" transform="translate(10.538 7.992)" fill="#fff"/>
    <ellipse id="Ellipse_7" data-name="Ellipse 7" cx="1.261" cy="1.261" rx="1.261" ry="1.261" transform="translate(11.129 9.598)" fill="#0a090b"/>
    <path id="Path_108677" data-name="Path 108677" d="M509.85,601.22a1.722,1.722,0,0,0,2.3-.24" transform="translate(-501.067 -587.54)" fill="none" stroke="#09090b" stroke-linecap="round" stroke-linejoin="round" stroke-width="1"/>
    <path id="Path_108678" data-name="Path 108678" d="M406.5,766.369q-.385,2.506-.922,4.985t-1.226,4.919q-.093.332-.19.665c-.032.109-.065.217-.1.326-.018.061.033-.05,0,0-.006.012-.013.022-.02.033q.04-.05.008-.017c.011-.01.09-.044.038-.032.082-.019-.007,0-.027-.009l.035,0-.047-.008-.105-.017-.18-.031-.361-.06-.722-.121a.3.3,0,0,0-.353.2.29.29,0,0,0,.2.353l1.3.22a1.145,1.145,0,0,0,.4.024.484.484,0,0,0,.316-.232,1.235,1.235,0,0,0,.111-.3l.093-.32q.359-1.242.68-2.5t.6-2.528q.281-1.264.522-2.533t.446-2.559l.049-.316a.316.316,0,0,0-.029-.221.287.287,0,0,0-.525.068Z" transform="translate(-399.205 -744.023)" fill="#09090b"/>
    <path id="Path_108679" data-name="Path 108679" d="M528.616,776.955q.053,2.077.182,4.151t.329,4.155q.115,1.165.25,2.324l.211-.277-1.672.23a.284.284,0,0,0-.171.132.287.287,0,0,0,.1.392.337.337,0,0,0,.221.029l1.671-.23a.285.285,0,0,0,.211-.277q-.241-2.064-.41-4.135t-.263-4.161q-.053-1.168-.084-2.338a.287.287,0,0,0-.574,0Z" transform="translate(-517.982 -753.972)" fill="#09090b"/>
    <path id="Path_108680" data-name="Path 108680" d="M638.131,670.158a9.473,9.473,0,0,0,1.1,3.271,9.813,9.813,0,0,0,2.164,2.677,9.46,9.46,0,0,0,1.612,1.126.287.287,0,0,0,.29-.5c-.249-.137-.492-.286-.727-.447-.115-.078-.228-.158-.339-.243-.026-.02-.053-.038-.079-.06.062.053-.021-.016-.036-.028-.057-.045-.114-.091-.17-.138a9.431,9.431,0,0,1-1.192-1.18l-.133-.158-.062-.077-.025-.032-.024-.031.008.011q-.127-.166-.247-.337-.239-.342-.449-.7a8.283,8.283,0,0,1-.385-.751c-.029-.063-.058-.126-.086-.19l-.039-.091c-.006-.014-.023-.049.006.014-.011-.024-.02-.049-.03-.073-.053-.129-.105-.258-.15-.389a9.06,9.06,0,0,1-.45-1.828.286.286,0,0,0-.525-.066.34.34,0,0,0-.029.221Z" transform="translate(-622.587 -652.73)" fill="#09090b"/>
    <path id="Path_108681" data-name="Path 108681" d="M452.784,353.269a33.745,33.745,0,0,1-2.709-3.144,6.134,6.134,0,0,1-1.046-1.568,6.905,6.905,0,0,1-.388-1.863.932.932,0,0,1,.012-.391.647.647,0,0,1,.521-.393,1.355,1.355,0,0,1,1.106.388,4.007,4.007,0,0,1,.706.98l1.267,2.2a3.219,3.219,0,0,1,2.59-3.634.57.57,0,0,1,.344.013.549.549,0,0,1,.255.393,3.073,3.073,0,0,1-.076,1.515C454.84,349.73,453.29,351.3,452.784,353.269Z" transform="translate(-443.068 -345.822)" fill="#f95d5d"/>
  </g>
  <g id="characters_orange" transform="translate(19.346 9.735)">
    <g id="Laag_2" data-name="Laag 2" transform="translate(3.169 0)">
      <path id="Path_108729" data-name="Path 108729" d="M448.612,282.3s-.317.962.35.277,3.143.416,3.143.416-.169.794.5.09,2.341,1.711,2.341,1.711l-1.351.911-7.1-1.271.3-1.907Z" transform="translate(-443.101 -279.098)" fill="#89e8e5"/>
      <path id="Path_108730" data-name="Path 108730" d="M1.446,0h0A1.446,1.446,0,0,1,2.892,1.446V7.112a.664.664,0,0,1-.664.664H.664A.664.664,0,0,1,0,7.112V1.446A1.446,1.446,0,0,1,1.446,0Z" transform="matrix(0.85, 0.526, -0.526, 0.85, 4.092, 0)" fill="#89e8e5"/>
      <path id="Path_108731" data-name="Path 108731" d="M1.449,0h0A1.448,1.448,0,0,1,2.9,1.448V7.125a.665.665,0,0,1-.665.665H.665A.665.665,0,0,1,0,7.125V1.448A1.448,1.448,0,0,1,1.448,0Z" transform="matrix(0.849, 0.529, -0.529, 0.849, 7.968, 0.081)" fill="#89e8e5"/>
      <path id="Path_108732" data-name="Path 108732" d="M1.446,0h0A1.446,1.446,0,0,1,2.891,1.446V7.112a.664.664,0,0,1-.664.664H.664A.664.664,0,0,1,0,7.112V1.446A1.446,1.446,0,0,1,1.446,0Z" transform="matrix(0.85, 0.526, -0.526, 0.85, 11.369, 0.964)" fill="#89e8e5"/>
    </g>
    <g id="Laag_1-3" data-name="Laag 1" transform="translate(0.748 4.241)">
      <path id="Path_108733" data-name="Path 108733" d="M320.431,306.679a12.7,12.7,0,0,0-3.289,7.307c-.559,3.853-.362,8.027,1.772,11.283a10.667,10.667,0,0,0,16.649,1.51c1.932-2.029,2.924-5.449,1.108-7.583-1.019-1.2-2.73-1.761-3.459-3.154-.829-1.585-.04-3.52-.251-5.3a6.056,6.056,0,0,0-3.945-4.628,12.816,12.816,0,0,0-6.3-.479A5.7,5.7,0,0,0,320.431,306.679Z" transform="translate(-316.875 -305.468)" fill="#fe8200"/>
    </g>
    <g id="Laag_3" data-name="Laag 3" transform="translate(0 6.451)">
      <ellipse id="Ellipse_24" data-name="Ellipse 24" cx="4.942" cy="5.491" rx="4.942" ry="5.491" transform="translate(10.914)" fill="#fff"/>
      <ellipse id="Ellipse_25" data-name="Ellipse 25" cx="2.221" cy="2.929" rx="2.221" ry="2.929" transform="translate(13.815 2.562)" fill="#09090b"/>
      <ellipse id="Ellipse_26" data-name="Ellipse 26" cx="4.942" cy="5.491" rx="4.942" ry="5.491" fill="#fff"/>
      <ellipse id="Ellipse_27" data-name="Ellipse 27" cx="2.221" cy="2.929" rx="2.221" ry="2.929" transform="translate(3.126 2.562)" fill="#09090b"/>
      <path id="Path_108734" data-name="Path 108734" d="M516.448,600.15a1.269,1.269,0,1,1-2.538,0" transform="translate(-504.329 -589.15)" fill="none" stroke="#09090b" stroke-linecap="round" stroke-linejoin="round" stroke-width="1"/>
      <path id="Path_108735" data-name="Path 108735" d="M348.344,618.163a3.5,3.5,0,0,0-.776,2.062,5.871,5.871,0,0,0,.394,2.325c.161.452.353.892.547,1.33a.245.245,0,0,0,.334.087.252.252,0,0,0,.087-.334c-.041-.092-.082-.184-.122-.276-.018-.041-.036-.082-.054-.124l-.033-.077c-.005-.013-.036-.085-.016-.038-.076-.183-.151-.366-.22-.552a7.919,7.919,0,0,1-.338-1.132q-.031-.147-.054-.3l-.011-.072c0-.029,0,.011,0,.013,0-.013,0-.027-.005-.041-.005-.045-.01-.09-.014-.135a4.414,4.414,0,0,1-.018-.511c0-.087.007-.174.014-.26,0-.039.007-.078.012-.116a.319.319,0,0,1,0-.036c0-.012,0-.037,0,0s0,0,0-.012l.005-.035a3.567,3.567,0,0,1,.115-.5q.042-.134.095-.267a.132.132,0,0,0,.01-.025c0,.026-.014.033,0,0s.019-.045.029-.064c.02-.043.041-.085.063-.126a2.777,2.777,0,0,1,.144-.243c.026-.039.053-.078.082-.116a.132.132,0,0,0,.016-.021l-.011.014.011-.014.051-.062a.244.244,0,1,0-.345-.345Z" transform="translate(-345.436 -606.288)" fill="#09090b"/>
      <path id="Path_108736" data-name="Path 108736" d="M466.637,810.652q-.034,1.878,0,3.757.017.927.05,1.855c.011.3.018.611.041.915a2.943,2.943,0,0,0,.167.878.778.778,0,0,0,.314.4,1.184,1.184,0,0,0,.524.11l1.037.064a.246.246,0,0,0,.244-.244.25.25,0,0,0-.244-.244l-.905-.056-.217-.013c-.027,0-.055-.005-.082-.007s.06.012,0,0l-.053-.011a.119.119,0,0,1-.052-.016s.052.028.009,0c-.008,0-.043-.018-.045-.027s.045.042.011.007l-.029-.029c-.026-.029,0-.02,0,0a.2.2,0,0,0-.018-.028.576.576,0,0,1-.032-.059.318.318,0,0,0-.014-.03c.029.045.009.022,0,0s-.017-.047-.024-.072c-.022-.073-.041-.148-.056-.224-.007-.034-.013-.069-.019-.1l-.007-.041c0-.009-.013-.078,0-.018-.011-.069-.016-.139-.022-.209-.024-.3-.03-.594-.042-.89q-.066-1.815-.069-3.631,0-1.023.017-2.046a.244.244,0,0,0-.488,0Z" transform="translate(-459.159 -789.985)" fill="#09090b"/>
      <path id="Path_108737" data-name="Path 108737" d="M543.112,843.95l.066,2.757.033,1.373c.01.393,0,.857.362,1.1a.952.952,0,0,0,.6.108,2.223,2.223,0,0,1,.264-.008h.03c.05,0-.041-.01-.014,0s.042.008.063.014a.147.147,0,0,0,.027.009c-.008,0-.049-.025-.019-.008s.081.055.024.01a.265.265,0,0,0,.173.071.244.244,0,0,0,.173-.417.813.813,0,0,0-.555-.17c-.078,0-.157.01-.235.013-.036,0-.073,0-.109,0a.35.35,0,0,1-.061,0c-.056,0,.045.011-.009,0l-.05-.013a.135.135,0,0,0-.028-.01c.005,0,.053.028.018.007l-.045-.026c-.015-.008.017.014.019.015a.258.258,0,0,0-.028-.025c-.007-.007-.013-.016-.021-.022s.015.017.015.021a.318.318,0,0,0-.032-.05c0-.008-.029-.061-.014-.025s0,0,0-.006l-.012-.037a.968.968,0,0,1-.025-.108.235.235,0,0,0-.005-.032s.006.052,0,.025-.005-.048-.007-.072c-.007-.092-.008-.185-.01-.277l-.066-2.7-.038-1.517a.244.244,0,1,0-.488,0Z" transform="translate(-532.22 -821.788)" fill="#09090b"/>
    </g>
  </g>
</svg>
