<svg xmlns="http://www.w3.org/2000/svg" width="48.94" height="44.836" viewBox="0 0 48.94 44.836">
  <g id="Group_149" data-name="Group 149" transform="translate(0)">
    <g id="Laag_1" data-name="Laag 1" transform="translate(0)">
      <path id="Path_108682" data-name="Path 108682" d="M282.508,97.316a3.077,3.077,0,0,1-2.081-.785,1.3,1.3,0,0,1-.51-1.022c.061-.649.9-.973,1.517-.757a3.261,3.261,0,0,1,1.417,1.3,6.037,6.037,0,0,1-.761-2.276,2.059,2.059,0,0,1,1.049-2.016.981.981,0,0,1,.736-.055,1.332,1.332,0,0,1,.576.539,8.922,8.922,0,0,1,1.485,3.886A3.726,3.726,0,0,1,286.861,92a1.117,1.117,0,0,1,1.03-.351,1.1,1.1,0,0,1,.469.362,3.671,3.671,0,0,1,.612,3.614,1.3,1.3,0,0,1,.4-1.456,3.624,3.624,0,0,1,1.451-.685,1.12,1.12,0,0,1,.61-.06.864.864,0,0,1,.537.731,2.359,2.359,0,0,1-1.9,2.4" transform="translate(-270.949 -91.615)" fill="#f786b9"/>
      <path id="Path_108683" data-name="Path 108683" d="M281.073,184.028a10.52,10.52,0,0,0-5.994,1.315c-1.728,1.153-2.774,3.558-1.791,5.389.515.959,1.514,1.681,1.7,2.753.214,1.253-.762,2.352-1.273,3.515a5.889,5.889,0,0,0,.4,5.188,8.457,8.457,0,0,0,4.036,3.441,10.045,10.045,0,0,0,11.093-2.091c2.732-2.937,3.035-7.955.395-10.974-.657-.752-1.458-1.368-2.1-2.135-1.141-1.356-1.724-3.1-2.779-4.522s-2.938-2.54-4.561-1.825" transform="translate(-264.179 -180.783)" fill="#6fc649"/>
      <path id="Path_108684" data-name="Path 108684" d="M421.046,395.37a.944.944,0,1,1-1.859.33" transform="translate(-405.576 -385.238)" fill="none" stroke="#09090b" stroke-linecap="round" stroke-linejoin="round" stroke-width="5"/>
      <path id="Path_108685" data-name="Path 108685" d="M501.662,860.612a17.546,17.546,0,0,0,.035,1.835,6.949,6.949,0,0,1,.029.884c0,.037,0,.075-.008.112a.36.36,0,0,1-.005.048c0,.011,0,.021,0,.032,0-.017,0-.019,0,0-.01.064-.021.128-.036.191s-.029.111-.048.165c-.01.028-.02.056-.031.084l-.008.019c.01-.025,0,0,0,.008s-.007.015-.011.023a1.482,1.482,0,0,1-.093.172c-.018.029-.036.056-.056.083l-.011.015c-.014.02.021-.026.005-.007s-.021.026-.033.039a1.2,1.2,0,0,1-.137.135l-.014.012c-.021.017-.014,0,0,0a.265.265,0,0,0-.041.029c-.028.019-.056.036-.085.052a.182.182,0,1,0,.183.314,1.721,1.721,0,0,0,.778-1.334,4.758,4.758,0,0,0,0-.915c-.022-.312-.042-.623-.05-.936q-.015-.53,0-1.06a.183.183,0,0,0-.181-.182.186.186,0,0,0-.182.182Z" transform="translate(-484.679 -834.785)" fill="#09090b"/>
      <path id="Path_108686" data-name="Path 108686" d="M615.931,849.994a18.827,18.827,0,0,0,.278,2.321q.052.283.113.565a1.086,1.086,0,0,0,.119.393,1.755,1.755,0,0,0,.529.461,2.467,2.467,0,0,0,.334.181.879.879,0,0,0,.333.093.182.182,0,1,0,0-.363h-.019c-.036,0,.049.01.019,0l-.051-.012c-.018,0-.038-.011-.057-.018l-.033-.012c-.008,0-.049-.02-.016-.006l-.013-.006-.036-.017-.07-.033q-.076-.039-.149-.084c-.049-.029-.1-.06-.144-.093l-.067-.046-.033-.023s-.031-.024,0,0l0,0a1.542,1.542,0,0,1-.211-.2c.036.042.008.011-.006-.011l-.013-.023c0-.008-.018-.039,0,0s0,.007,0,0-.008-.033-.012-.052l-.033-.143q-.059-.27-.11-.541t-.094-.544q-.023-.14-.042-.281c0-.022-.006-.043-.009-.064s0-.027-.006-.04,0-.036,0,0c-.006-.046-.012-.091-.018-.137q-.079-.624-.114-1.253a.182.182,0,1,0-.363,0Z" transform="translate(-595.749 -824.525)" fill="#09090b"/>
      <ellipse id="Ellipse_8" data-name="Ellipse 8" cx="1.816" cy="1.816" rx="1.816" ry="1.816" transform="translate(10.159 6.209)" fill="#fff"/>
      <ellipse id="Ellipse_9" data-name="Ellipse 9" cx="0.799" cy="0.799" rx="0.799" ry="0.799" transform="translate(11.176 7.226)" fill="#0a090b"/>
      <ellipse id="Ellipse_10" data-name="Ellipse 10" cx="1.816" cy="1.816" rx="1.816" ry="1.816" transform="translate(14.572 5.829)" fill="#fff"/>
      <ellipse id="Ellipse_11" data-name="Ellipse 11" cx="0.799" cy="0.799" rx="0.799" ry="0.799" transform="translate(15.589 6.846)" fill="#0a090b"/>
      <path id="Path_108687" data-name="Path 108687" d="M23.674,384.516a2.644,2.644,0,0,0-1.665-1.132,4.032,4.032,0,0,0-2.041.116,3.872,3.872,0,0,0-2.61,2.258,3.252,3.252,0,0,0-2.062-.976,2.778,2.778,0,0,0-2.128.767A5.481,5.481,0,0,0,14.5,380.69a1.632,1.632,0,0,0,.687.251.452.452,0,0,0,.286-.035.351.351,0,0,0,.139-.373.963.963,0,0,0-.2-.373,2.956,2.956,0,0,0-.8-.789,1.294,1.294,0,0,0-1.086-.151,1.936,1.936,0,0,0-.892.891,9.387,9.387,0,0,0-1.384,3.239,4.231,4.231,0,0,0,.716,3.362,4.2,4.2,0,0,0,1.822,1.257,9.218,9.218,0,0,0,2.184.474,23.311,23.311,0,0,0,7.7-.384" transform="translate(-11.172 -369.567)" fill="#6fc649"/>
      <path id="Path_108688" data-name="Path 108688" d="M698.53,185.146a2.831,2.831,0,0,1,1.054-1.883,4.318,4.318,0,0,1,2.012-.867,4.152,4.152,0,0,1,3.585.913,3.483,3.483,0,0,1,1.509-1.924,2.975,2.975,0,0,1,2.408-.284,5.875,5.875,0,0,1-3.6-4.019,1.749,1.749,0,0,1-.538.57.488.488,0,0,1-.29.1.379.379,0,0,1-.312-.292,1.022,1.022,0,0,1,.009-.452,3.14,3.14,0,0,1,.391-1.14,1.4,1.4,0,0,1,.967-.667,2.075,2.075,0,0,1,1.282.427,10.052,10.052,0,0,1,2.879,2.442,4.112,4.112,0,0,1-.217,5.645,9.855,9.855,0,0,1-1.866,1.5,24.985,24.985,0,0,1-7.561,3.322" transform="translate(-675.602 -172.408)" fill="#6fc649"/>
    </g>
    <g id="Laag_1-2" data-name="Laag 1" transform="translate(30.421 0.62)">
      <path id="Path_108675" data-name="Path 108675" d="M344.974,712.726q-.052.16-.112.319c-.018.045-.036.091-.055.136,0,0-.025.059-.009.022s0,.005-.006.013c-.012.029-.025.057-.038.085a6.374,6.374,0,0,1-.66,1.137c-.029.04-.059.08-.091.12s.023-.029,0,0l-.023.029-.058.073q-.1.127-.213.248a6.331,6.331,0,0,1-.532.525.249.249,0,0,0,0,.351.254.254,0,0,0,.351,0,6.557,6.557,0,0,0,1.628-2.171,6.977,6.977,0,0,0,.3-.754.25.25,0,0,0-.173-.3.253.253,0,0,0-.305.173Z" transform="translate(-343.105 -695.863)" fill="#09090b"/>
      <path id="Path_108676" data-name="Path 108676" d="M348.888,420.171a7.751,7.751,0,0,0-2.135,3.451,8.971,8.971,0,0,0,4.7,10.232,8.35,8.35,0,0,0,10.515-3.568,13.382,13.382,0,0,0,1-2.919,8.166,8.166,0,0,0,.327-2.706c-.2-2.147-1.911-3.846-3.728-5.01-2.359-1.514-5.539-2.4-7.933-1.076-.389.216-.79.409-1.193.6A5.873,5.873,0,0,0,348.888,420.171Z" transform="translate(-346.316 -414.648)" fill="#89e8e5"/>
      <ellipse id="Ellipse_4" data-name="Ellipse 4" cx="2.477" cy="2.477" rx="2.477" ry="2.477" transform="translate(3.099 6.903)" fill="#fff"/>
      <ellipse id="Ellipse_5" data-name="Ellipse 5" cx="1.09" cy="1.09" rx="1.09" ry="1.09" transform="translate(3.61 8.29)" fill="#0a090b"/>
      <ellipse id="Ellipse_6" data-name="Ellipse 6" cx="2.477" cy="2.477" rx="2.477" ry="2.477" transform="translate(9.102 6.903)" fill="#fff"/>
      <ellipse id="Ellipse_7" data-name="Ellipse 7" cx="1.09" cy="1.09" rx="1.09" ry="1.09" transform="translate(9.613 8.29)" fill="#0a090b"/>
      <path id="Path_108677" data-name="Path 108677" d="M509.85,601.188a1.487,1.487,0,0,0,1.984-.207" transform="translate(-502.264 -589.372)" fill="none" stroke="#09090b" stroke-linecap="round" stroke-linejoin="round" stroke-width="5"/>
      <path id="Path_108678" data-name="Path 108678" d="M405.932,766.341q-.333,2.164-.8,4.305t-1.059,4.249q-.08.287-.164.574c-.027.094-.056.187-.083.281-.015.053.029-.043,0,0l-.017.028q.034-.043.007-.015c.009-.009.078-.038.033-.028.071-.017-.006,0-.024-.008l.03,0-.04-.007-.091-.015-.156-.026-.312-.052-.624-.1a.255.255,0,0,0-.305.173.251.251,0,0,0,.173.3l1.125.19a.988.988,0,0,0,.345.021.419.419,0,0,0,.273-.2,1.072,1.072,0,0,0,.1-.257l.081-.276q.31-1.073.587-2.156t.522-2.184q.243-1.092.451-2.188t.385-2.21l.042-.273a.273.273,0,0,0-.025-.191.248.248,0,0,0-.453.059Z" transform="translate(-399.63 -747.04)" fill="#09090b"/>
      <path id="Path_108679" data-name="Path 108679" d="M528.492,776.916q.046,1.794.157,3.586t.284,3.589q.1,1.006.216,2.007l.182-.239-1.444.2a.248.248,0,0,0-.059.453.291.291,0,0,0,.191.025l1.444-.2a.246.246,0,0,0,.182-.239q-.208-1.783-.354-3.572t-.227-3.594q-.046-1.009-.073-2.019a.248.248,0,0,0-.5,0Z" transform="translate(-519.307 -757.065)" fill="#09090b"/>
      <path id="Path_108680" data-name="Path 108680" d="M638.13,670.108a8.182,8.182,0,0,0,.95,2.825,8.481,8.481,0,0,0,1.869,2.313,8.169,8.169,0,0,0,1.392.973.248.248,0,0,0,.25-.428c-.215-.119-.425-.247-.628-.386-.1-.068-.2-.136-.293-.21-.023-.017-.046-.033-.068-.052.053.045-.018-.014-.031-.024l-.147-.119a8.156,8.156,0,0,1-1.03-1.02l-.115-.137-.053-.067-.021-.027-.021-.027.007.009q-.11-.143-.213-.291-.207-.3-.388-.607a7.187,7.187,0,0,1-.333-.649c-.025-.055-.05-.109-.075-.164l-.034-.079c-.005-.012-.02-.042.005.012-.01-.021-.017-.042-.026-.063-.046-.111-.091-.223-.129-.336a7.828,7.828,0,0,1-.388-1.579.247.247,0,0,0-.453-.057.293.293,0,0,0-.025.191Z" transform="translate(-624.705 -655.056)" fill="#09090b"/>
      <path id="Path_108681" data-name="Path 108681" d="M452.218,352.254a29.122,29.122,0,0,1-2.34-2.716,5.3,5.3,0,0,1-.9-1.354,5.967,5.967,0,0,1-.335-1.609.8.8,0,0,1,.01-.338.558.558,0,0,1,.45-.339,1.17,1.17,0,0,1,.955.335,3.462,3.462,0,0,1,.61.846l1.095,1.9A2.78,2.78,0,0,1,454,345.84a.492.492,0,0,1,.3.011.474.474,0,0,1,.221.339,2.654,2.654,0,0,1-.065,1.309C453.994,349.2,452.654,350.553,452.218,352.254Z" transform="translate(-443.825 -345.822)" fill="#f95d5d"/>
    </g>
    <g id="characters_orange" transform="translate(1.998 12.219)">
      <g id="Laag_2" data-name="Laag 2" transform="translate(2.737 0)">
        <path id="Path_108729" data-name="Path 108729" d="M448.323,282.3s-.274.831.3.239,2.715.359,2.715.359-.146.686.429.077,2.022,1.478,2.022,1.478l-1.167.787-6.135-1.1.258-1.647Z" transform="translate(-443.562 -279.534)" fill="#89e8e5"/>
        <path id="Path_108730" data-name="Path 108730" d="M1.249,0h0A1.249,1.249,0,0,1,2.5,1.249V6.143a.573.573,0,0,1-.573.573H.573A.573.573,0,0,1,0,6.143V1.249A1.249,1.249,0,0,1,1.249,0Z" transform="matrix(0.85, 0.526, -0.526, 0.85, 3.534, 0)" fill="#89e8e5"/>
        <path id="Path_108731" data-name="Path 108731" d="M1.252,0h0A1.251,1.251,0,0,1,2.5,1.251v4.9a.574.574,0,0,1-.574.574H.574A.574.574,0,0,1,0,6.154v-4.9A1.251,1.251,0,0,1,1.251,0Z" transform="matrix(0.849, 0.529, -0.529, 0.849, 6.882, 0.07)" fill="#89e8e5"/>
        <path id="Path_108732" data-name="Path 108732" d="M1.249,0h0A1.249,1.249,0,0,1,2.5,1.249V6.143a.573.573,0,0,1-.573.573H.573A.573.573,0,0,1,0,6.143V1.249A1.249,1.249,0,0,1,1.249,0Z" transform="matrix(0.85, 0.526, -0.526, 0.85, 9.82, 0.833)" fill="#89e8e5"/>
      </g>
      <g id="Laag_1-3" data-name="Laag 1" transform="translate(0.646 3.663)">
        <path id="Path_108733" data-name="Path 108733" d="M319.946,306.514a10.97,10.97,0,0,0-2.84,6.311c-.482,3.328-.313,6.933,1.53,9.745a9.213,9.213,0,0,0,14.38,1.3c1.668-1.753,2.526-4.707.957-6.549-.88-1.035-2.358-1.521-2.988-2.724-.716-1.369-.035-3.041-.217-4.575a5.23,5.23,0,0,0-3.407-4,11.068,11.068,0,0,0-5.443-.414A4.926,4.926,0,0,0,319.946,306.514Z" transform="translate(-316.875 -305.468)" fill="#fe8200"/>
      </g>
      <g id="Laag_3" data-name="Laag 3" transform="translate(0 5.572)">
        <ellipse id="Ellipse_24" data-name="Ellipse 24" cx="4.268" cy="4.743" rx="4.268" ry="4.743" transform="translate(9.427)" fill="#fff"/>
        <ellipse id="Ellipse_25" data-name="Ellipse 25" cx="1.919" cy="2.53" rx="1.919" ry="2.53" transform="translate(11.932 2.213)" fill="#09090b"/>
        <ellipse id="Ellipse_26" data-name="Ellipse 26" cx="4.268" cy="4.743" rx="4.268" ry="4.743" fill="#fff"/>
        <ellipse id="Ellipse_27" data-name="Ellipse 27" cx="1.919" cy="2.53" rx="1.919" ry="2.53" transform="translate(2.7 2.213)" fill="#09090b"/>
        <path id="Path_108734" data-name="Path 108734" d="M516.1,600.15a1.1,1.1,0,1,1-2.192,0" transform="translate(-505.634 -590.649)" fill="none" stroke="#09090b" stroke-linecap="round" stroke-linejoin="round" stroke-width="5"/>
        <path id="Path_108735" data-name="Path 108735" d="M348.237,618.153a3.024,3.024,0,0,0-.67,1.781,5.07,5.07,0,0,0,.34,2.008c.139.39.3.771.473,1.149a.211.211,0,0,0,.288.076.217.217,0,0,0,.076-.288c-.035-.079-.07-.159-.1-.238-.016-.036-.031-.071-.046-.107l-.029-.066c0-.011-.031-.074-.014-.032-.066-.158-.13-.316-.19-.477a6.84,6.84,0,0,1-.292-.978q-.027-.127-.046-.256l-.009-.062c0-.025,0,.009,0,.012s0-.024,0-.036c0-.039-.009-.077-.012-.116a3.813,3.813,0,0,1-.015-.441c0-.075.006-.15.012-.225,0-.034.006-.067.01-.1a.285.285,0,0,1,0-.031c0-.01,0-.032,0,0s0,0,0-.01l0-.03a3.1,3.1,0,0,1,.1-.435q.036-.116.082-.23A.113.113,0,0,0,348.2,619c0,.022-.012.029,0,0s.017-.039.025-.055c.017-.037.035-.073.054-.109a2.421,2.421,0,0,1,.124-.209c.023-.034.046-.067.07-.1a.116.116,0,0,0,.014-.018l-.01.012.01-.012.044-.053a.211.211,0,1,0-.3-.3Z" transform="translate(-345.725 -607.896)" fill="#09090b"/>
        <path id="Path_108736" data-name="Path 108736" d="M466.635,810.619q-.029,1.622,0,3.245.015.8.043,1.6c.01.263.015.527.035.79a2.541,2.541,0,0,0,.144.759.672.672,0,0,0,.271.348,1.022,1.022,0,0,0,.453.1l.9.055a.213.213,0,0,0,.211-.211.216.216,0,0,0-.211-.211l-.782-.048-.187-.011c-.024,0-.047,0-.071-.006s.052.01,0,0l-.046-.01a.1.1,0,0,1-.045-.013s.045.024.008,0c-.007,0-.037-.016-.039-.023s.039.036.009.006l-.025-.025c-.022-.025,0-.017,0,0a.168.168,0,0,0-.015-.024.507.507,0,0,1-.028-.051.276.276,0,0,0-.012-.026c.025.039.008.019,0,0s-.014-.041-.021-.062c-.019-.064-.035-.128-.048-.194-.006-.029-.012-.059-.017-.089l-.006-.036c0-.007-.011-.067,0-.016-.01-.06-.014-.12-.019-.18-.021-.255-.026-.513-.036-.769q-.057-1.568-.06-3.136,0-.883.014-1.767a.211.211,0,1,0-.421,0Z" transform="translate(-460.175 -792.768)" fill="#09090b"/>
        <path id="Path_108737" data-name="Path 108737" d="M543.112,843.917l.057,2.381.028,1.186c.008.339,0,.74.313.954a.823.823,0,0,0,.519.093,1.9,1.9,0,0,1,.228-.007h.026c.043,0-.036-.009-.012,0s.036.007.054.012l.024.008a.091.091,0,1,0-.017-.007c.014.008.07.048.021.009a.229.229,0,0,0,.149.062.211.211,0,0,0,.149-.36.7.7,0,0,0-.48-.147c-.068,0-.135.009-.2.012-.031,0-.063,0-.094,0a.308.308,0,0,1-.053,0c-.048,0,.039.01-.008,0l-.043-.011-.024-.008s.046.024.015.006l-.039-.023c-.013-.007.015.012.016.013a.205.205,0,0,0-.024-.022c-.006-.006-.011-.014-.018-.019s.013.014.013.018a.269.269,0,0,0-.027-.043c0-.007-.025-.052-.012-.022s0,0,0-.005l-.01-.032a.854.854,0,0,1-.022-.093.2.2,0,0,0,0-.028s.005.045,0,.021,0-.041-.006-.062c-.006-.08-.006-.159-.008-.239l-.057-2.333-.033-1.31a.211.211,0,1,0-.422,0Z" transform="translate(-533.704 -824.775)" fill="#09090b"/>
      </g>
    </g>
    <g id="Group_111" data-name="Group 111" transform="translate(22.445 15.359)">
      <g id="Laag_1-4" data-name="Laag 1" transform="translate(0 0)">
        <path id="Path_108699" data-name="Path 108699" d="M262.62,256.839a8.518,8.518,0,0,0-4.579-3.5,16.75,16.75,0,0,0-3.746-.551l-4,.058a4.387,4.387,0,0,0-1.375.25,6.944,6.944,0,0,1-.944.257,5.4,5.4,0,0,0-3.742,3.777C247.744,257.45,255.939,257.985,262.62,256.839Z" transform="translate(-241.051 -247.494)" fill="#f95d5d"/>
        <path id="Path_108700" data-name="Path 108700" d="M232.187,422.952c-.24,2.315.345,4.648.555,6.976a14.026,14.026,0,0,0,.43,3.063c.95,2.953,4.307,4.5,7.4,4.638a11.133,11.133,0,0,0,8.861-3.451,12.091,12.091,0,0,0,2.623-5.966,11.431,11.431,0,0,0-.054-4.663,7.874,7.874,0,0,0-.32-1C244.656,423.921,235.609,423.276,232.187,422.952Z" transform="translate(-229.345 -411.714)" fill="#f95d5d"/>
        <path id="Path_108701" data-name="Path 108701" d="M242.819,406.939c-.794,0-1.552-.011-2.262-.029-2.748-.07-5.129-.251-6.616-.388-.008.047-.016.094-.023.141-.019.131-.035.263-.049.4,3.423.323,12.47.969,19.5-.4q-.107-.272-.234-.536A57.352,57.352,0,0,1,242.819,406.939Z" transform="translate(-231.029 -395.82)" fill="#89e8e5"/>
        <path id="Path_108702" data-name="Path 108702" d="M257.127,377.465q-.171-.32-.369-.625c-6.68,1.146-14.875.611-18.389.294a6.989,6.989,0,0,0-.2.712C241.732,378.168,250.355,378.734,257.127,377.465Z" transform="translate(-235.188 -367.496)" fill="#89e8e5"/>
        <path id="Path_108703" data-name="Path 108703" d="M236.129,396.41q-.039.176-.069.352c1.487.136,3.868.318,6.616.388.71.018,1.468.029,2.262.029a57.352,57.352,0,0,0,10.315-.819c-.053-.111-.109-.221-.167-.329C248.314,397.3,239.691,396.732,236.129,396.41Z" transform="translate(-233.147 -386.06)" fill="#fff"/>
        <ellipse id="Ellipse_16" data-name="Ellipse 16" cx="1.777" cy="1.776" rx="1.777" ry="1.776" transform="translate(8.445 12.638)" fill="#fff"/>
        <ellipse id="Ellipse_17" data-name="Ellipse 17" cx="0.782" cy="0.782" rx="0.782" ry="0.782" transform="translate(8.811 13.633)" fill="#0a090b"/>
        <ellipse id="Ellipse_18" data-name="Ellipse 18" cx="1.777" cy="1.776" rx="1.777" ry="1.776" transform="translate(12.751 12.638)" fill="#fff"/>
        <ellipse id="Ellipse_19" data-name="Ellipse 19" cx="0.782" cy="0.782" rx="0.782" ry="0.782" transform="translate(13.117 13.633)" fill="#0a090b"/>
        <path id="Path_108704" data-name="Path 108704" d="M509.21,591.4a2.574,2.574,0,0,0,1.4-.182s.182,2.023-.571,2.1S509.21,591.4,509.21,591.4Z" transform="translate(-497.384 -574.88)" fill="#0a090b"/>
        <path id="Path_108705" data-name="Path 108705" d="M151.843,107.943S147.835,90.059,164.622,90.5c16.562.436,11.474,18.169,11.474,18.169" transform="translate(-151.274 -90.493)" fill="none" stroke="#0a090b" stroke-miterlimit="10" stroke-width="1.78"/>
        <rect id="Rectangle_164" data-name="Rectangle 164" width="0.98" height="2.977" rx="0.49" transform="translate(24.713 16.123) rotate(11.76)" fill="#6fc649"/>
        <rect id="Rectangle_165" data-name="Rectangle 165" width="0.98" height="2.977" rx="0.49" transform="translate(1.413 19.575) rotate(171.41)" fill="#6fc649"/>
        <path id="Path_108706" data-name="Path 108706" d="M830.466,616.822a4.169,4.169,0,0,0,.049,1.016,1.884,1.884,0,0,0,.44.828,1.291,1.291,0,0,0,.87.445.991.991,0,0,0,.718-.344,1.176,1.176,0,0,0,.351-.839.178.178,0,1,0-.355,0,.723.723,0,0,1,0,.078c0,.012,0,.023,0,.035s0,.031,0,0,0,0,0,.007a.9.9,0,0,1-.046.161.127.127,0,0,0-.008.02s.015-.035.007-.017-.012.027-.018.04-.027.053-.042.078-.029.048-.045.071l-.026.037c-.019.026.005-.009.007-.009s-.015.019-.018.022a1.189,1.189,0,0,1-.123.131l-.029.026-.017.014c-.013.011-.016,0,.01-.008a.55.55,0,0,0-.071.049c-.024.015-.048.029-.073.042l-.033.016c-.02.01.036-.013.014-.006l-.024.009a.609.609,0,0,1-.072.022l-.039.008-.015,0c.05-.012.024,0,.008,0a.513.513,0,0,1-.072,0l-.026,0c-.021,0,.012,0,.012,0a.2.2,0,0,1-.062-.011.9.9,0,0,1-.1-.029.448.448,0,0,1-.053-.02c.033.017.011,0,0,0l-.033-.015a1.239,1.239,0,0,1-.182-.111l-.015-.01c.022.007.02.016.006,0l-.039-.033c-.025-.022-.05-.045-.074-.069s-.047-.049-.069-.074l-.028-.033c-.009-.01-.011-.013-.016-.02s.02.028,0,0a1.989,1.989,0,0,1-.112-.171,1.949,1.949,0,0,1-.091-.182c-.013-.03.012.033,0-.011l-.016-.041c-.013-.036-.026-.072-.037-.109s-.022-.083-.03-.125c0-.021-.008-.042-.011-.063a.174.174,0,0,1,0-.029c0,.014,0,.026,0,0-.01-.087-.015-.174-.017-.261,0-.175,0-.349.007-.522a.178.178,0,0,0-.355,0Z" transform="translate(-808.149 -599.483)" fill="#09090b"/>
        <path id="Path_108707" data-name="Path 108707" d="M175.657,618.859a4.436,4.436,0,0,1-.019.5c0,.02,0,.04-.007.06a.19.19,0,0,1,0,.03c0-.006.005-.036,0,0s-.013.085-.022.127a2.447,2.447,0,0,1-.06.242c-.04.13-.085.261-.131.392-.01.028-.021.057-.033.085l-.009.023c0,.006-.014.03,0,.006s0,0,0,.006l-.012.027a1.342,1.342,0,0,1-.092.17c-.008.013-.017.026-.026.038l-.013.019c-.014.019.022-.027.007-.009s-.042.049-.065.071l-.033.033-.017.015c-.021.017.009,0,.008-.007s-.082.053-.091.057a.5.5,0,0,1-.095.047c.035-.01.012,0,0,0l-.026.01-.067.022a.316.316,0,0,1-.11.023s.033,0,.012,0a.1.1,0,0,0-.025,0,.351.351,0,0,0-.041,0,.751.751,0,0,1-.076,0l-.039,0c-.029,0,.016,0,.018,0l-.024,0a1.213,1.213,0,0,1-.166-.041c-.027-.008-.054-.018-.081-.028l-.02-.008c-.014-.006-.015-.014.013.005a.319.319,0,0,0-.044-.02,1.328,1.328,0,0,1-.156-.086.949.949,0,0,0-.079-.055c.033.016.023.018.011.009l-.024-.02-.033-.027c-.023-.021-.046-.044-.068-.068s-.019-.023-.029-.033.009.011.01.013a.2.2,0,0,0-.017-.023.68.68,0,0,1-.044-.073c0-.007-.023-.051-.01-.02s0-.013-.007-.021c-.008-.026-.012-.052-.019-.078.014.058,0,.013,0-.006a.289.289,0,0,1,0-.045.179.179,0,0,0-.178-.178.182.182,0,0,0-.178.178.823.823,0,0,0,.353.664,1.521,1.521,0,0,0,.778.322.973.973,0,0,0,.443-.059,1.086,1.086,0,0,0,.424-.271,2.183,2.183,0,0,0,.394-.812,3.115,3.115,0,0,0,.138-.587,4.188,4.188,0,0,0,.033-.607.178.178,0,0,0-.355,0Z" transform="translate(-172.576 -601.457)" fill="#09090b"/>
        <path id="Path_108708" data-name="Path 108708" d="M516.4,874.393l.037,1.508c.012.5.03.99.036,1.485v.086a.268.268,0,0,1,0,.043c0,.009,0,.072,0,.023a.371.371,0,0,1-.018.083.142.142,0,0,1-.013.04c.024-.035,0,.008-.01.016l-.013.021q-.017.024.006-.006l-.016.019-.026.026c-.015.012-.012.011.007,0l-.02.013-.021.012.009,0-.022.007-.011,0c-.02,0-.015,0,.012,0,0,.005-.079-.009-.012,0a.182.182,0,0,0-.219.124.18.18,0,0,0,.124.219.47.47,0,0,0,.4-.119.587.587,0,0,0,.177-.326,1.843,1.843,0,0,0,.018-.4l-.009-.389-.041-1.593-.022-.892a.178.178,0,0,0-.355,0Z" transform="translate(-504.052 -848.64)" fill="#09090b"/>
        <path id="Path_108709" data-name="Path 108709" d="M575.613,870.175a13.39,13.39,0,0,0,.224,2.812q.072.388.168.771a.177.177,0,0,0,.124.124l.347.085a.178.178,0,0,0,.095-.343l-.347-.085.124.124a13.163,13.163,0,0,1-.264-1.363.269.269,0,0,0-.005-.039c0-.031.006.043,0-.008,0-.026-.007-.052-.01-.078q-.012-.094-.022-.188-.02-.173-.033-.346-.028-.343-.04-.685-.012-.392,0-.783a.178.178,0,0,0-.355,0Z" transform="translate(-561.616 -844.566)" fill="#09090b"/>
      </g>
    </g>
  </g>
</svg>
