<svg xmlns="http://www.w3.org/2000/svg" width="57.034" height="44.099" viewBox="0 0 57.034 44.099">
  <g id="Group_100" data-name="Group 100" transform="translate(0 0)">
    <g id="Laag_1" data-name="Laag 1" transform="translate(1.95 0)">
      <path id="Path_108682" data-name="Path 108682" d="M282.492,97.28a3.058,3.058,0,0,1-2.068-.78,1.294,1.294,0,0,1-.506-1.016c.06-.645.9-.967,1.507-.752a3.24,3.24,0,0,1,1.408,1.293,6,6,0,0,1-.756-2.262,2.045,2.045,0,0,1,1.043-2,.974.974,0,0,1,.731-.055,1.324,1.324,0,0,1,.572.536A8.867,8.867,0,0,1,285.9,96.1,3.7,3.7,0,0,1,286.817,92a1.11,1.11,0,0,1,1.023-.349,1.092,1.092,0,0,1,.466.359,3.647,3.647,0,0,1,.608,3.591,1.3,1.3,0,0,1,.4-1.447,3.6,3.6,0,0,1,1.441-.681,1.113,1.113,0,0,1,.606-.06.858.858,0,0,1,.534.726,2.344,2.344,0,0,1-1.884,2.386" transform="translate(-271.007 -91.615)" fill="#f786b9"/>
      <path id="Path_108683" data-name="Path 108683" d="M281.021,184.027a10.453,10.453,0,0,0-5.955,1.307c-1.717,1.145-2.756,3.535-1.779,5.355.511.953,1.5,1.67,1.687,2.736.212,1.245-.757,2.337-1.265,3.492a5.851,5.851,0,0,0,.4,5.155,8.4,8.4,0,0,0,4.01,3.419,9.98,9.98,0,0,0,11.022-2.078c2.714-2.919,3.016-7.9.392-10.9-.653-.747-1.448-1.359-2.088-2.121-1.133-1.347-1.713-3.079-2.761-4.493s-2.919-2.523-4.532-1.814" transform="translate(-264.235 -180.802)" fill="#6fc649"/>
      <path id="Path_108684" data-name="Path 108684" d="M421.034,395.37a.938.938,0,1,1-1.848.328" transform="translate(-405.664 -385.303)" fill="none" stroke="#09090b" stroke-linecap="round" stroke-linejoin="round" stroke-width="5"/>
      <path id="Path_108685" data-name="Path 108685" d="M501.658,860.61a17.456,17.456,0,0,0,.035,1.823,6.859,6.859,0,0,1,.029.878c0,.037,0,.074-.008.111a.347.347,0,0,1,0,.047c0,.011,0,.021,0,.031,0-.017,0-.018,0,0-.01.064-.021.127-.036.19s-.029.11-.047.164c-.01.028-.02.056-.03.083l-.008.019c.01-.024,0,0,0,.008s-.007.015-.011.023a1.483,1.483,0,0,1-.093.171c-.017.028-.036.056-.056.082l-.011.015c-.014.02.021-.026.005-.007s-.021.026-.033.039a1.186,1.186,0,0,1-.136.135l-.014.012c-.021.017-.014.005,0,0a.269.269,0,0,0-.04.029c-.028.018-.056.036-.085.052a.181.181,0,1,0,.182.312,1.71,1.71,0,0,0,.773-1.326,4.734,4.734,0,0,0,0-.909c-.022-.31-.041-.62-.05-.93q-.015-.526,0-1.053a.182.182,0,0,0-.18-.181.185.185,0,0,0-.181.181Z" transform="translate(-484.784 -834.949)" fill="#09090b"/>
      <path id="Path_108686" data-name="Path 108686" d="M615.931,849.992a18.726,18.726,0,0,0,.276,2.306q.052.281.112.562a1.081,1.081,0,0,0,.119.39,1.745,1.745,0,0,0,.526.458,2.427,2.427,0,0,0,.331.18.874.874,0,0,0,.331.093.181.181,0,1,0,0-.361h-.019c-.036,0,.049.01.019,0l-.051-.012-.057-.018-.033-.012c-.008,0-.049-.02-.016-.006l-.013-.006-.036-.017-.07-.033c-.05-.026-.1-.054-.148-.083s-.1-.06-.144-.092l-.066-.046-.033-.023s-.031-.023,0,0l0,0a1.55,1.55,0,0,1-.209-.2c.036.042.008.011-.006-.011l-.013-.023c0-.008-.018-.039,0,0s0,.007,0,0-.008-.033-.012-.052l-.033-.142q-.059-.268-.11-.537t-.093-.541q-.023-.139-.042-.279c0-.021-.006-.043-.009-.064s0-.027-.006-.04,0-.036,0,0c-.006-.045-.012-.09-.018-.136q-.078-.62-.113-1.245a.181.181,0,1,0-.361,0Z" transform="translate(-595.879 -824.687)" fill="#09090b"/>
      <ellipse id="Ellipse_8" data-name="Ellipse 8" cx="1.804" cy="1.804" rx="1.804" ry="1.804" transform="translate(10.094 6.169)" fill="#fff"/>
      <ellipse id="Ellipse_9" data-name="Ellipse 9" cx="0.794" cy="0.794" rx="0.794" ry="0.794" transform="translate(11.104 7.18)" fill="#0a090b"/>
      <ellipse id="Ellipse_10" data-name="Ellipse 10" cx="1.804" cy="1.804" rx="1.804" ry="1.804" transform="translate(14.479 5.791)" fill="#fff"/>
      <ellipse id="Ellipse_11" data-name="Ellipse 11" cx="0.794" cy="0.794" rx="0.794" ry="0.794" transform="translate(15.489 6.802)" fill="#0a090b"/>
      <path id="Path_108687" data-name="Path 108687" d="M23.593,384.481a2.627,2.627,0,0,0-1.654-1.125,4.005,4.005,0,0,0-2.028.115,3.847,3.847,0,0,0-2.593,2.243,3.232,3.232,0,0,0-2.049-.97,2.761,2.761,0,0,0-2.115.762,5.446,5.446,0,0,0,1.323-4.827,1.623,1.623,0,0,0,.683.25.449.449,0,0,0,.284-.035.349.349,0,0,0,.138-.371.956.956,0,0,0-.195-.371,2.936,2.936,0,0,0-.8-.784,1.285,1.285,0,0,0-1.079-.15,1.924,1.924,0,0,0-.887.886,9.327,9.327,0,0,0-1.375,3.218,4.2,4.2,0,0,0,.712,3.34,4.176,4.176,0,0,0,1.81,1.249,9.159,9.159,0,0,0,2.17.471A23.161,23.161,0,0,0,23.588,388" transform="translate(-11.172 -369.628)" fill="#6fc649"/>
      <path id="Path_108688" data-name="Path 108688" d="M698.53,185.082a2.812,2.812,0,0,1,1.047-1.871,4.291,4.291,0,0,1,2-.862,4.125,4.125,0,0,1,3.562.907,3.46,3.46,0,0,1,1.5-1.912,2.955,2.955,0,0,1,2.392-.282,5.837,5.837,0,0,1-3.582-3.993,1.738,1.738,0,0,1-.535.567.485.485,0,0,1-.289.1.376.376,0,0,1-.31-.29,1.016,1.016,0,0,1,.009-.449,3.12,3.12,0,0,1,.388-1.133,1.387,1.387,0,0,1,.961-.663,2.063,2.063,0,0,1,1.274.424,9.987,9.987,0,0,1,2.861,2.426,4.086,4.086,0,0,1-.216,5.608,9.789,9.789,0,0,1-1.854,1.491,24.824,24.824,0,0,1-7.513,3.3" transform="translate(-675.749 -172.426)" fill="#6fc649"/>
    </g>
    <g id="Laag_1-2" data-name="Laag 1" transform="translate(31.258 0)">
      <path id="Path_108675" data-name="Path 108675" d="M344.962,712.725q-.052.159-.112.316c-.018.045-.036.09-.055.136,0,0-.025.058-.009.022s0,.005-.006.013l-.038.085a6.33,6.33,0,0,1-.656,1.13c-.029.04-.059.08-.09.119s.023-.029,0,0l-.023.029-.058.072q-.1.126-.212.247a6.3,6.3,0,0,1-.528.522.248.248,0,0,0,0,.348.252.252,0,0,0,.349,0,6.514,6.514,0,0,0,1.617-2.157,6.909,6.909,0,0,0,.3-.749.248.248,0,0,0-.172-.3.252.252,0,0,0-.3.172Z" transform="translate(-343.105 -695.97)" fill="#09090b"/>
      <path id="Path_108676" data-name="Path 108676" d="M348.873,420.157a7.7,7.7,0,0,0-2.122,3.429,8.914,8.914,0,0,0,4.674,10.166,8.3,8.3,0,0,0,10.448-3.545,13.3,13.3,0,0,0,.992-2.9,8.116,8.116,0,0,0,.325-2.689c-.2-2.133-1.9-3.822-3.7-4.978-2.344-1.5-5.5-2.387-7.882-1.069-.387.214-.785.407-1.186.594A5.835,5.835,0,0,0,348.873,420.157Z" transform="translate(-346.317 -414.669)" fill="#89e8e5"/>
      <ellipse id="Ellipse_4" data-name="Ellipse 4" cx="2.461" cy="2.461" rx="2.461" ry="2.461" transform="translate(3.079 6.858)" fill="#fff"/>
      <ellipse id="Ellipse_5" data-name="Ellipse 5" cx="1.083" cy="1.083" rx="1.083" ry="1.083" transform="translate(3.587 8.237)" fill="#0a090b"/>
      <ellipse id="Ellipse_6" data-name="Ellipse 6" cx="2.461" cy="2.461" rx="2.461" ry="2.461" transform="translate(9.044 6.858)" fill="#fff"/>
      <ellipse id="Ellipse_7" data-name="Ellipse 7" cx="1.083" cy="1.083" rx="1.083" ry="1.083" transform="translate(9.551 8.237)" fill="#0a090b"/>
      <path id="Path_108677" data-name="Path 108677" d="M509.85,601.186a1.478,1.478,0,0,0,1.971-.206" transform="translate(-502.313 -589.446)" fill="none" stroke="#09090b" stroke-linecap="round" stroke-linejoin="round" stroke-width="5"/>
      <path id="Path_108678" data-name="Path 108678" d="M405.909,766.34q-.33,2.151-.792,4.278t-1.052,4.221q-.08.285-.163.57c-.027.093-.056.186-.083.279-.015.052.028-.043,0,0l-.017.028q.034-.042.007-.015c.009-.009.077-.038.033-.028.07-.017-.006,0-.023-.008l.03,0-.04-.007-.09-.014-.155-.026-.31-.052-.62-.1a.253.253,0,0,0-.3.172.249.249,0,0,0,.172.3l1.118.188a.979.979,0,0,0,.343.021.416.416,0,0,0,.271-.2,1.065,1.065,0,0,0,.1-.255l.08-.274q.308-1.066.583-2.142t.518-2.17q.241-1.085.448-2.174t.383-2.2l.042-.271a.272.272,0,0,0-.025-.19.247.247,0,0,0-.45.059Z" transform="translate(-399.647 -747.163)" fill="#09090b"/>
      <path id="Path_108679" data-name="Path 108679" d="M528.487,776.914q.045,1.783.156,3.563t.282,3.566q.1,1,.215,1.994l.181-.237-1.435.2a.246.246,0,0,0-.059.45.289.289,0,0,0,.19.024l1.434-.2a.244.244,0,0,0,.181-.237q-.207-1.771-.352-3.549t-.226-3.571q-.045-1-.072-2.006a.246.246,0,0,0-.492,0Z" transform="translate(-519.361 -757.19)" fill="#09090b"/>
      <path id="Path_108680" data-name="Path 108680" d="M638.13,670.106a8.129,8.129,0,0,0,.944,2.807,8.423,8.423,0,0,0,1.857,2.3,8.108,8.108,0,0,0,1.383.966.246.246,0,1,0,.249-.425c-.214-.118-.423-.245-.624-.383-.1-.067-.2-.136-.291-.208-.023-.017-.045-.033-.068-.052.053.045-.018-.014-.031-.024l-.146-.118a8.092,8.092,0,0,1-1.023-1.013l-.114-.136-.053-.066-.021-.027-.021-.027.007.009q-.109-.142-.212-.289-.205-.293-.385-.6a7.127,7.127,0,0,1-.331-.645c-.025-.054-.05-.109-.074-.163l-.034-.078c0-.012-.02-.042.005.012-.01-.02-.017-.042-.026-.063-.045-.11-.09-.221-.128-.334a7.786,7.786,0,0,1-.386-1.569.246.246,0,0,0-.45-.057.292.292,0,0,0-.025.19Z" transform="translate(-624.791 -655.15)" fill="#09090b"/>
      <path id="Path_108681" data-name="Path 108681" d="M452.194,352.213a28.973,28.973,0,0,1-2.325-2.7,5.265,5.265,0,0,1-.9-1.346,5.925,5.925,0,0,1-.333-1.6.8.8,0,0,1,.01-.336.555.555,0,0,1,.448-.337,1.163,1.163,0,0,1,.949.333,3.44,3.44,0,0,1,.606.841l1.088,1.888a2.762,2.762,0,0,1,2.223-3.119.489.489,0,0,1,.3.011.471.471,0,0,1,.219.337,2.637,2.637,0,0,1-.065,1.3C453.959,349.175,452.628,350.522,452.194,352.213Z" transform="translate(-443.856 -345.822)" fill="#f95d5d"/>
    </g>
    <g id="Laag_1-3" data-name="Laag 1" transform="translate(35.638 13.161)">
      <path id="Path_108689" data-name="Path 108689" d="M415.052,350.006a7.2,7.2,0,0,1-3.491-2.688,2.248,2.248,0,0,1-.444-1.033.973.973,0,0,1,.46-.965,1.509,1.509,0,0,1,1.391.295l1.127.682a.545.545,0,0,0,.361.113c.22-.039.3-.308.331-.529.259-1.8.342-3.348,1.836-4.391a1.428,1.428,0,0,1,1.044-.3,1.531,1.531,0,0,1,1.017,1.053,9.127,9.127,0,0,1,.569,2.952.479.479,0,0,0,.086.283.356.356,0,0,0,.475-.028,2.863,2.863,0,0,0,.319-.417,1.5,1.5,0,0,1,2.028.055,1.842,1.842,0,0,1,.043,1.951,3.737,3.737,0,0,1-1.385,1.53,7.771,7.771,0,0,1-4.147,1.355" transform="translate(-405.974 -341.17)" fill="#6fc649"/>
      <path id="Path_108690" data-name="Path 108690" d="M354.406,739.518a19.443,19.443,0,0,0,.168,3.034,19.694,19.694,0,0,0,.642,3.014q.245.82.561,1.618a.241.241,0,0,0,.289.164.237.237,0,0,0,.164-.289,19.35,19.35,0,0,1-.892-2.884q-.167-.742-.276-1.5l-.013-.09a.324.324,0,0,0-.006-.04l0-.029c.005.037,0-.029,0-.029l-.005-.04c0-.034-.009-.067-.013-.1q-.024-.19-.043-.38-.039-.375-.063-.753-.055-.849-.035-1.7a.235.235,0,0,0-.47,0Z" transform="translate(-351.71 -722.119)" fill="#09090b"/>
      <path id="Path_108691" data-name="Path 108691" d="M303.816,471.908a7.344,7.344,0,0,0,2.081-.671,6.139,6.139,0,0,1,4.379-.175,4.74,4.74,0,0,1,2.971,3.125,8.369,8.369,0,0,1-.115,3.6L312.11,483.5a11.231,11.231,0,0,1-1.2,3.9,7.036,7.036,0,0,1-4.369,3.011,13.533,13.533,0,0,1-5.407.056,10.846,10.846,0,0,1-5.937-2.549,13.986,13.986,0,0,1-3.116-9.68,7.873,7.873,0,0,1,3.809-5.487,10.092,10.092,0,0,1,4.486-1.353,7.534,7.534,0,0,1,2.992.431A1.212,1.212,0,0,0,303.816,471.908Z" transform="translate(-292.008 -465.149)" fill="#f786b9"/>
      <ellipse id="Ellipse_12" data-name="Ellipse 12" cx="2.348" cy="2.348" rx="2.348" ry="2.348" transform="translate(5.503 10.76)" fill="#fff"/>
      <ellipse id="Ellipse_13" data-name="Ellipse 13" cx="1.033" cy="1.033" rx="1.033" ry="1.033" transform="translate(5.987 12.076)" fill="#0a090b"/>
      <ellipse id="Ellipse_14" data-name="Ellipse 14" cx="2.348" cy="2.348" rx="2.348" ry="2.348" transform="translate(11.196 10.76)" fill="#fff"/>
      <ellipse id="Ellipse_15" data-name="Ellipse 15" cx="1.033" cy="1.033" rx="1.033" ry="1.033" transform="translate(11.679 12.076)" fill="#0a090b"/>
      <path id="Path_108692" data-name="Path 108692" d="M469,723.34h4.34a.926.926,0,0,1,.863,1.273,3.335,3.335,0,0,1-.235.455,2.033,2.033,0,0,0-2.254.023,2.27,2.27,0,0,0-1.144,1.481,3.294,3.294,0,0,1-2.43-1.959A.925.925,0,0,1,469,723.34Z" transform="translate(-460.469 -706.854)" fill="#0a090b"/>
      <path id="Path_108693" data-name="Path 108693" d="M528.144,756.157a2.032,2.032,0,0,1,2.254-.023,3.29,3.29,0,0,1-3.4,1.5A2.269,2.269,0,0,1,528.144,756.157Z" transform="translate(-516.863 -737.919)" fill="#cc534d"/>
      <path id="Path_108694" data-name="Path 108694" d="M.173,0H.9a.173.173,0,0,1,.173.173V.93H0V.173A.173.173,0,0,1,.173,0Z" transform="translate(10.698 17.416) rotate(180)" fill="#fff"/>
      <path id="Path_108695" data-name="Path 108695" d="M.173,0H.9a.173.173,0,0,1,.173.173V.93H0V.173A.173.173,0,0,1,.173,0Z" transform="translate(11.854 17.416) rotate(180)" fill="#fff"/>
      <path id="Path_108696" data-name="Path 108696" d="M617.018,912.947l.031,1.443c.005.223.019.449.011.672,0,.023,0,.046,0,.069s0,.023,0,.034c0,.043,0,0,0-.011a.471.471,0,0,0-.012.067.739.739,0,0,1-.022.081.19.19,0,0,0-.011.032c0-.016.018-.038,0-.01s-.021.04-.033.059l-.019.028c-.009-.007.037-.043.012-.018l-.018.019-.015.013c-.014.012-.006.006.022-.016a.511.511,0,0,0-.05.031l-.023.012c-.024.014.052-.017.013-.007l-.063.017c-.02.005-.018-.009.024,0a.16.16,0,0,0-.031,0H616.8c-.04,0,.046.011.019,0l-.023-.006c-.037-.008.005,0,.016.009-.005,0-.015-.007-.021-.011-.031-.018-.008-.02.009.009a.125.125,0,0,0-.018-.016c-.031-.027.031.043.006.008a.235.235,0,1,0-.408.235.547.547,0,0,0,.632.21.715.715,0,0,0,.469-.508,2.578,2.578,0,0,0,.043-.739l-.017-.8-.02-.909a.235.235,0,0,0-.469,0Z" transform="translate(-602.357 -888.055)" fill="#09090b"/>
      <path id="Path_108697" data-name="Path 108697" d="M536.867,924.071q.017.681,0,1.361,0,.17-.01.34c0,.043,0,.086-.007.129,0,.023,0,.046-.006.069a.077.077,0,0,1,0,.026c-.006.06.009-.052,0,.007a1.254,1.254,0,0,1-.026.126c-.006.022-.013.043-.02.065,0,0-.01.021-.009.024.012-.027.014-.033.007-.017l-.011.023c-.009.018-.019.034-.029.051l-.019.028c-.017.028.03-.031.009-.011s-.021.023-.033.035a.127.127,0,0,0-.021.018c.028-.021.035-.026.02-.016l-.017.012c-.016.01-.032.018-.048.027-.033.019.013-.007.019-.007a.237.237,0,0,0-.039.014.258.258,0,0,0-.053.013c.029-.017.049,0,.023,0h-.059c-.043,0,.007,0,.017,0s-.076-.027-.033-.006-.021-.017-.028-.018.043.039.017.012c-.009-.01-.018-.019-.027-.029a.237.237,0,0,0-.332,0,.241.241,0,0,0,0,.332.572.572,0,0,0,.6.148.765.765,0,0,0,.484-.482,2.025,2.025,0,0,0,.091-.667q.013-.377.015-.755,0-.426-.008-.851a.235.235,0,0,0-.47,0Z" transform="translate(-525.554 -898.7)" fill="#09090b"/>
      <path id="Path_108698" data-name="Path 108698" d="M727.078,739.714a12.32,12.32,0,0,1,.616,2.487c0,.01.006.046,0,0a.3.3,0,0,0,.005.039c0,.026.007.052.01.079.007.052.013.1.018.157.012.108.023.216.032.324q.026.32.037.641a12.232,12.232,0,0,1-.028,1.282c-.009.118-.019.236-.032.354-.006.059-.013.118-.02.176,0,.029-.007.059-.011.086l-.005.039c0,.025,0,.04,0,.006-.029.241-.073.482-.12.72a.24.24,0,0,0,.164.289.238.238,0,0,0,.289-.164,12.41,12.41,0,0,0-.086-5.24,12.078,12.078,0,0,0-.416-1.4.24.24,0,0,0-.289-.164.238.238,0,0,0-.164.289Z" transform="translate(-708.3 -722.233)" fill="#09090b"/>
    </g>
    <g id="characters_orange" transform="translate(0 13.977)">
      <g id="Laag_2" data-name="Laag 2" transform="translate(2.72 0)">
        <path id="Path_108729" data-name="Path 108729" d="M448.311,282.3s-.272.826.3.238,2.7.357,2.7.357-.145.682.427.077,2.009,1.468,2.009,1.468l-1.159.782-6.1-1.091.257-1.636Z" transform="translate(-443.581 -279.552)" fill="#89e8e5"/>
        <path id="Path_108730" data-name="Path 108730" d="M1.241,0h0A1.241,1.241,0,0,1,2.482,1.241V6.1a.57.57,0,0,1-.57.57H.57A.57.57,0,0,1,0,6.1V1.241A1.241,1.241,0,0,1,1.241,0Z" transform="matrix(0.85, 0.526, -0.526, 0.85, 3.512, 0)" fill="#89e8e5"/>
        <path id="Path_108731" data-name="Path 108731" d="M1.244,0h0A1.243,1.243,0,0,1,2.486,1.243V6.114a.571.571,0,0,1-.571.571H.571A.571.571,0,0,1,0,6.114V1.243A1.243,1.243,0,0,1,1.243,0Z" transform="matrix(0.849, 0.529, -0.529, 0.849, 6.838, 0.069)" fill="#89e8e5"/>
        <path id="Path_108732" data-name="Path 108732" d="M1.241,0h0A1.241,1.241,0,0,1,2.481,1.241V6.1a.57.57,0,0,1-.57.57H.57A.57.57,0,0,1,0,6.1V1.241A1.241,1.241,0,0,1,1.241,0Z" transform="matrix(0.85, 0.526, -0.526, 0.85, 9.757, 0.827)" fill="#89e8e5"/>
      </g>
      <g id="Laag_1-4" data-name="Laag 1" transform="translate(0.642 3.639)">
        <path id="Path_108733" data-name="Path 108733" d="M319.926,306.508a10.9,10.9,0,0,0-2.822,6.271c-.479,3.306-.311,6.889,1.52,9.683a9.154,9.154,0,0,0,14.288,1.3c1.658-1.742,2.509-4.677.951-6.507-.874-1.028-2.343-1.511-2.968-2.707-.711-1.36-.035-3.021-.215-4.545a5.2,5.2,0,0,0-3.385-3.971,11,11,0,0,0-5.408-.411A4.894,4.894,0,0,0,319.926,306.508Z" transform="translate(-316.875 -305.468)" fill="#fe8200"/>
      </g>
      <g id="Laag_3" data-name="Laag 3" transform="translate(0 5.536)">
        <ellipse id="Ellipse_24" data-name="Ellipse 24" cx="4.241" cy="4.712" rx="4.241" ry="4.712" transform="translate(9.367)" fill="#fff"/>
        <ellipse id="Ellipse_25" data-name="Ellipse 25" cx="1.906" cy="2.513" rx="1.906" ry="2.513" transform="translate(11.856 2.199)" fill="#09090b"/>
        <ellipse id="Ellipse_26" data-name="Ellipse 26" cx="4.241" cy="4.712" rx="4.241" ry="4.712" fill="#fff"/>
        <ellipse id="Ellipse_27" data-name="Ellipse 27" cx="1.906" cy="2.513" rx="1.906" ry="2.513" transform="translate(2.683 2.199)" fill="#09090b"/>
        <path id="Path_108734" data-name="Path 108734" d="M516.088,600.15a1.089,1.089,0,1,1-2.178,0" transform="translate(-505.688 -590.71)" fill="none" stroke="#09090b" stroke-linecap="round" stroke-linejoin="round" stroke-width="5"/>
        <path id="Path_108735" data-name="Path 108735" d="M348.233,618.153a3,3,0,0,0-.666,1.77,5.037,5.037,0,0,0,.338,2c.138.388.3.766.47,1.141a.21.21,0,0,0,.287.075.216.216,0,0,0,.075-.287c-.035-.079-.07-.158-.1-.237-.015-.035-.031-.071-.046-.106l-.028-.066c0-.011-.031-.073-.014-.032-.065-.157-.129-.314-.188-.474a6.787,6.787,0,0,1-.29-.972q-.026-.126-.046-.254l-.009-.062c0-.025,0,.009,0,.012s0-.023,0-.035c0-.039-.008-.077-.012-.115a3.791,3.791,0,0,1-.015-.438c0-.075.006-.149.012-.223,0-.033.006-.067.01-.1a.282.282,0,0,1,0-.031c0-.01,0-.032,0,0s0,0,0-.01l0-.03a3.078,3.078,0,0,1,.1-.432q.036-.115.081-.229a.112.112,0,0,0,.009-.021c0,.022-.012.028,0,0s.017-.039.025-.055c.017-.036.035-.073.054-.108q.057-.107.124-.208c.023-.033.046-.067.07-.1a.111.111,0,0,0,.014-.018l-.01.012.01-.012.043-.053a.209.209,0,0,0-.3-.3Z" transform="translate(-345.737 -607.961)" fill="#09090b"/>
        <path id="Path_108736" data-name="Path 108736" d="M466.635,810.618q-.029,1.612,0,3.224.015.8.043,1.592c.01.262.015.524.035.785a2.525,2.525,0,0,0,.143.754.668.668,0,0,0,.269.346,1.017,1.017,0,0,0,.45.095l.89.055a.211.211,0,0,0,.21-.21.215.215,0,0,0-.21-.209l-.777-.048-.186-.011c-.024,0-.047,0-.07-.006s.052.01,0,0l-.046-.01a.1.1,0,0,1-.045-.013s.044.024.008,0c-.007,0-.037-.016-.039-.023s.039.036.009.006l-.025-.025c-.022-.025,0-.017,0,0a.183.183,0,0,0-.015-.024.479.479,0,0,1-.028-.05.266.266,0,0,0-.012-.026c.025.038.008.019,0,0s-.014-.041-.021-.062c-.019-.063-.035-.127-.048-.192-.006-.029-.012-.059-.017-.088l-.006-.035c0-.007-.011-.067,0-.016-.01-.059-.014-.12-.019-.179-.021-.254-.026-.509-.036-.764q-.057-1.558-.059-3.116,0-.878.014-1.756a.209.209,0,0,0-.419,0Z" transform="translate(-460.217 -792.882)" fill="#09090b"/>
        <path id="Path_108737" data-name="Path 108737" d="M543.112,843.915l.057,2.366.028,1.178c.008.337,0,.736.311.948a.817.817,0,0,0,.516.092,1.917,1.917,0,0,1,.226-.007h.026c.043,0-.035-.008-.012,0s.036.007.054.012l.023.008c-.007,0-.042-.022-.017-.007s.07.047.021.008a.228.228,0,0,0,.148.061.209.209,0,0,0,.148-.357.7.7,0,0,0-.477-.146c-.067,0-.135.008-.2.012-.031,0-.062,0-.093,0a.3.3,0,0,1-.052,0c-.048,0,.039.01-.008,0l-.043-.011-.024-.008s.046.024.016.006l-.039-.023c-.013-.007.015.012.016.013a.2.2,0,0,0-.024-.022c-.006-.006-.011-.013-.018-.019s.013.014.013.018a.278.278,0,0,0-.027-.043c0-.007-.025-.052-.012-.022s0,0,0-.005l-.01-.032a.837.837,0,0,1-.021-.092.229.229,0,0,0,0-.027s.005.045,0,.021,0-.041-.006-.062c-.006-.079-.007-.159-.008-.238l-.057-2.318-.033-1.3a.209.209,0,1,0-.419,0Z" transform="translate(-533.764 -824.896)" fill="#09090b"/>
      </g>
    </g>
    <g id="Laag_1-5" data-name="Laag 1" transform="translate(16.976 15.033)">
      <path id="Path_108699" data-name="Path 108699" d="M260.87,256.454a7.708,7.708,0,0,0-4.143-3.165,15.157,15.157,0,0,0-3.39-.5l-3.622.052a3.972,3.972,0,0,0-1.245.226,6.278,6.278,0,0,1-.855.233,4.882,4.882,0,0,0-3.386,3.418C247.41,257.007,254.825,257.491,260.87,256.454Z" transform="translate(-241.353 -247.998)" fill="#f95d5d"/>
      <path id="Path_108700" data-name="Path 108700" d="M232.181,422.914c-.217,2.095.312,4.206.5,6.313a12.693,12.693,0,0,0,.389,2.771c.86,2.672,3.9,4.069,6.7,4.2a10.074,10.074,0,0,0,8.018-3.123,10.94,10.94,0,0,0,2.373-5.4,10.344,10.344,0,0,0-.049-4.219,7.122,7.122,0,0,0-.289-.9C243.465,423.791,235.278,423.207,232.181,422.914Z" transform="translate(-229.61 -412.745)" fill="#f95d5d"/>
      <path id="Path_108701" data-name="Path 108701" d="M241.968,406.861c-.718,0-1.4-.01-2.047-.027-2.487-.064-4.641-.227-5.986-.351-.007.042-.014.085-.021.127-.017.118-.032.238-.044.358,3.1.293,11.283.877,17.643-.364q-.1-.246-.211-.485A51.9,51.9,0,0,1,241.968,406.861Z" transform="translate(-231.299 -396.8)" fill="#89e8e5"/>
      <path id="Path_108702" data-name="Path 108702" d="M255.323,377.406q-.155-.29-.334-.566c-6.045,1.037-13.46.553-16.639.266a6.334,6.334,0,0,0-.18.644C241.393,378.041,249.2,378.553,255.323,377.406Z" transform="translate(-235.472 -368.385)" fill="#89e8e5"/>
      <path id="Path_108703" data-name="Path 108703" d="M236.122,396.373q-.035.159-.062.319c1.345.123,3.5.287,5.986.351.642.017,1.329.027,2.047.027a51.893,51.893,0,0,0,9.334-.741c-.048-.1-.1-.2-.151-.3C247.148,397.177,239.345,396.665,236.122,396.373Z" transform="translate(-233.424 -387.008)" fill="#fff"/>
      <ellipse id="Ellipse_16" data-name="Ellipse 16" cx="1.607" cy="1.607" rx="1.607" ry="1.607" transform="translate(7.641 11.436)" fill="#fff"/>
      <ellipse id="Ellipse_17" data-name="Ellipse 17" cx="0.707" cy="0.707" rx="0.707" ry="0.707" transform="translate(7.973 12.336)" fill="#0a090b"/>
      <ellipse id="Ellipse_18" data-name="Ellipse 18" cx="1.607" cy="1.607" rx="1.607" ry="1.607" transform="translate(11.538 11.436)" fill="#fff"/>
      <ellipse id="Ellipse_19" data-name="Ellipse 19" cx="0.707" cy="0.707" rx="0.707" ry="0.707" transform="translate(11.869 12.336)" fill="#0a090b"/>
      <path id="Path_108704" data-name="Path 108704" d="M509.21,591.384a2.329,2.329,0,0,0,1.27-.164s.164,1.831-.517,1.9S509.21,591.384,509.21,591.384Z" transform="translate(-498.509 -576.435)" fill="#0a090b"/>
      <path id="Path_108705" data-name="Path 108705" d="M151.8,106.283S148.177,90.1,163.367,90.5c14.986.395,10.382,16.44,10.382,16.44" transform="translate(-151.288 -90.493)" fill="none" stroke="#0a090b" stroke-miterlimit="10" stroke-width="1.78"/>
      <rect id="Rectangle_164" data-name="Rectangle 164" width="0.886" height="2.694" rx="0.443" transform="translate(22.362 14.59) rotate(11.76)" fill="#6fc649"/>
      <rect id="Rectangle_165" data-name="Rectangle 165" width="0.886" height="2.694" rx="0.443" transform="translate(1.279 17.713) rotate(171.41)" fill="#6fc649"/>
      <path id="Path_108706" data-name="Path 108706" d="M830.465,616.806a3.782,3.782,0,0,0,.044.92,1.707,1.707,0,0,0,.4.749,1.168,1.168,0,0,0,.788.4.9.9,0,0,0,.65-.311,1.064,1.064,0,0,0,.318-.759.161.161,0,1,0-.321,0,.646.646,0,0,1,0,.07c0,.011,0,.021,0,.032s0,.028,0,0,0,0,0,.006a.808.808,0,0,1-.042.146.112.112,0,0,0-.007.018s.014-.032.007-.016-.011.024-.017.036-.024.048-.038.071-.027.043-.041.064l-.024.033c-.017.024,0-.008.007-.008s-.014.017-.016.02a1.085,1.085,0,0,1-.112.118l-.027.023-.015.013c-.012.01-.014,0,.009-.007a.507.507,0,0,0-.064.045.757.757,0,0,1-.066.038l-.03.014c-.018.009.032-.012.013-.005l-.021.008a.638.638,0,0,1-.065.02l-.035.007-.013,0c.045-.011.022,0,.008,0a.452.452,0,0,1-.066,0l-.023,0c-.02,0,.011,0,.011,0a.18.18,0,0,1-.056-.01.827.827,0,0,1-.092-.026.376.376,0,0,1-.048-.018c.03.015.01,0,0,0l-.029-.014a1.143,1.143,0,0,1-.164-.1l-.014-.009c.02.006.018.014.005,0l-.035-.03c-.023-.02-.045-.041-.067-.063s-.042-.044-.062-.067l-.026-.03c-.008-.009-.01-.012-.014-.018s.018.025,0,0a1.783,1.783,0,0,1-.1-.154,1.682,1.682,0,0,1-.083-.165c-.012-.027.011.03,0-.01l-.014-.037c-.012-.032-.023-.065-.033-.1s-.02-.075-.027-.113c0-.019-.007-.038-.01-.057a.165.165,0,0,1,0-.026c0,.013,0,.023,0,0-.009-.079-.014-.158-.016-.236,0-.158,0-.316.006-.473a.161.161,0,0,0-.322,0Z" transform="translate(-810.271 -601.117)" fill="#09090b"/>
      <path id="Path_108707" data-name="Path 108707" d="M175.447,618.843a4.015,4.015,0,0,1-.017.454c0,.018,0,.036-.006.055a.173.173,0,0,1,0,.027c0-.006,0-.033,0,0s-.012.077-.019.115a2.229,2.229,0,0,1-.054.219c-.036.118-.077.236-.118.354-.009.026-.019.051-.03.076l-.008.02c0,.006-.013.027,0,.006s0,0,0,.006l-.011.025a1.23,1.23,0,0,1-.084.154c-.007.012-.015.023-.023.034l-.012.017c-.012.017.02-.024.006-.008s-.038.044-.059.065l-.03.03-.016.013c-.019.016.008,0,.008-.006s-.074.048-.082.052a.454.454,0,0,1-.086.043c.031-.009.011,0,0,0l-.024.009-.061.02a.289.289,0,0,1-.1.021s.03,0,.011,0a.092.092,0,0,0-.023,0,.31.31,0,0,0-.037,0c-.023,0-.045,0-.069,0l-.035,0c-.027,0,.014,0,.016,0l-.022,0a1.1,1.1,0,0,1-.15-.037c-.025-.008-.049-.016-.073-.026l-.018-.007c-.013-.005-.013-.013.012,0a.279.279,0,0,0-.04-.018,1.229,1.229,0,0,1-.141-.078c-.024-.015-.047-.037-.071-.05.03.014.02.016.01.008l-.022-.018-.03-.025c-.021-.02-.042-.04-.061-.062l-.026-.03c-.017-.02.008.01.009.011a.17.17,0,0,0-.015-.021.626.626,0,0,1-.04-.066c0-.006-.021-.046-.009-.018s0-.012-.007-.019c-.007-.023-.011-.047-.017-.071.013.052,0,.012,0-.005a.261.261,0,0,1,0-.04.162.162,0,0,0-.161-.161.165.165,0,0,0-.161.161.745.745,0,0,0,.319.6,1.376,1.376,0,0,0,.7.291.881.881,0,0,0,.4-.053.982.982,0,0,0,.384-.245,1.977,1.977,0,0,0,.357-.734,2.818,2.818,0,0,0,.125-.531,3.786,3.786,0,0,0,.029-.549.161.161,0,0,0-.322,0Z" transform="translate(-172.659 -603.097)" fill="#09090b"/>
      <path id="Path_108708" data-name="Path 108708" d="M516.376,874.376l.034,1.365c.011.448.027.9.033,1.344v.078a.246.246,0,0,1,0,.039c0,.008,0,.065,0,.021a.35.35,0,0,1-.016.075.133.133,0,0,1-.012.036c.022-.031,0,.007-.009.015l-.011.019c-.01.014-.009.012,0-.005l-.015.017-.024.023c-.013.011-.011.01.007,0l-.018.012-.019.011.008,0-.02.006-.01,0c-.018,0-.014,0,.011,0,0,0-.072-.008-.011,0a.165.165,0,0,0-.2.112.163.163,0,0,0,.112.2.425.425,0,0,0,.366-.107.531.531,0,0,0,.161-.3,1.661,1.661,0,0,0,.017-.36l-.009-.352-.037-1.442-.02-.807a.161.161,0,1,0-.321,0Z" transform="translate(-505.199 -851.073)" fill="#09090b"/>
      <path id="Path_108709" data-name="Path 108709" d="M575.613,870.158a12.109,12.109,0,0,0,.2,2.545q.066.351.152.7a.16.16,0,0,0,.113.112l.314.076a.161.161,0,0,0,.086-.31l-.314-.076.112.112a11.912,11.912,0,0,1-.239-1.234.261.261,0,0,0,0-.035c0-.028,0,.039,0-.007,0-.024-.006-.047-.009-.071q-.011-.085-.02-.17-.018-.156-.03-.313-.026-.31-.036-.62-.011-.354,0-.709a.161.161,0,0,0-.322,0Z" transform="translate(-562.947 -846.986)" fill="#09090b"/>
    </g>
  </g>
</svg>
