<svg xmlns="http://www.w3.org/2000/svg" width="74.077" height="46.755" viewBox="0 0 74.077 46.755">
  <g id="Group_99" data-name="Group 99" transform="translate(0 0)">
    <g id="Laag_1" data-name="Laag 1" transform="translate(1.731 0)">
      <path id="Path_108682" data-name="Path 108682" d="M283.128,98.678a3.812,3.812,0,0,1-2.579-.973,1.614,1.614,0,0,1-.631-1.267c.075-.8,1.118-1.206,1.879-.938a4.04,4.04,0,0,1,1.756,1.612,7.479,7.479,0,0,1-.943-2.82,2.55,2.55,0,0,1,1.3-2.5,1.215,1.215,0,0,1,.911-.068,1.651,1.651,0,0,1,.713.668,11.055,11.055,0,0,1,1.84,4.815,4.616,4.616,0,0,1,1.146-5.118,1.383,1.383,0,0,1,1.276-.435,1.361,1.361,0,0,1,.581.448,4.547,4.547,0,0,1,.759,4.477,1.616,1.616,0,0,1,.5-1.8,4.489,4.489,0,0,1,1.8-.849,1.388,1.388,0,0,1,.756-.074,1.07,1.07,0,0,1,.666.905,2.923,2.923,0,0,1-2.35,2.975" transform="translate(-268.808 -91.615)" fill="#f786b9"/>
      <path id="Path_108683" data-name="Path 108683" d="M283.023,184.068c-2.574-.024-5.285.2-7.425,1.629s-3.436,4.408-2.219,6.677c.638,1.188,1.876,2.082,2.1,3.411.265,1.552-.944,2.913-1.577,4.354a7.3,7.3,0,0,0,.5,6.427,10.477,10.477,0,0,0,5,4.263,12.444,12.444,0,0,0,13.742-2.591c3.384-3.639,3.76-9.855.489-13.6-.814-.931-1.806-1.694-2.6-2.645-1.413-1.68-2.136-3.839-3.443-5.6s-3.64-3.146-5.65-2.261" transform="translate(-262.093 -180.048)" fill="#6fc649"/>
      <path id="Path_108684" data-name="Path 108684" d="M421.49,395.37a1.17,1.17,0,1,1-2.3.409" transform="translate(-402.326 -382.818)" fill="none" stroke="#09090b" stroke-linecap="round" stroke-linejoin="round" stroke-width="5"/>
      <path id="Path_108685" data-name="Path 108685" d="M501.816,860.655a21.745,21.745,0,0,0,.044,2.273,8.567,8.567,0,0,1,.036,1.1c0,.046-.006.093-.01.139a.448.448,0,0,1-.006.059c0,.013,0,.026,0,.039,0-.021,0-.023,0,0-.012.079-.026.158-.045.236s-.036.138-.059.2c-.012.035-.024.07-.038.1l-.009.024c.012-.031,0,0,0,.009s-.009.019-.013.029a1.816,1.816,0,0,1-.116.214q-.033.053-.069.1l-.014.019c-.018.024.026-.032.007-.009s-.026.032-.041.048a1.484,1.484,0,0,1-.169.168l-.018.015c-.026.021-.017.006,0,0a.332.332,0,0,0-.05.036c-.034.023-.069.044-.106.065a.225.225,0,1,0,.227.389,2.132,2.132,0,0,0,.964-1.653,5.9,5.9,0,0,0,0-1.133c-.027-.386-.052-.772-.062-1.16q-.018-.656,0-1.313a.227.227,0,0,0-.225-.225.231.231,0,0,0-.225.225Z" transform="translate(-480.777 -828.66)" fill="#09090b"/>
      <path id="Path_108686" data-name="Path 108686" d="M615.933,850.036a23.345,23.345,0,0,0,.344,2.875q.065.351.14.7a1.347,1.347,0,0,0,.148.487,2.179,2.179,0,0,0,.656.571,3.04,3.04,0,0,0,.413.224,1.09,1.09,0,0,0,.413.116.225.225,0,1,0,0-.45h-.024c-.045,0,.061.012.024,0l-.063-.014c-.022-.006-.048-.014-.071-.022l-.041-.015c-.01,0-.061-.025-.02-.008l-.017-.007-.045-.021-.087-.041q-.094-.049-.185-.1c-.061-.036-.121-.075-.179-.115l-.083-.057-.041-.029c-.005,0-.038-.029-.006,0l-.006,0a1.919,1.919,0,0,1-.261-.248c.045.052.009.013-.008-.014-.006-.01-.012-.019-.017-.029s-.022-.049,0,0,0,.009,0,0-.01-.041-.015-.065l-.041-.177q-.073-.334-.137-.67t-.117-.674q-.028-.173-.052-.348c0-.027-.008-.053-.011-.08s-.005-.033-.007-.05-.006-.044,0,0c-.007-.057-.015-.113-.022-.169q-.1-.774-.141-1.553a.225.225,0,1,0-.45,0Z" transform="translate(-590.931 -818.484)" fill="#09090b"/>
      <ellipse id="Ellipse_8" data-name="Ellipse 8" cx="2.25" cy="2.25" rx="2.25" ry="2.25" transform="translate(12.585 7.692)" fill="#fff"/>
      <ellipse id="Ellipse_9" data-name="Ellipse 9" cx="0.99" cy="0.99" rx="0.99" ry="0.99" transform="translate(13.845 8.952)" fill="#0a090b"/>
      <ellipse id="Ellipse_10" data-name="Ellipse 10" cx="2.25" cy="2.25" rx="2.25" ry="2.25" transform="translate(18.052 7.221)" fill="#fff"/>
      <ellipse id="Ellipse_11" data-name="Ellipse 11" cx="0.99" cy="0.99" rx="0.99" ry="0.99" transform="translate(19.312 8.481)" fill="#0a090b"/>
      <path id="Path_108687" data-name="Path 108687" d="M26.659,385.8a3.275,3.275,0,0,0-2.063-1.4,4.994,4.994,0,0,0-2.529.143,4.8,4.8,0,0,0-3.234,2.8,4.029,4.029,0,0,0-2.555-1.21,3.442,3.442,0,0,0-2.636.95,6.79,6.79,0,0,0,1.65-6.018,2.023,2.023,0,0,0,.852.311.56.56,0,0,0,.354-.044.435.435,0,0,0,.172-.462,1.193,1.193,0,0,0-.243-.462,3.662,3.662,0,0,0-.992-.977,1.6,1.6,0,0,0-1.345-.187,2.4,2.4,0,0,0-1.105,1.1,11.628,11.628,0,0,0-1.714,4.012,5.242,5.242,0,0,0,.887,4.165,5.206,5.206,0,0,0,2.257,1.557,11.422,11.422,0,0,0,2.705.588,28.879,28.879,0,0,0,9.533-.476" transform="translate(-11.172 -367.276)" fill="#6fc649"/>
      <path id="Path_108688" data-name="Path 108688" d="M698.53,187.522a3.506,3.506,0,0,1,1.305-2.333,5.349,5.349,0,0,1,2.492-1.074,5.143,5.143,0,0,1,4.44,1.131,4.315,4.315,0,0,1,1.869-2.384,3.685,3.685,0,0,1,2.983-.352,7.278,7.278,0,0,1-4.466-4.979,2.168,2.168,0,0,1-.667.707.6.6,0,0,1-.36.128.47.47,0,0,1-.387-.361,1.273,1.273,0,0,1,.012-.56,3.891,3.891,0,0,1,.484-1.413,1.73,1.73,0,0,1,1.2-.826,2.572,2.572,0,0,1,1.589.529,12.454,12.454,0,0,1,3.567,3.025,5.094,5.094,0,0,1-.269,6.993,12.208,12.208,0,0,1-2.312,1.86,30.952,30.952,0,0,1-9.367,4.115" transform="translate(-670.126 -171.742)" fill="#6fc649"/>
    </g>
    <g id="Laag_1-2" data-name="Laag 1" transform="translate(38.716 0.384)">
      <path id="Path_108675" data-name="Path 108675" d="M345.421,712.768q-.064.2-.139.395c-.022.056-.044.113-.068.169,0,0-.031.073-.011.027s0,.007-.007.016c-.015.036-.031.071-.047.106a7.892,7.892,0,0,1-.818,1.409c-.036.05-.073.1-.113.148s.028-.036,0,0l-.029.036-.072.09q-.127.157-.264.308a7.85,7.85,0,0,1-.659.65.309.309,0,0,0,0,.434.314.314,0,0,0,.435,0,8.124,8.124,0,0,0,2.017-2.689,8.647,8.647,0,0,0,.369-.934.309.309,0,0,0-.215-.378.314.314,0,0,0-.378.214Z" transform="translate(-343.105 -691.878)" fill="#09090b"/>
      <path id="Path_108676" data-name="Path 108676" d="M349.466,420.707a9.6,9.6,0,0,0-2.645,4.275,11.114,11.114,0,0,0,5.828,12.676,10.344,10.344,0,0,0,13.026-4.42,16.579,16.579,0,0,0,1.236-3.616,10.117,10.117,0,0,0,.405-3.352c-.252-2.66-2.367-4.765-4.618-6.206-2.923-1.875-6.862-2.976-9.827-1.333-.482.267-.979.507-1.478.74A7.279,7.279,0,0,0,349.466,420.707Z" transform="translate(-346.28 -413.865)" fill="#89e8e5"/>
      <ellipse id="Ellipse_4" data-name="Ellipse 4" cx="3.068" cy="3.068" rx="3.068" ry="3.068" transform="translate(3.839 8.551)" fill="#fff"/>
      <ellipse id="Ellipse_5" data-name="Ellipse 5" cx="1.35" cy="1.35" rx="1.35" ry="1.35" transform="translate(4.472 10.27)" fill="#0a090b"/>
      <ellipse id="Ellipse_6" data-name="Ellipse 6" cx="3.068" cy="3.068" rx="3.068" ry="3.068" transform="translate(11.276 8.551)" fill="#fff"/>
      <ellipse id="Ellipse_7" data-name="Ellipse 7" cx="1.35" cy="1.35" rx="1.35" ry="1.35" transform="translate(11.908 10.27)" fill="#0a090b"/>
      <path id="Path_108677" data-name="Path 108677" d="M509.85,601.237a1.842,1.842,0,0,0,2.457-.257" transform="translate(-500.452 -586.599)" fill="none" stroke="#09090b" stroke-linecap="round" stroke-linejoin="round" stroke-width="5"/>
      <path id="Path_108678" data-name="Path 108678" d="M406.793,766.383q-.412,2.682-.987,5.334t-1.312,5.263q-.1.356-.2.711c-.034.116-.07.232-.1.348-.019.065.035-.054,0,0-.007.012-.014.024-.021.035q.042-.053.008-.019c.011-.011.1-.047.041-.034.088-.021-.007,0-.029-.01l.037.005-.05-.008-.113-.018-.193-.033-.387-.064-.773-.129a.315.315,0,0,0-.378.215.311.311,0,0,0,.215.378l1.394.235a1.223,1.223,0,0,0,.427.026.518.518,0,0,0,.338-.248,1.322,1.322,0,0,0,.119-.318l.1-.342q.384-1.329.727-2.67t.646-2.705q.3-1.353.559-2.71t.477-2.738l.052-.338a.338.338,0,0,0-.031-.237.307.307,0,0,0-.561.073Z" transform="translate(-398.986 -742.473)" fill="#09090b"/>
      <path id="Path_108679" data-name="Path 108679" d="M528.68,776.976q.056,2.223.194,4.442t.352,4.446q.123,1.247.268,2.487l.225-.3-1.789.246a.3.3,0,0,0-.183.141.307.307,0,0,0,.11.42.36.36,0,0,0,.237.031l1.788-.246a.305.305,0,0,0,.226-.3q-.258-2.208-.439-4.425t-.282-4.452q-.056-1.25-.09-2.5a.307.307,0,0,0-.614,0Z" transform="translate(-517.301 -752.384)" fill="#09090b"/>
      <path id="Path_108680" data-name="Path 108680" d="M638.131,670.183a10.136,10.136,0,0,0,1.177,3.5,10.5,10.5,0,0,0,2.316,2.865,10.113,10.113,0,0,0,1.725,1.205.307.307,0,1,0,.31-.53c-.267-.147-.527-.306-.778-.478-.123-.084-.244-.169-.363-.26-.028-.021-.056-.041-.085-.064.066.056-.023-.018-.038-.03-.061-.048-.122-.1-.182-.147a10.085,10.085,0,0,1-1.275-1.263c-.048-.056-.1-.113-.143-.169l-.066-.083-.026-.034-.026-.033.009.012q-.136-.178-.264-.36-.256-.366-.48-.752a8.874,8.874,0,0,1-.412-.8c-.031-.068-.062-.135-.092-.2l-.042-.1c-.006-.015-.025-.052.006.015-.012-.025-.021-.052-.032-.078-.057-.138-.113-.276-.16-.417a9.7,9.7,0,0,1-.481-1.956.306.306,0,0,0-.561-.071.363.363,0,0,0-.031.237Z" transform="translate(-621.499 -651.536)" fill="#09090b"/>
      <path id="Path_108681" data-name="Path 108681" d="M453.075,353.79a36.1,36.1,0,0,1-2.9-3.365,6.564,6.564,0,0,1-1.119-1.678,7.39,7.39,0,0,1-.415-1.993,1,1,0,0,1,.012-.419.692.692,0,0,1,.558-.42,1.45,1.45,0,0,1,1.184.415,4.287,4.287,0,0,1,.756,1.048l1.356,2.354a3.444,3.444,0,0,1,2.772-3.889.61.61,0,0,1,.368.014.587.587,0,0,1,.273.42,3.288,3.288,0,0,1-.081,1.621C455.275,350,453.616,351.683,453.075,353.79Z" transform="translate(-442.679 -345.822)" fill="#f95d5d"/>
    </g>
    <g id="characters_orange" transform="translate(0 16.993)">
      <g id="Laag_2" data-name="Laag 2" transform="translate(2.687 0)">
        <path id="Path_108729" data-name="Path 108729" d="M448.289,282.3s-.269.816.3.235,2.665.352,2.665.352-.144.674.422.076,1.985,1.451,1.985,1.451l-1.145.773-6.023-1.078.253-1.617Z" transform="translate(-443.616 -279.585)" fill="#89e8e5"/>
        <path id="Path_108730" data-name="Path 108730" d="M1.226,0h0A1.226,1.226,0,0,1,2.452,1.226v4.8a.563.563,0,0,1-.563.563H.563A.563.563,0,0,1,0,6.031v-4.8A1.226,1.226,0,0,1,1.226,0Z" transform="matrix(0.85, 0.526, -0.526, 0.85, 3.47, 0)" fill="#89e8e5"/>
        <path id="Path_108731" data-name="Path 108731" d="M1.229,0h0A1.228,1.228,0,0,1,2.457,1.228V6.041a.564.564,0,0,1-.564.564H.564A.564.564,0,0,1,0,6.041V1.228A1.228,1.228,0,0,1,1.228,0Z" transform="matrix(0.849, 0.529, -0.529, 0.849, 6.756, 0.069)" fill="#89e8e5"/>
        <path id="Path_108732" data-name="Path 108732" d="M1.226,0h0A1.226,1.226,0,0,1,2.452,1.226v4.8a.563.563,0,0,1-.563.563H.563A.563.563,0,0,1,0,6.031v-4.8A1.226,1.226,0,0,1,1.226,0Z" transform="matrix(0.85, 0.526, -0.526, 0.85, 9.64, 0.818)" fill="#89e8e5"/>
      </g>
      <g id="Laag_1-3" data-name="Laag 1" transform="translate(0.635 3.596)">
        <path id="Path_108733" data-name="Path 108733" d="M319.89,306.5a10.768,10.768,0,0,0-2.788,6.2c-.474,3.267-.307,6.806,1.5,9.567a9.044,9.044,0,0,0,14.117,1.281c1.638-1.721,2.479-4.621.94-6.43-.864-1.016-2.315-1.493-2.933-2.674-.7-1.344-.034-2.985-.213-4.491a5.135,5.135,0,0,0-3.345-3.924,10.866,10.866,0,0,0-5.343-.406A4.836,4.836,0,0,0,319.89,306.5Z" transform="translate(-316.875 -305.468)" fill="#fe8200"/>
      </g>
      <g id="Laag_3" data-name="Laag 3" transform="translate(0 5.47)">
        <ellipse id="Ellipse_24" data-name="Ellipse 24" cx="4.19" cy="4.656" rx="4.19" ry="4.656" transform="translate(9.254)" fill="#fff"/>
        <ellipse id="Ellipse_25" data-name="Ellipse 25" cx="1.883" cy="2.483" rx="1.883" ry="2.483" transform="translate(11.714 2.173)" fill="#09090b"/>
        <ellipse id="Ellipse_26" data-name="Ellipse 26" cx="4.19" cy="4.656" rx="4.19" ry="4.656" fill="#fff"/>
        <ellipse id="Ellipse_27" data-name="Ellipse 27" cx="1.883" cy="2.483" rx="1.883" ry="2.483" transform="translate(2.651 2.173)" fill="#09090b"/>
        <path id="Path_108734" data-name="Path 108734" d="M516.062,600.15a1.076,1.076,0,0,1-2.152,0" transform="translate(-505.786 -590.823)" fill="none" stroke="#09090b" stroke-linecap="round" stroke-linejoin="round" stroke-width="5"/>
        <path id="Path_108735" data-name="Path 108735" d="M348.225,618.152a2.969,2.969,0,0,0-.658,1.748,4.976,4.976,0,0,0,.334,1.972c.137.383.3.757.464,1.128a.208.208,0,0,0,.283.074.213.213,0,0,0,.074-.283c-.035-.078-.069-.156-.1-.234-.015-.035-.031-.07-.046-.105l-.028-.065c0-.011-.03-.072-.014-.032-.065-.155-.128-.311-.186-.468a6.719,6.719,0,0,1-.286-.96q-.026-.125-.046-.251l-.009-.061c0-.024,0,.009,0,.011s0-.023,0-.035c0-.038-.008-.076-.012-.114a3.757,3.757,0,0,1-.015-.433c0-.074.006-.147.012-.221,0-.033.006-.066.01-.1a.269.269,0,0,1,0-.03c0-.01,0-.032,0,0s0,0,0-.01l0-.03a3.034,3.034,0,0,1,.1-.427q.035-.114.08-.226a.112.112,0,0,0,.009-.021c0,.022-.012.028,0,0s.016-.038.025-.054c.017-.036.035-.072.053-.107a2.387,2.387,0,0,1,.122-.206c.022-.033.045-.066.069-.1a.112.112,0,0,0,.014-.018l-.01.012.01-.012.043-.053a.207.207,0,0,0-.293-.293Z" transform="translate(-345.759 -608.083)" fill="#09090b"/>
        <path id="Path_108736" data-name="Path 108736" d="M466.634,810.615q-.029,1.593,0,3.185.014.786.043,1.573c.01.258.015.518.035.776a2.494,2.494,0,0,0,.141.745.661.661,0,0,0,.266.342,1.006,1.006,0,0,0,.444.094l.88.054a.209.209,0,0,0,.207-.207.212.212,0,0,0-.207-.207l-.767-.047-.184-.011c-.023,0-.046,0-.07-.006s.051.01,0,0l-.045-.01a.1.1,0,0,1-.044-.013s.044.024.008,0c-.007,0-.036-.016-.038-.023s.038.035.009.006l-.024-.025c-.022-.024,0-.017,0,0a.173.173,0,0,0-.015-.024.475.475,0,0,1-.027-.05.28.28,0,0,0-.012-.026c.025.038.008.019,0,0s-.014-.04-.021-.061c-.019-.062-.035-.126-.048-.19-.006-.029-.011-.058-.016-.087l-.006-.035c0-.007-.011-.066,0-.016-.009-.059-.014-.118-.019-.177-.021-.251-.026-.5-.035-.755q-.056-1.539-.059-3.079,0-.867.014-1.735a.207.207,0,0,0-.414,0Z" transform="translate(-460.294 -793.091)" fill="#09090b"/>
        <path id="Path_108737" data-name="Path 108737" d="M543.112,843.913l.056,2.337.028,1.164c.008.333,0,.727.307.936a.807.807,0,0,0,.51.091,1.91,1.91,0,0,1,.223-.007h.026c.042,0-.035-.008-.012,0s.036.007.053.012l.023.008c-.007,0-.042-.021-.016-.006s.069.047.021.008a.225.225,0,0,0,.146.06.207.207,0,0,0,.146-.353.689.689,0,0,0-.471-.144c-.067,0-.133.008-.2.011-.031,0-.062,0-.092,0a.3.3,0,0,1-.052,0c-.048,0,.038.009-.008,0l-.042-.011-.024-.008s.045.023.015.006l-.038-.022c-.013-.007.015.012.016.013a.21.21,0,0,0-.023-.021c-.006-.006-.011-.013-.018-.019s.013.014.013.017a.269.269,0,0,0-.027-.043c0-.007-.024-.051-.012-.021s0,0,0-.005l-.01-.031a.847.847,0,0,1-.021-.091.185.185,0,0,0,0-.027s.005.044,0,.021,0-.041-.006-.061c-.006-.078-.006-.157-.008-.235l-.056-2.29-.032-1.286a.207.207,0,1,0-.414,0Z" transform="translate(-533.876 -825.121)" fill="#09090b"/>
      </g>
    </g>
    <g id="Laag_1-4" data-name="Laag 1" transform="translate(52.68 10.417)">
      <path id="Path_108710" data-name="Path 108710" d="M376.987,421.634a1.927,1.927,0,0,1-.381.858,1.76,1.76,0,0,1-.732.556,1.665,1.665,0,0,1-.836.089,2.164,2.164,0,0,1-.853-.322l-.016-.018h0l.069.117.073.124c.062.1.123.206.182.311a3.612,3.612,0,0,1,.308.654,1.567,1.567,0,0,1,.091.692,1.126,1.126,0,0,1-.118.395,1.332,1.332,0,0,1-.107.17,1.669,1.669,0,0,1-.136.155,1.982,1.982,0,0,1-.718.447,2.827,2.827,0,0,1-.733.173l-.01,0c-.047,0-.093.008-.139.009a2.042,2.042,0,0,1-.836-.12,1.377,1.377,0,0,1-.227-.113.885.885,0,0,1-.107-.08,1.084,1.084,0,0,1-.224-.268,1.276,1.276,0,0,1-.146-.626,5.373,5.373,0,0,1,.069-.768,5.716,5.716,0,0,0,.066-.7,1.894,1.894,0,0,0-.05-.413l-.02-.069a3.88,3.88,0,0,1-.6.776,2.192,2.192,0,0,1-.99.59,1.611,1.611,0,0,1-1.167-.155c-.058-.032-.115-.065-.171-.1a1.821,1.821,0,0,1-.154-.107c-.089-.07-.173-.143-.254-.22a2.93,2.93,0,0,1-.382-.441,2.684,2.684,0,0,1-.492-1.344,3.309,3.309,0,0,1,.214-1.4,4.7,4.7,0,0,1,.736-1.28,5.441,5.441,0,0,1,1.086-1.037,5,5,0,0,1,.58-.357l.016-.016a4.329,4.329,0,0,1,.715-.3,6.027,6.027,0,0,1,2.051-.286,4.708,4.708,0,0,1,1.9.487c.161.083.312.169.448.255s.278.189.42.3a5.573,5.573,0,0,1,.433.386,4.587,4.587,0,0,1,.322.348,3.89,3.89,0,0,1,.821,1.715A2.525,2.525,0,0,1,376.987,421.634Z" transform="translate(-365.797 -412.842)" fill="#fe8200"/>
      <path id="Path_108711" data-name="Path 108711" d="M393.8,466.92Z" transform="translate(-390.939 -459.893)" fill="#d47719"/>
      <path id="Path_108712" data-name="Path 108712" d="M393.78,467Z" transform="translate(-390.92 -459.969)" fill="#d47719"/>
      <path id="Path_108713" data-name="Path 108713" d="M411.58,517.83h-.01l.012,0Z" transform="translate(-407.756 -508.074)" fill="#d47719"/>
      <path id="Path_108714" data-name="Path 108714" d="M396.875,474.565a.2.2,0,0,0-.168-.025,3.292,3.292,0,0,0-1.585,1.216,2.249,2.249,0,0,0-.39.895,1.261,1.261,0,0,0-.012.4,1.2,1.2,0,0,0,.129.395.891.891,0,0,0,.314.341.931.931,0,0,0,.222.1.769.769,0,0,0,.681-.145,1.765,1.765,0,0,0,.516-.788,5.254,5.254,0,0,0,.258-1.03c.039-.235.07-.471.1-.708.017-.124.033-.248.05-.371a.231.231,0,0,0-.02-.153A.225.225,0,0,0,396.875,474.565Z" transform="translate(-391.799 -467.096)" fill="#d47719"/>
      <path id="Path_108715" data-name="Path 108715" d="M475.5,466.654a.2.2,0,0,1,.142-.094,3.288,3.288,0,0,1,1.951.429,2.256,2.256,0,0,1,.733.643,1.26,1.26,0,0,1,.181.359,1.205,1.205,0,0,1,.054.412.893.893,0,0,1-.14.442.913.913,0,0,1-.158.188.769.769,0,0,1-.681.158,1.78,1.78,0,0,1-.8-.494,5.266,5.266,0,0,1-.671-.823c-.136-.2-.264-.4-.392-.6q-.1-.161-.2-.315a.23.23,0,0,1-.046-.147.224.224,0,0,1,.031-.161Z" transform="translate(-468.228 -459.535)" fill="#d47719"/>
      <path id="Path_108716" data-name="Path 108716" d="M349.813,544.124a6.78,6.78,0,0,0-8.878,3.626,10.161,10.161,0,0,0-.5,3.713,12.068,12.068,0,0,0,1.6,6.3,8.129,8.129,0,0,0,14.528-7.063,14.369,14.369,0,0,0-1.313-2.612,11.516,11.516,0,0,0-3.171-3.784,4.413,4.413,0,0,0-4.689-.372" transform="translate(-340.432 -532.283)" fill="#fad700"/>
      <ellipse id="Ellipse_20" data-name="Ellipse 20" cx="2.918" cy="2.918" rx="2.918" ry="2.918" transform="translate(10.171 14.16)" fill="#fff"/>
      <ellipse id="Ellipse_21" data-name="Ellipse 21" cx="1.284" cy="1.284" rx="1.284" ry="1.284" transform="translate(12.839 15.794)" fill="#0a090b"/>
      <ellipse id="Ellipse_22" data-name="Ellipse 22" cx="2.918" cy="2.918" rx="2.918" ry="2.918" transform="translate(3.097 14.16)" fill="#fff"/>
      <ellipse id="Ellipse_23" data-name="Ellipse 23" cx="1.284" cy="1.284" rx="1.284" ry="1.284" transform="translate(5.765 15.794)" fill="#0a090b"/>
      <path id="Path_108717" data-name="Path 108717" d="M498.217,719.575h0a1.752,1.752,0,0,1-2.337-.245" transform="translate(-487.547 -698.771)" fill="none" stroke="#09090b" stroke-linecap="round" stroke-linejoin="round" stroke-width="5"/>
      <path id="Path_108718" data-name="Path 108718" d="M627.386,337.7c.063.157.145.3.343.279s.256-.175.306-.328a1.993,1.993,0,0,0,.069-.709c0-.126.009-.236,0-.345a1.067,1.067,0,0,0-.205-.609.4.4,0,0,0-.417-.137.318.318,0,0,0-.235.274,1.308,1.308,0,0,0-.028.532A4.773,4.773,0,0,0,627.386,337.7Z" transform="translate(-611.83 -335.838)" fill="#fff387"/>
      <path id="Path_108719" data-name="Path 108719" d="M569.225,367.874a.256.256,0,0,0,.127-.264.576.576,0,0,0-.045-.187,2.97,2.97,0,0,0-.665-.961.353.353,0,0,0-.24-.113.446.446,0,0,0-.362.225.327.327,0,0,0,.007.366,3.863,3.863,0,0,0,.9.916A.244.244,0,0,0,569.225,367.874Z" transform="translate(-555.789 -364.714)" fill="#fff387"/>
      <path id="Path_108720" data-name="Path 108720" d="M683.69,362.2c-.024-.375-.2-.478-.552-.336a1.08,1.08,0,0,0-.322.258,2.45,2.45,0,0,0-.567.673.31.31,0,0,0,.031.363c.087.094.2.043.305,0a3.64,3.64,0,0,0,.984-.664A.279.279,0,0,0,683.69,362.2Z" transform="translate(-663.884 -360.408)" fill="#fff387"/>
      <path id="Path_108721" data-name="Path 108721" d="M711.277,412.874a.406.406,0,0,0-.453-.347,1.891,1.891,0,0,0-.953.375c-.132.081-.228.176-.181.343s.19.144.322.143c.295-.017.59-.063.88-.1C711.123,413.261,711.3,413.124,711.277,412.874Z" transform="translate(-689.882 -408.416)" fill="#fff387"/>
      <path id="Path_108722" data-name="Path 108722" d="M544.125,418.284c-.347-.008-.51.107-.532.325-.024.236.079.362.375.418.252.048.506.077.761.107a.293.293,0,0,0,.322-.191.278.278,0,0,0-.1-.326A1.367,1.367,0,0,0,544.125,418.284Z" transform="translate(-532.698 -413.864)" fill="#fff387"/>
      <path id="Path_108723" data-name="Path 108723" d="M588.155,393.938a3.455,3.455,0,0,0-3.248,1.032,2.811,2.811,0,0,0-.664,1.694,2.721,2.721,0,0,0,.513,1.93c.333.429.731.8,1.063,1.225-.006.07.061.1.08.161h.276a1.267,1.267,0,0,1,.128,0l1.3.1a.643.643,0,0,0,.09.01c.091,0,.184.019.276.016l.211.016v-.076h0a1.423,1.423,0,0,1,.518-.483,4.061,4.061,0,0,0,.924-.786,2.291,2.291,0,0,0,.607-1.019,3.505,3.505,0,0,0-.312-2.472A2.61,2.61,0,0,0,588.155,393.938Z" transform="translate(-571.165 -390.745)" fill="#fff387"/>
      <path id="Path_108724" data-name="Path 108724" d="M615.186,507.751a.205.205,0,0,0-.127-.035c-.458-.033-.911-.093-1.373-.1a3.077,3.077,0,0,0-.778-.012,1.343,1.343,0,0,0-.107.846c.063.352.161.713.585.828.1.027.124.112.146.207s.021.2.134.261a.421.421,0,0,0,.654-.214c.025-.054.022-.132.107-.146a.977.977,0,0,0,.781-.8A1.012,1.012,0,0,0,615.186,507.751Z" transform="translate(-598.174 -498.373)" fill="#92c6c4"/>
      <path id="Path_108725" data-name="Path 108725" d="M639.079,626.714a3.312,3.312,0,0,0,1.482-1.46,5.771,5.771,0,0,0,.609-2.335c.036-.478.038-.957.04-1.436a.292.292,0,0,0-.584,0c0,.415,0,.831-.027,1.246-.012.2-.028.4-.054.606,0,.01-.011.094,0,.023,0,.025-.007.05-.011.075-.007.05-.016.1-.024.15-.017.1-.036.2-.059.3a4.965,4.965,0,0,1-.158.554c-.025.07-.054.14-.08.209s.027-.06,0,0c-.008.019-.016.038-.025.054-.019.044-.04.087-.061.129a3.776,3.776,0,0,1-.243.422l-.069.1-.036.049c-.012.016-.047.07,0,.005a1.745,1.745,0,0,1-.155.184c-.063.069-.128.136-.2.2-.034.032-.07.062-.107.092l-.039.031c-.058.047.036-.025-.012.01a2.767,2.767,0,0,1-.48.285.3.3,0,0,0-.107.4.3.3,0,0,0,.4.107Z" transform="translate(-622.654 -605.905)" fill="#09090b"/>
      <path id="Path_108726" data-name="Path 108726" d="M390.9,738.145a8.416,8.416,0,0,0,.328,2,8.557,8.557,0,0,0,.357.979,4.12,4.12,0,0,0,.414.764,2.532,2.532,0,0,0,.7.685,1.938,1.938,0,0,0,.88.294,1.484,1.484,0,0,0,.893-.214,2,2,0,0,0,.616-.634,3.869,3.869,0,0,0,.4-.936l.161-.524c.028-.085.057-.169.088-.252l.022-.057.008-.02c.017-.045.04-.089.061-.133a.292.292,0,1,0-.507-.292,6.291,6.291,0,0,0-.335.915c-.043.144-.087.288-.137.429-.023.067-.048.134-.074.2-.008.019-.017.063,0,0a.326.326,0,0,1-.017.037c-.013.031-.028.062-.043.093a2.389,2.389,0,0,1-.2.336l-.024.033c-.039.054.03-.036,0,0s-.038.047-.058.07a1.735,1.735,0,0,1-.136.139c-.017.014-.04.045-.061.054l.027-.021-.024.018-.041.028a1.217,1.217,0,0,1-.164.092l-.009,0,.015-.006a.171.171,0,0,1-.038.014c-.029.01-.06.02-.09.028s-.061.015-.092.02a.162.162,0,0,1-.041.007c.043-.005.048-.006.016,0h-.02a1.348,1.348,0,0,1-.187,0l-.054,0h-.011c-.033,0-.027,0,.016,0a.286.286,0,0,1-.1-.02,1.548,1.548,0,0,1-.183-.054l-.04-.015c-.066-.024.041.019,0,0s-.071-.032-.107-.05a1.723,1.723,0,0,1-.165-.1l-.078-.054c-.035-.026.054.045,0,0l-.05-.042a2.7,2.7,0,0,1-.282-.3c-.029-.035.041.054,0,0l-.026-.036c-.019-.027-.039-.054-.057-.082q-.06-.089-.113-.18c-.072-.123-.137-.25-.2-.379l-.041-.092-.019-.044c-.033-.076-.064-.154-.093-.232q-.083-.214-.153-.436a8.111,8.111,0,0,1-.253-1.018q-.023-.129-.042-.259a.381.381,0,0,0-.007-.049c-.01-.07,0,.043,0-.021-.006-.046-.011-.091-.017-.137q-.029-.268-.041-.536a.292.292,0,1,0-.583,0Z" transform="translate(-388.19 -716.303)" fill="#09090b"/>
      <path id="Path_108727" data-name="Path 108727" d="M470.267,873.787q.057,1.36-.012,2.723-.034.677-.1,1.352-.033.341-.074.68c-.013.107-.027.218-.041.326,0,.009-.009.063,0,.026s0,.009,0,.013c0,.026-.007.054-.011.078l-.024.169a.994.994,0,0,0-.023.434.382.382,0,0,0,.214.24.513.513,0,0,0,.234.031l.787-.039a.292.292,0,0,0,0-.584l-.667.033c-.054,0-.107.007-.161.008-.123,0,.057-.027.131.1l.026.1a.233.233,0,0,1,0-.037l-.006.04a.508.508,0,0,1,.008-.054c0-.026.008-.054.012-.078.009-.061.018-.121.026-.182q.092-.664.161-1.332.124-1.283.135-2.573.005-.737-.025-1.474a.292.292,0,0,0-.584,0Z" transform="translate(-463.016 -844.672)" fill="#09090b"/>
      <path id="Path_108728" data-name="Path 108728" d="M519.45,873.843l.122,2.8.061,1.4a9.173,9.173,0,0,0,.107,1.408.878.878,0,0,0,.136.375.474.474,0,0,0,.477.165c.253-.037.5-.1.755-.154a.294.294,0,0,0,.2-.359.3.3,0,0,0-.359-.2l-.643.133-.071.014c-.069.016.067-.006,0,0h-.02a.147.147,0,0,1,.119.05c-.047-.039.034.054,0,0,.037.066.011.021,0,0s-.013-.049-.019-.073c-.014-.057-.026-.115-.035-.173,0-.025-.008-.05-.011-.075.01.071,0-.013,0-.023-.005-.05-.01-.1-.014-.152-.008-.107-.013-.219-.018-.329l-.029-.667-.115-2.641-.065-1.494a.292.292,0,0,0-.584,0Z" transform="translate(-509.853 -844.728)" fill="#09090b"/>
    </g>
    <g id="Laag_1-5" data-name="Laag 1" transform="translate(33.089 18.246)">
      <path id="Path_108689" data-name="Path 108689" d="M414.875,349.607a6.876,6.876,0,0,1-3.333-2.567,2.147,2.147,0,0,1-.424-.986.929.929,0,0,1,.439-.922,1.441,1.441,0,0,1,1.328.281l1.076.651a.521.521,0,0,0,.344.108c.21-.037.286-.294.316-.5.247-1.722.327-3.2,1.754-4.193a1.363,1.363,0,0,1,1-.29,1.462,1.462,0,0,1,.971,1.005,8.715,8.715,0,0,1,.544,2.819.457.457,0,0,0,.082.27.34.34,0,0,0,.453-.026,2.733,2.733,0,0,0,.3-.4,1.427,1.427,0,0,1,1.936.052,1.759,1.759,0,0,1,.041,1.863,3.569,3.569,0,0,1-1.323,1.461,7.421,7.421,0,0,1-3.96,1.293" transform="translate(-406.206 -341.17)" fill="#6fc649"/>
      <path id="Path_108690" data-name="Path 108690" d="M354.406,739.508a18.566,18.566,0,0,0,.16,2.9,18.806,18.806,0,0,0,.613,2.878q.234.783.536,1.545a.23.23,0,0,0,.276.157.227.227,0,0,0,.157-.276,18.481,18.481,0,0,1-.852-2.754q-.159-.708-.264-1.428l-.012-.086a.306.306,0,0,0-.005-.038l0-.027,0-.027,0-.038c0-.032-.008-.064-.012-.1q-.023-.182-.041-.363-.037-.358-.06-.719-.053-.811-.033-1.625a.224.224,0,0,0-.449,0Z" transform="translate(-351.831 -722.894)" fill="#09090b"/>
      <path id="Path_108691" data-name="Path 108691" d="M303.283,471.855a7.013,7.013,0,0,0,1.987-.641,5.862,5.862,0,0,1,4.181-.167,4.526,4.526,0,0,1,2.837,2.984,7.992,7.992,0,0,1-.11,3.439l-.976,5.455a10.724,10.724,0,0,1-1.147,3.72,6.718,6.718,0,0,1-4.172,2.876,12.922,12.922,0,0,1-5.163.053,10.356,10.356,0,0,1-5.669-2.434,13.355,13.355,0,0,1-2.975-9.243,7.518,7.518,0,0,1,3.637-5.24A9.636,9.636,0,0,1,300,471.364a7.194,7.194,0,0,1,2.857.412A1.158,1.158,0,0,0,303.283,471.855Z" transform="translate(-292.008 -465.401)" fill="#f786b9"/>
      <ellipse id="Ellipse_12" data-name="Ellipse 12" cx="2.242" cy="2.242" rx="2.242" ry="2.242" transform="translate(5.255 10.275)" fill="#fff"/>
      <ellipse id="Ellipse_13" data-name="Ellipse 13" cx="0.987" cy="0.987" rx="0.987" ry="0.987" transform="translate(5.717 11.531)" fill="#0a090b"/>
      <ellipse id="Ellipse_14" data-name="Ellipse 14" cx="2.242" cy="2.242" rx="2.242" ry="2.242" transform="translate(10.691 10.275)" fill="#fff"/>
      <ellipse id="Ellipse_15" data-name="Ellipse 15" cx="0.987" cy="0.987" rx="0.987" ry="0.987" transform="translate(11.152 11.531)" fill="#0a090b"/>
      <path id="Path_108692" data-name="Path 108692" d="M468.955,723.34H473.1a.884.884,0,0,1,.824,1.216,3.186,3.186,0,0,1-.224.434,1.941,1.941,0,0,0-2.153.022,2.168,2.168,0,0,0-1.093,1.414,3.146,3.146,0,0,1-2.321-1.871A.883.883,0,0,1,468.955,723.34Z" transform="translate(-460.811 -707.598)" fill="#0a090b"/>
      <path id="Path_108693" data-name="Path 108693" d="M528.092,756.141a1.94,1.94,0,0,1,2.152-.022A3.142,3.142,0,0,1,527,757.555,2.166,2.166,0,0,1,528.092,756.141Z" transform="translate(-517.32 -738.727)" fill="#cc534d"/>
      <path id="Path_108694" data-name="Path 108694" d="M.165,0h.7a.165.165,0,0,1,.165.165V.888H0V.165A.165.165,0,0,1,.165,0Z" transform="translate(10.215 16.63) rotate(180)" fill="#fff"/>
      <path id="Path_108695" data-name="Path 108695" d="M.165,0h.7a.165.165,0,0,1,.165.165V.888H0V.165A.165.165,0,0,1,.165,0Z" transform="translate(11.319 16.63) rotate(180)" fill="#fff"/>
      <path id="Path_108696" data-name="Path 108696" d="M616.988,912.937l.029,1.378c.005.213.018.428.01.642,0,.022,0,.044,0,.066s0,.022,0,.033c0,.041,0,0,0-.011a.453.453,0,0,0-.012.064.7.7,0,0,1-.021.077.181.181,0,0,0-.011.031c0-.015.017-.037,0-.01s-.02.038-.031.056l-.018.027c-.009-.007.036-.041.012-.017l-.017.018-.014.012c-.013.011-.006.006.021-.016a.467.467,0,0,0-.048.03l-.022.012c-.023.013.049-.016.013-.006l-.061.016c-.019.005-.017-.009.023,0h-.06c-.038,0,.044.011.019,0l-.022-.005c-.036-.008,0,0,.016.009a.215.215,0,0,0-.02-.01c-.03-.017-.008-.019.008.009a.12.12,0,0,0-.017-.016c-.029-.026.029.041.006.007a.225.225,0,0,0-.389.224.522.522,0,0,0,.6.2.683.683,0,0,0,.448-.485,2.461,2.461,0,0,0,.041-.705l-.016-.766-.019-.868a.224.224,0,0,0-.448,0Z" transform="translate(-602.989 -889.167)" fill="#09090b"/>
      <path id="Path_108697" data-name="Path 108697" d="M536.832,924.06q.016.65,0,1.3,0,.163-.01.325c0,.041,0,.082-.006.124,0,.022,0,.044-.005.066a.074.074,0,0,1,0,.025c-.005.057.009-.05,0,.006a1.2,1.2,0,0,1-.025.12c-.006.021-.012.041-.019.062,0,0-.01.02-.009.023.011-.026.014-.032.007-.016l-.011.022a.555.555,0,0,1-.028.049l-.018.027c-.016.026.028-.029.008-.011s-.02.022-.031.033a.124.124,0,0,0-.02.017c.027-.02.033-.025.019-.015l-.016.011c-.015.01-.03.017-.046.026-.032.018.012-.007.018-.007a.223.223,0,0,0-.038.013.242.242,0,0,0-.051.012c.028-.016.047,0,.021,0h-.056c-.041,0,.007,0,.017,0s-.072-.026-.031-.006-.02-.017-.026-.017.041.037.016.012l-.025-.028a.227.227,0,0,0-.317,0,.23.23,0,0,0,0,.317.547.547,0,0,0,.577.141.73.73,0,0,0,.462-.46,1.936,1.936,0,0,0,.087-.637q.012-.36.014-.721,0-.406-.008-.813a.224.224,0,0,0-.449,0Z" transform="translate(-526.029 -899.834)" fill="#09090b"/>
      <path id="Path_108698" data-name="Path 108698" d="M727.078,739.7a11.764,11.764,0,0,1,.589,2.375c0,.01.006.044,0,0a.28.28,0,0,0,0,.038c0,.025.007.05.009.075.006.05.012.1.018.15.012.1.021.206.03.31q.025.305.035.612a11.677,11.677,0,0,1-.026,1.225c-.009.113-.018.226-.03.338-.006.056-.012.112-.019.169,0,.028-.007.056-.01.082l0,.037c0,.023,0,.038,0,.006-.028.23-.07.46-.115.688a.229.229,0,0,0,.157.276.227.227,0,0,0,.276-.157,11.849,11.849,0,0,0-.082-5,11.527,11.527,0,0,0-.4-1.337.229.229,0,0,0-.276-.157.227.227,0,0,0-.157.276Z" transform="translate(-709.147 -723.008)" fill="#09090b"/>
    </g>
    <g id="Laag_1-6" data-name="Laag 1" transform="translate(15.269 20.034)">
      <path id="Path_108699" data-name="Path 108699" d="M260.119,256.288a7.36,7.36,0,0,0-3.956-3.022,14.473,14.473,0,0,0-3.237-.476l-3.458.05a3.792,3.792,0,0,0-1.188.216,6,6,0,0,1-.816.222,4.662,4.662,0,0,0-3.233,3.263C247.267,256.816,254.347,257.279,260.119,256.288Z" transform="translate(-241.483 -248.214)" fill="#f95d5d"/>
      <path id="Path_108700" data-name="Path 108700" d="M232.179,422.9c-.207,2,.3,4.016.479,6.028a12.12,12.12,0,0,0,.372,2.646c.821,2.551,3.722,3.885,6.4,4.007a9.619,9.619,0,0,0,7.656-2.982,10.446,10.446,0,0,0,2.266-5.155,9.877,9.877,0,0,0-.047-4.029,6.8,6.8,0,0,0-.276-.863C242.953,423.735,235.136,423.177,232.179,422.9Z" transform="translate(-229.724 -413.188)" fill="#f95d5d"/>
      <path id="Path_108701" data-name="Path 108701" d="M241.6,406.828c-.686,0-1.341-.01-1.954-.025-2.375-.061-4.432-.217-5.716-.335-.007.04-.014.081-.02.122-.017.113-.03.228-.042.342,2.957.279,10.774.837,16.847-.348q-.092-.235-.2-.463A49.556,49.556,0,0,1,241.6,406.828Z" transform="translate(-231.415 -397.221)" fill="#89e8e5"/>
      <path id="Path_108702" data-name="Path 108702" d="M254.549,377.38q-.148-.277-.319-.54c-5.772.99-12.853.528-15.889.254a6.051,6.051,0,0,0-.171.615C241.248,377.987,248.7,378.476,254.549,377.38Z" transform="translate(-235.594 -368.766)" fill="#89e8e5"/>
      <path id="Path_108703" data-name="Path 108703" d="M236.12,396.358q-.034.152-.06.3c1.285.118,3.342.274,5.716.335.613.016,1.269.025,1.954.025a49.552,49.552,0,0,0,8.913-.708c-.046-.1-.094-.191-.145-.284C246.648,397.125,239.2,396.636,236.12,396.358Z" transform="translate(-233.543 -387.415)" fill="#fff"/>
      <ellipse id="Ellipse_16" data-name="Ellipse 16" cx="1.535" cy="1.535" rx="1.535" ry="1.535" transform="translate(7.297 10.92)" fill="#fff"/>
      <ellipse id="Ellipse_17" data-name="Ellipse 17" cx="0.675" cy="0.675" rx="0.675" ry="0.675" transform="translate(7.613 11.78)" fill="#0a090b"/>
      <ellipse id="Ellipse_18" data-name="Ellipse 18" cx="1.535" cy="1.535" rx="1.535" ry="1.535" transform="translate(11.017 10.92)" fill="#fff"/>
      <ellipse id="Ellipse_19" data-name="Ellipse 19" cx="0.675" cy="0.675" rx="0.675" ry="0.675" transform="translate(11.333 11.78)" fill="#0a090b"/>
      <path id="Path_108704" data-name="Path 108704" d="M509.21,591.377a2.225,2.225,0,0,0,1.212-.157s.157,1.748-.493,1.817S509.21,591.377,509.21,591.377Z" transform="translate(-498.992 -577.102)" fill="#0a090b"/>
      <path id="Path_108705" data-name="Path 108705" d="M151.786,105.571S148.323,90.118,162.828,90.5c14.31.377,9.914,15.7,9.914,15.7" transform="translate(-151.294 -90.493)" fill="none" stroke="#0a090b" stroke-miterlimit="10" stroke-width="1.78"/>
      <rect id="Rectangle_164" data-name="Rectangle 164" width="0.846" height="2.572" rx="0.423" transform="translate(21.353 13.931) rotate(11.76)" fill="#6fc649"/>
      <rect id="Rectangle_165" data-name="Rectangle 165" width="0.846" height="2.572" rx="0.423" transform="translate(1.221 16.914) rotate(171.41)" fill="#6fc649"/>
      <path id="Path_108706" data-name="Path 108706" d="M830.465,616.8a3.61,3.61,0,0,0,.042.878,1.629,1.629,0,0,0,.38.715,1.116,1.116,0,0,0,.752.384.856.856,0,0,0,.62-.3,1.016,1.016,0,0,0,.3-.725.153.153,0,1,0-.307,0,.618.618,0,0,1,0,.067c0,.01,0,.02,0,.03s0,.027,0,0,0,0,0,.006a.773.773,0,0,1-.04.14.11.11,0,0,0-.007.017s.013-.03.006-.015l-.016.034c-.011.023-.023.046-.036.068s-.025.042-.039.062l-.023.032c-.016.023,0-.008.006-.008s-.013.017-.015.019a1.028,1.028,0,0,1-.107.113l-.025.022-.015.012c-.011.009-.014,0,.009-.007a.473.473,0,0,0-.061.043.719.719,0,0,1-.063.036l-.028.014c-.017.009.031-.012.012-.005l-.021.008a.587.587,0,0,1-.062.019l-.033.007-.013,0c.043-.011.021,0,.007,0a.446.446,0,0,1-.063,0l-.022,0c-.019,0,.01,0,.011,0a.173.173,0,0,1-.054-.01.782.782,0,0,1-.087-.025.361.361,0,0,1-.046-.017c.028.015.01,0,0,0l-.028-.013a1.088,1.088,0,0,1-.157-.1l-.013-.009c.019.006.017.014.005,0l-.034-.028c-.022-.019-.043-.039-.064-.06s-.04-.042-.059-.064l-.025-.028c-.008-.009-.009-.012-.014-.017s.018.024,0,0a1.684,1.684,0,0,1-.1-.147,1.6,1.6,0,0,1-.079-.158c-.011-.026.011.028,0-.009l-.014-.036c-.011-.031-.022-.062-.031-.094s-.019-.071-.026-.108c0-.018-.007-.036-.01-.055a.154.154,0,0,1,0-.025c0,.012,0,.022,0,0-.008-.075-.013-.151-.015-.226,0-.151,0-.3.006-.451a.154.154,0,0,0-.307,0Z" transform="translate(-811.182 -601.818)" fill="#09090b"/>
      <path id="Path_108707" data-name="Path 108707" d="M175.356,618.837a3.836,3.836,0,0,1-.016.433c0,.017,0,.035-.006.052a.164.164,0,0,1,0,.026c0-.006,0-.031,0,0s-.012.073-.019.11a2.127,2.127,0,0,1-.052.209c-.035.113-.073.226-.113.338-.009.024-.018.049-.028.073l-.008.019c0,.005-.012.026,0,.005s0,0,0,.005l-.011.024a1.174,1.174,0,0,1-.08.147c-.007.011-.014.022-.022.033l-.012.016c-.012.016.019-.023.006-.008a.831.831,0,0,1-.056.062l-.028.028-.015.013c-.018.015.008,0,.007-.006s-.071.046-.078.05a.436.436,0,0,1-.082.041c.03-.009.01,0,0,0l-.023.009-.058.019a.276.276,0,0,1-.095.02s.028,0,.011,0a.087.087,0,0,0-.022,0h-.036c-.022,0-.043,0-.065,0l-.034,0,.015,0-.021,0a1.062,1.062,0,0,1-.144-.035l-.07-.025-.017-.007c-.012-.005-.013-.012.011,0a.27.27,0,0,0-.038-.018,1.167,1.167,0,0,1-.135-.075.828.828,0,0,0-.068-.048c.028.013.019.016.01.007l-.021-.017-.028-.024c-.02-.019-.04-.038-.059-.059l-.025-.028c-.016-.019.008.009.008.011a.164.164,0,0,0-.015-.02.594.594,0,0,1-.038-.063c0-.006-.02-.044-.009-.018s0-.011-.006-.018c-.007-.022-.01-.045-.016-.067.012.05,0,.012,0-.005a.25.25,0,0,1,0-.039.154.154,0,0,0-.153-.154.157.157,0,0,0-.154.154.711.711,0,0,0,.305.574,1.314,1.314,0,0,0,.672.278.842.842,0,0,0,.383-.051.938.938,0,0,0,.367-.234,1.887,1.887,0,0,0,.341-.7,2.692,2.692,0,0,0,.119-.508,3.615,3.615,0,0,0,.028-.524.154.154,0,0,0-.307,0Z" transform="translate(-172.694 -603.8)" fill="#09090b"/>
      <path id="Path_108708" data-name="Path 108708" d="M516.364,874.369l.032,1.3c.011.428.026.855.032,1.283v.074a.238.238,0,0,1,0,.037c0,.008,0,.062,0,.02a.337.337,0,0,1-.016.072.128.128,0,0,1-.012.035c.021-.03,0,.007-.009.014l-.011.018c-.01.013-.008.012,0-.005l-.014.016-.023.022c-.013.011-.011.009.006,0l-.017.012-.018.01.008,0-.019.006-.01,0c-.017,0-.013,0,.011,0,0,0-.069-.008-.01,0a.157.157,0,0,0-.189.107.156.156,0,0,0,.107.189.406.406,0,0,0,.349-.1.507.507,0,0,0,.153-.282,1.585,1.585,0,0,0,.016-.343l-.008-.336-.035-1.377-.019-.771a.153.153,0,1,0-.307,0Z" transform="translate(-505.691 -852.118)" fill="#09090b"/>
      <path id="Path_108709" data-name="Path 108709" d="M575.613,870.151a11.569,11.569,0,0,0,.193,2.43q.063.335.145.667a.153.153,0,0,0,.107.107l.3.073a.154.154,0,0,0,.082-.3l-.3-.073.107.107a11.356,11.356,0,0,1-.228-1.178.249.249,0,0,0,0-.034c0-.026,0,.037,0-.006,0-.022-.006-.045-.009-.068q-.01-.081-.019-.162-.017-.149-.028-.3-.025-.3-.035-.592-.01-.338,0-.677a.154.154,0,0,0-.307,0Z" transform="translate(-563.518 -848.025)" fill="#09090b"/>
    </g>
  </g>
</svg>
