<svg xmlns="http://www.w3.org/2000/svg" xmlns:xlink="http://www.w3.org/1999/xlink" width="30.544" height="36.193" viewBox="0 0 30.544 36.193">
  <defs>
    <clipPath id="clip-path">
      <rect id="Rectangle_140" data-name="Rectangle 140" width="20.49" height="20.49" transform="translate(0 0)" fill="#fff" stroke="#707070" stroke-width="1"/>
    </clipPath>
  </defs>
  <g id="Group_4611" data-name="Group 4611" transform="translate(-823.171 -144.743)">
    <path id="Path_108651" data-name="Path 108651" d="M683.152,535.741c-10.225,8.264-23.844,1.47-23.815-11.666.016-7.2.88-21.337,16.384-20.911,11.487.316,13.456,6.086,13.962,11.3C690.485,522.7,688.968,530.617,683.152,535.741Z" transform="translate(163.833 -358.413)" fill="#6fc649"/>
    <g id="Mask_Group_36" data-name="Mask Group 36" transform="translate(828.198 153.067)" clip-path="url(#clip-path)">
      <path id="credit-card-light" d="M18.782,1.778H1.707A1.708,1.708,0,0,0,0,3.485V16.007a1.708,1.708,0,0,0,1.707,1.707H18.782a1.708,1.708,0,0,0,1.707-1.707V3.485A1.708,1.708,0,0,0,18.782,1.778ZM1.707,2.916H18.782a.571.571,0,0,1,.569.569V5.193H1.138V3.485A.571.571,0,0,1,1.707,2.916Zm17.075,13.66H1.707a.571.571,0,0,1-.569-.569v-7.4H19.351v7.4A.571.571,0,0,1,18.782,16.576ZM6.83,13.588v.285A.428.428,0,0,1,6.4,14.3H3.842a.428.428,0,0,1-.427-.427v-.285a.428.428,0,0,1,.427-.427H6.4A.428.428,0,0,1,6.83,13.588Zm6.83,0v.285a.428.428,0,0,1-.427.427H8.4a.428.428,0,0,1-.427-.427v-.285a.428.428,0,0,1,.427-.427h4.838A.428.428,0,0,1,13.66,13.588Z" transform="translate(0 0.499)" fill="#fff"/>
    </g>
  </g>
</svg>
