<svg xmlns="http://www.w3.org/2000/svg" xmlns:xlink="http://www.w3.org/1999/xlink" width="30.544" height="36.193" viewBox="0 0 30.544 36.193">
  <defs>
    <clipPath id="clip-path">
      <rect id="Rectangle_1453" data-name="Rectangle 1453" width="20.49" height="20.49" transform="translate(0 0)" fill="#fff" stroke="#707070" stroke-width="1"/>
    </clipPath>
  </defs>
  <g id="Group_4610" data-name="Group 4610" transform="translate(-654.171 -146.579)">
    <path id="Path_111704" data-name="Path 111704" d="M683.152,535.741c-10.225,8.264-23.844,1.47-23.815-11.666.016-7.2.88-21.337,16.384-20.911,11.487.316,13.456,6.086,13.962,11.3C690.485,522.7,688.968,530.617,683.152,535.741Z" transform="translate(-5.167 -356.576)" fill="#f786b9"/>
    <g id="Mask_Group_71" data-name="Mask Group 71" transform="translate(660.574 154.903)" clip-path="url(#clip-path)">
      <path id="person-carry-light" d="M14.727,3.842h-6.4a.642.642,0,0,0-.64.64V7.528L5.575,5.419a3.683,3.683,0,0,0-.308-.252,2.887,2.887,0,1,0-3.726-.2A3.212,3.212,0,0,0,0,7.684V18.569a1.921,1.921,0,1,0,3.842,0V15.928l.144.124.524,2.861a1.92,1.92,0,0,0,3.778-.692l-.564-3.065A3.25,3.25,0,0,0,6.635,13.27l-1.513-1.3V10.4l1.125,1.125h8.48a.642.642,0,0,0,.64-.64v-6.4A.642.642,0,0,0,14.727,3.842ZM3.522,1.281A1.6,1.6,0,1,1,1.969,3.262,1.6,1.6,0,0,1,3.522,1.281Zm-.96,17.288a.64.64,0,1,1-1.281,0V13.735l1.281,1.1Zm4.218-8.324L4.39,7.856a.316.316,0,0,0-.224-.1.322.322,0,0,0-.324.32v4.478l1.969,1.685a1.988,1.988,0,0,1,.66,1.145l.564,3.065a.64.64,0,0,1-.512.744.6.6,0,0,1-.116.012.638.638,0,0,1-.628-.524l-.564-3.061a.7.7,0,0,0-.232-.4L1.957,12.63a1.923,1.923,0,0,1-.676-1.465V7.684A1.918,1.918,0,0,1,3.117,5.763H3.2a2,2,0,0,1,1.469.564L7.307,8.964H8.964a.64.64,0,0,1,0,1.281Zm7.307,0H10.769a1.892,1.892,0,0,0,.116-.64A1.921,1.921,0,0,0,8.964,7.684V5.122h5.122Z" transform="translate(2.561 0)" fill="#fff"/>
    </g>
  </g>
</svg>
