<svg xmlns="http://www.w3.org/2000/svg" xmlns:xlink="http://www.w3.org/1999/xlink" width="30.544" height="36.193" viewBox="0 0 30.544 36.193">
  <defs>
    <clipPath id="clip-path">
      <rect id="Rectangle_1452" data-name="Rectangle 1452" width="20.49" height="20.49" transform="translate(0 0)" fill="#fff" stroke="#707070" stroke-width="1"/>
    </clipPath>
  </defs>
  <g id="Group_4609" data-name="Group 4609" transform="translate(-489.63 -145.101)">
    <path id="Path_111703" data-name="Path 111703" d="M683.152,535.741c-10.225,8.264-23.844,1.47-23.815-11.666.016-7.2.88-21.337,16.384-20.911,11.487.316,13.456,6.086,13.962,11.3C690.485,522.7,688.968,530.617,683.152,535.741Z" transform="translate(-169.708 -358.054)" fill="#89e8e5"/>
    <g id="Mask_Group_70" data-name="Mask Group 70" transform="translate(494.753 153.425)" clip-path="url(#clip-path)">
      <path id="child-light" d="M16.9,3.632a2.569,2.569,0,0,0-3.734.111,3.842,3.842,0,0,0-7.681,0A2.564,2.564,0,1,0,1.749,7.254l3.093,3.092v7.9A2.244,2.244,0,0,0,7.083,20.49h.64a2.234,2.234,0,0,0,1.6-.674,2.234,2.234,0,0,0,1.6.674h.64a2.244,2.244,0,0,0,2.241-2.241v-7.9L16.9,7.254a2.564,2.564,0,0,0,0-3.622ZM9.324,1.281A2.561,2.561,0,1,1,6.763,3.842,2.561,2.561,0,0,1,9.324,1.281Zm6.668,5.068L12.525,9.815v8.434a.96.96,0,0,1-.96.96h-.64a.96.96,0,0,1-.96-.96V13.767H8.684v4.482a.96.96,0,0,1-.96.96h-.64a.96.96,0,0,1-.96-.96V9.815L2.656,6.348A1.281,1.281,0,0,1,4.467,4.537L7.613,7.684h3.421l3.147-3.147a1.281,1.281,0,0,1,1.811,1.811Z" transform="translate(0.921 0)" fill="#fff"/>
    </g>
  </g>
</svg>
