<svg xmlns="http://www.w3.org/2000/svg" xmlns:xlink="http://www.w3.org/1999/xlink" width="1441" height="784" viewBox="0 0 1441 784">
  <defs>
    <clipPath id="clip-Artboard_2">
      <rect width="1441" height="784"/>
    </clipPath>
  </defs>
  <g id="Artboard_2" data-name="Artboard – 2" clip-path="url(#clip-Artboard_2)">
    <rect width="1441" height="784" fill="#fff"/>
    <rect id="Rectangle_1492" data-name="Rectangle 1492" width="1441" height="784" fill="#fefcec"/>
    <g id="Group_4682" data-name="Group 4682" transform="translate(-577.379 -562.728)">
      <path id="Path_111720" data-name="Path 111720" d="M1242,994.537c-8.7,9.8-28.229,14.26-40.113,19.248-15.461,6.491-31.028,12.746-46.784,18.491-31.889,11.623-64.641,21.206-98.249,26.308-63.79,9.685-132.6,1.911-185.823-34.566-27.886-19.114-48.321-44.7-69.252-70.8-22.8-28.435-45.013-57.379-65.4-87.6-9.6-14.224-18.9-28.973-23.764-45.43s-4.843-35.043,3.627-49.967,26.571-24.89,43.213-20.706c17.039,4.284,28.412,22.77,26.929,40.275-2.772,32.7-37.828,49.1-67.187,45.862-16.642-1.833-32.392-8.562-46.967-16.806a232.647,232.647,0,0,1-91.3-94.637" transform="translate(792.136 153.209)" fill="none" stroke="#231f20" stroke-miterlimit="10" stroke-width="1" stroke-dasharray="1 1 1 1 1 6"/>
      <path id="Path_111721" data-name="Path 111721" d="M1174.081,702.884c.167-32.82-25.4-64.676-50.417-83.806-45.237-34.595-104.8-46.784-160.591-39.825" transform="translate(32.589 14.01)" fill="none" stroke="#231f20" stroke-miterlimit="10" stroke-width="1" stroke-dasharray="1 1 1 1 1 6"/>
      <path id="Path_111722" data-name="Path 111722" d="M1214.617,1134.419c26.665-30.43,39.541-71.66,44.039-111.218,6.652-58.532,11.569-185.664-71.716-194.126-27.074-2.753-50.4,11.9-48.288,41.25,1.34,18.666,17.957,34.234,36.458,37.063s37.624-5.661,50.313-19.418,19.48-32.154,22.044-50.693A132.8,132.8,0,0,0,1127.8,686.83" transform="translate(-417.302 117.776)" fill="none" stroke="#231f20" stroke-miterlimit="10" stroke-width="1" stroke-dasharray="1 1 1 1 1 6"/>
      <path id="Path_111723" data-name="Path 111723" d="M1042.909,638.407a634.567,634.567,0,0,0,81.875,318.123" transform="translate(-79.336 71.87)" fill="none" stroke="#231f20" stroke-miterlimit="10" stroke-width="1" stroke-dasharray="1 1 1 1 1 6"/>
      <path id="Path_111724" data-name="Path 111724" d="M1328.836,858.889c-80.428,86.718-201.408,135.084-319.5,127.668" transform="translate(-228.487 280.891)" fill="none" stroke="#231f20" stroke-miterlimit="10" stroke-width="1" stroke-dasharray="1 1 1 1 1 6"/>
      <path id="Path_111725" data-name="Path 111725" d="M862.572,703.947c5.988-22.811,14.5-46.246,32.287-61.739s47.263-19.766,64.382-3.542c8.967,8.5,13.893,21.6,25.1,26.809,13.075,6.076,28.032-1.332,42.293-3.452,20.205-3,41.185,5.437,55.638,19.872s22.755,34.268,25.659,54.486c6.479,45.077-15.668,94.124-56,115.286s-96.191,9.51-121.412-28.41c-6.276-9.44-10.652-20.053-17.105-29.372-11.453-16.54-28.8-28.127-41.257-43.93s-19.042-39.817-6.378-55.452" transform="translate(317.133 62.351)" fill="#6fc649"/>
      <path id="Path_111726" data-name="Path 111726" d="M1176.975,771.248c5.99,22.811,14.5,46.246,32.284,61.737s47.263,19.767,64.382,3.544c8.967-8.5,13.893-21.6,25.1-26.807,13.077-6.078,28.034,1.33,42.293,3.45,20.207,3,41.187-5.439,55.64-19.872s22.753-34.268,25.659-54.486c6.479-45.079-15.668-94.124-56-115.286s-96.2-9.51-121.414,28.41c-6.276,9.438-10.654,20.053-17.105,29.372-11.453,16.541-28.8,28.127-41.259,43.93s-19.042,39.818-6.378,55.452" transform="translate(-667.503 47.843)" fill="#fe8200"/>
      <path id="Path_111727" data-name="Path 111727" d="M1051.45,657.273c-.536,5.864-3.14,11.24-5.378,16.687-4.557,11.084-5.491,23.846-1.407,35.111s13.474,20.752,25.057,23.824c9.388,2.49,19.317.791,28.88-.919q22.9-4.1,45.8-8.193c10.788-1.932,21.855-3.962,31.234-9.629,12.456-7.529,20.635-20.91,24.148-35.035s2.76-28.988.446-43.357c-2.79-17.322-8.23-35-20.444-47.6-11.464-11.818-27.609-17.842-43.581-21.833-11.125-2.782-22.683-4.765-34.034-3.152-18.276,2.6-34.525,14.7-44,30.543a80.91,80.91,0,0,0-10.851,35.964,60.669,60.669,0,0,0,3.444,24,9.524,9.524,0,0,1,.682,3.592" transform="translate(-159.992 0)" fill="#f786b9"/>
      <path id="Path_111728" data-name="Path 111728" d="M729.774,946.711c.923,13.087,1.87,26.308,5.714,38.853,8.733,28.5,33.165,51.634,62.1,58.8,15.762,3.9,32.359,3.3,48.362.563,22.492-3.853,44.707-12.175,61.881-27.2,25.593-22.393,37.334-57.926,35.789-91.9-1.461-32.135-17.478-66.942-48.1-76.791-10.2-3.282-21.089-3.506-31.763-4.467-25.525-2.295-51.1-8.943-76.46-5.242-23.378,3.413-47.28,19.3-51.667,41.824a71.545,71.545,0,0,1-2.669,9.793,45.539,45.539,0,0,0-2.591,14.267Z" transform="translate(758.93 261.304)" fill="#f95d5d"/>
      <path id="Path_111729" data-name="Path 111729" d="M986.417,804.917c12.812-13.077,28.246-23.608,45.913-28.41,52.441-14.26,113.747,13.067,136.12,62.592s.9,115.147-47.479,139.907c-12.206,6.247-25.519,10-38.832,13.284-11.8,2.906-23.91,5.489-36.005,4.346-28.562-2.7-51.18-25.439-66.659-49.594-20.111-31.39-31.922-73.705-14.292-105.546,2.869-5.182,5.446-10.515,7.952-15.884,3.043-6.518,7.654-14.949,13.284-20.694" transform="translate(42.574 199.216)" fill="#fad700"/>
      <path id="Path_111730" data-name="Path 111730" d="M486.085,872.87c-2.447,19.233-2.737,39.332,4.36,57.375s22.881,33.644,42.134,35.927c16.171,1.917,33.794-5.264,48.221,2.285,12.688,6.637,17.813,22.217,28.716,31.494,19.428,16.531,50.563,7.5,69.04-10.091a97.126,97.126,0,0,0-13.731-151.587c-29.647-19.428-67.651-21.212-102.729-16.128-24.607,3.565-50.3,11.117-66.544,29.941-5.688,6.59-5.575,8.992-9.465,20.784" transform="translate(1487.509 259.53)" fill="#f786b9"/>
      <path id="Path_111731" data-name="Path 111731" d="M1104.7,1027.549c-8.955-22.768-8.589-48.139-5.5-72.412,4.909-14.885,4.769-17.914,11.947-26.232,20.5-23.754,52.926-33.286,83.981-37.788,44.271-6.415,92.235-4.161,129.65,20.357a124.489,124.489,0,0,1,54.893,91.468,120.776,120.776,0,0,1-2.106,35.378H1109.9a80.589,80.589,0,0,1-5.2-10.771" transform="translate(-475.905 308.538)" fill="#89e8e5"/>
    </g>
  </g>
</svg>
