<svg xmlns="http://www.w3.org/2000/svg" xmlns:xlink="http://www.w3.org/1999/xlink" width="30.544" height="36.193" viewBox="0 0 30.544 36.193">
  <defs>
    <clipPath id="clip-path">
      <rect id="Rectangle_1451" data-name="Rectangle 1451" width="20.49" height="20.49" transform="translate(0 0)" fill="#fff" stroke="#707070" stroke-width="1"/>
    </clipPath>
  </defs>
  <g id="Group_4608" data-name="Group 4608" transform="translate(-282.52 -143.101)">
    <path id="Path_111702" data-name="Path 111702" d="M683.152,535.741c-10.225,8.264-23.844,1.47-23.815-11.666.016-7.2.88-21.337,16.384-20.911,11.487.316,13.456,6.086,13.962,11.3C690.485,522.7,688.968,530.617,683.152,535.741Z" transform="translate(-376.818 -360.054)" fill="#fe7f00"/>
    <g id="Mask_Group_69" data-name="Mask Group 69" transform="translate(289.563 151.425)" clip-path="url(#clip-path)">
      <path id="user-check-light" d="M20.416,4.629l-.451-.455a.254.254,0,0,0-.362,0L15.914,7.751l-1.706-1.71a.257.257,0,0,0-.362,0l-.455.451a.257.257,0,0,0,0,.362l2.247,2.254a.385.385,0,0,0,.544,0l4.229-4.117a.254.254,0,0,0,0-.362ZM10.04,9.22c-.919,0-1.361.512-2.869.512S5.225,9.22,4.3,9.22a4.3,4.3,0,0,0-4.3,4.3v1.332a1.537,1.537,0,0,0,1.537,1.537H12.806a1.537,1.537,0,0,0,1.537-1.537V13.523A4.3,4.3,0,0,0,10.04,9.22Zm3.278,5.635a.514.514,0,0,1-.512.512H1.537a.514.514,0,0,1-.512-.512V13.523A3.281,3.281,0,0,1,4.3,10.245a15.289,15.289,0,0,0,2.869.512,15.345,15.345,0,0,0,2.869-.512,3.281,3.281,0,0,1,3.278,3.278ZM7.171,8.2a4.1,4.1,0,1,0-4.1-4.1A4.1,4.1,0,0,0,7.171,8.2Zm0-7.171A3.073,3.073,0,1,1,4.1,4.1,3.078,3.078,0,0,1,7.171,1.024Z" transform="translate(0 2.049)" fill="#fff"/>
    </g>
  </g>
</svg>