<svg xmlns="http://www.w3.org/2000/svg" width="40.089" height="45.151" viewBox="0 0 40.089 45.151">
  <g id="Group_143" data-name="Group 143" transform="translate(0.754 0.891)">
    <g id="Laag_1" data-name="Laag 1" transform="translate(0 0)">
      <path id="Path_108699" data-name="Path 108699" d="M271.842,258.87a12.79,12.79,0,0,0-6.875-5.253,25.152,25.152,0,0,0-5.625-.827l-6.01.087a6.588,6.588,0,0,0-2.065.375,10.427,10.427,0,0,1-1.418.387c-2.677.521-4.7,2.947-5.619,5.671C249.507,259.787,261.812,260.591,271.842,258.87Z" transform="translate(-239.456 -244.838)" fill="#f95d5d"/>
      <path id="Path_108700" data-name="Path 108700" d="M232.215,423.154c-.36,3.476.517,6.979.833,10.475a21.062,21.062,0,0,0,.646,4.6c1.426,4.433,6.468,6.752,11.118,6.964,4.918.223,10.063-1.476,13.3-5.182a18.154,18.154,0,0,0,3.938-8.959,17.165,17.165,0,0,0-.081-7,11.826,11.826,0,0,0-.48-1.5C250.939,424.609,237.355,423.64,232.215,423.154Z" transform="translate(-227.949 -406.28)" fill="#f95d5d"/>
      <path id="Path_108701" data-name="Path 108701" d="M247.307,407.35c-1.192,0-2.33-.017-3.4-.044-4.127-.105-7.7-.377-9.934-.582-.012.07-.024.141-.034.211-.029.2-.052.4-.073.594,5.139.486,18.724,1.455,29.277-.6q-.161-.409-.351-.805A86.121,86.121,0,0,1,247.307,407.35Z" transform="translate(-229.604 -390.655)" fill="#89e8e5"/>
      <path id="Path_108702" data-name="Path 108702" d="M266.634,377.779q-.257-.481-.555-.939c-10.031,1.72-22.335.917-27.611.441a10.5,10.5,0,0,0-.3,1.069C243.518,378.834,256.466,379.683,266.634,377.779Z" transform="translate(-233.693 -362.81)" fill="#89e8e5"/>
      <path id="Path_108703" data-name="Path 108703" d="M236.163,396.6q-.059.264-.1.529c2.232.2,5.807.477,9.934.582,1.066.027,2.2.044,3.4.044a86.117,86.117,0,0,0,15.489-1.23c-.08-.167-.164-.331-.251-.494C254.459,397.933,241.512,397.083,236.163,396.6Z" transform="translate(-231.687 -381.059)" fill="#fff"/>
      <ellipse id="Ellipse_16" data-name="Ellipse 16" cx="2.667" cy="2.667" rx="2.667" ry="2.667" transform="translate(12.68 18.977)" fill="#fff"/>
      <ellipse id="Ellipse_17" data-name="Ellipse 17" cx="1.174" cy="1.174" rx="1.174" ry="1.174" transform="translate(13.23 20.471)" fill="#0a090b"/>
      <ellipse id="Ellipse_18" data-name="Ellipse 18" cx="2.667" cy="2.667" rx="2.667" ry="2.667" transform="translate(19.145 18.977)" fill="#fff"/>
      <ellipse id="Ellipse_19" data-name="Ellipse 19" cx="1.174" cy="1.174" rx="1.174" ry="1.174" transform="translate(19.695 20.471)" fill="#0a090b"/>
      <path id="Path_108704" data-name="Path 108704" d="M509.21,591.493a3.866,3.866,0,0,0,2.107-.273s.273,3.038-.858,3.157S509.21,591.493,509.21,591.493Z" transform="translate(-491.453 -566.685)" fill="#0a090b"/>
      <path id="Path_108705" data-name="Path 108705" d="M152.053,116.7s-6.017-26.853,19.189-26.19c24.868.655,17.228,27.281,17.228,27.281" transform="translate(-151.198 -90.493)" fill="none" stroke="#0a090b" stroke-miterlimit="10" stroke-width="1.78"/>
      <rect id="Rectangle_164" data-name="Rectangle 164" width="1.471" height="4.47" rx="0.735" transform="translate(37.107 24.21) rotate(11.76)" fill="#6fc649"/>
      <rect id="Rectangle_165" data-name="Rectangle 165" width="1.471" height="4.47" rx="0.735" transform="translate(2.122 29.393) rotate(171.41)" fill="#6fc649"/>
      <path id="Path_108706" data-name="Path 108706" d="M830.469,616.907a6.265,6.265,0,0,0,.073,1.526,2.83,2.83,0,0,0,.66,1.243,1.938,1.938,0,0,0,1.307.668,1.487,1.487,0,0,0,1.078-.516,1.765,1.765,0,0,0,.528-1.26.267.267,0,1,0-.533,0,1.07,1.07,0,0,1,0,.117c0,.018,0,.035,0,.052s0,.047,0,0,0,0,0,.01a1.345,1.345,0,0,1-.069.243.176.176,0,0,0-.012.03s.023-.053.011-.026-.018.04-.027.06c-.02.04-.041.079-.063.118s-.044.072-.068.107l-.039.055c-.028.039.008-.014.011-.014s-.023.029-.026.033a1.8,1.8,0,0,1-.185.2l-.044.039-.025.021c-.02.017-.024,0,.015-.011a.816.816,0,0,0-.107.074c-.036.023-.073.044-.11.063l-.049.023c-.03.016.053-.02.022-.009l-.036.014a.948.948,0,0,1-.108.032l-.058.012-.022,0c.075-.019.037,0,.013,0a.79.79,0,0,1-.109,0c-.013,0-.026,0-.039,0-.032,0,.018,0,.019,0a.3.3,0,0,1-.093-.017,1.357,1.357,0,0,1-.152-.043.654.654,0,0,1-.079-.03c.049.025.017.007.005,0l-.049-.023a1.871,1.871,0,0,1-.273-.167.108.108,0,0,0-.023-.015c.033.011.029.023.009.006s-.039-.032-.058-.049c-.038-.033-.075-.068-.111-.1s-.07-.073-.1-.111l-.043-.049c-.014-.015-.016-.02-.024-.03-.021-.025.03.042,0,0a2.965,2.965,0,0,1-.168-.256,2.845,2.845,0,0,1-.137-.274c-.02-.045.019.049-.006-.016-.008-.021-.016-.041-.024-.062-.02-.054-.039-.108-.055-.164s-.033-.124-.045-.187c-.006-.031-.012-.063-.017-.1a.276.276,0,0,1-.006-.043c0,.021,0,.039,0,.007-.015-.131-.023-.262-.026-.392-.006-.262.006-.524.01-.784a.267.267,0,0,0-.534,0Z" transform="translate(-796.96 -590.872)" fill="#09090b"/>
      <path id="Path_108707" data-name="Path 108707" d="M176.767,618.942a6.66,6.66,0,0,1-.028.753c0,.03-.006.06-.01.091a.288.288,0,0,1-.005.045c0-.01.008-.055,0,0s-.02.127-.032.191a3.674,3.674,0,0,1-.09.364c-.06.2-.127.392-.2.588-.016.043-.031.085-.049.127l-.013.034c0,.009-.022.045,0,.009s0,0,0,.009l-.019.041a2.022,2.022,0,0,1-.139.255c-.012.02-.025.039-.039.057l-.02.028c-.021.029.033-.04.01-.013a1.443,1.443,0,0,1-.1.107c-.016.016-.033.032-.049.049l-.026.022c-.031.026.013-.007.013-.01,0,.014-.123.079-.136.086a.746.746,0,0,1-.142.071c.052-.015.018-.007.005,0l-.04.015c-.033.012-.067.023-.1.032a.474.474,0,0,1-.165.035s.049,0,.019,0a.15.15,0,0,0-.038,0,.522.522,0,0,0-.062,0,1.11,1.11,0,0,1-.114,0l-.058-.005c-.044,0,.024,0,.026,0s-.025,0-.037-.006a1.8,1.8,0,0,1-.249-.061c-.041-.013-.081-.027-.122-.043l-.03-.012c-.022-.009-.022-.021.019.008a.476.476,0,0,0-.067-.03,2.008,2.008,0,0,1-.234-.13c-.039-.025-.077-.062-.119-.083.049.024.034.027.017.013l-.036-.03-.049-.041c-.035-.032-.07-.067-.1-.1-.015-.017-.029-.034-.043-.049-.027-.033.013.016.015.019a.305.305,0,0,0-.025-.035,1.028,1.028,0,0,1-.066-.109c-.006-.011-.035-.076-.016-.03s-.007-.02-.011-.032c-.012-.039-.018-.078-.028-.117.021.087,0,.02,0-.009a.434.434,0,0,1,0-.067.268.268,0,0,0-.267-.267.273.273,0,0,0-.267.267,1.236,1.236,0,0,0,.53,1,2.284,2.284,0,0,0,1.168.484,1.46,1.46,0,0,0,.666-.089,1.632,1.632,0,0,0,.637-.407,3.279,3.279,0,0,0,.592-1.219,4.679,4.679,0,0,0,.207-.882,6.29,6.29,0,0,0,.049-.911.267.267,0,0,0-.534,0Z" transform="translate(-172.14 -592.812)" fill="#09090b"/>
      <path id="Path_108708" data-name="Path 108708" d="M516.556,874.483l.056,2.265c.019.743.045,1.487.055,2.23v.129a.411.411,0,0,1,0,.065c0,.013,0,.108,0,.035a.568.568,0,0,1-.027.125.213.213,0,0,1-.02.06c.037-.052-.007.012-.015.024l-.019.031c-.017.024-.014.021.008-.009l-.024.028c-.013.014-.026.026-.04.039s-.019.016.011-.007l-.03.02-.032.018c-.026.012-.021.01.014-.006l-.034.011-.017,0c-.029.005-.023,0,.019,0,0,.008-.119-.014-.018,0a.274.274,0,0,0-.328.186.27.27,0,0,0,.186.328.705.705,0,0,0,.607-.178.882.882,0,0,0,.266-.49,2.758,2.758,0,0,0,.027-.6l-.014-.585-.061-2.392-.033-1.34a.267.267,0,1,0-.533,0Z" transform="translate(-498.009 -835.814)" fill="#09090b"/>
      <path id="Path_108709" data-name="Path 108709" d="M575.616,870.261a20.107,20.107,0,0,0,.336,4.223q.109.583.252,1.158a.266.266,0,0,0,.187.186l.521.127a.267.267,0,0,0,.142-.514l-.521-.127.186.186a19.772,19.772,0,0,1-.4-2.047.406.406,0,0,0-.008-.059c-.006-.046.008.065,0-.011-.005-.039-.01-.078-.015-.118q-.018-.141-.033-.282-.029-.259-.049-.519-.043-.514-.06-1.029-.018-.588,0-1.176a.267.267,0,0,0-.534,0Z" transform="translate(-554.598 -831.809)" fill="#09090b"/>
    </g>
  </g>
</svg>
