<svg xmlns="http://www.w3.org/2000/svg" width="53.919" height="44.26" viewBox="0 0 53.919 44.26">
  <g id="Group_145" data-name="Group 145" transform="translate(0)">
    <g id="Laag_1" data-name="Laag 1" transform="translate(21.487 1.584)">
      <path id="Path_108689" data-name="Path 108689" d="M417.085,354.563a10.915,10.915,0,0,1-5.291-4.074,3.408,3.408,0,0,1-.674-1.565,1.475,1.475,0,0,1,.7-1.463,2.288,2.288,0,0,1,2.108.447l1.709,1.033a.826.826,0,0,0,.547.172c.333-.059.453-.467.5-.8.392-2.733.519-5.075,2.784-6.655a2.164,2.164,0,0,1,1.583-.461,2.321,2.321,0,0,1,1.541,1.6,13.832,13.832,0,0,1,.863,4.475.726.726,0,0,0,.131.429.54.54,0,0,0,.719-.042,4.353,4.353,0,0,0,.484-.632,2.266,2.266,0,0,1,3.073.083,2.793,2.793,0,0,1,.065,2.957,5.665,5.665,0,0,1-2.1,2.319,11.78,11.78,0,0,1-6.286,2.053" transform="translate(-403.324 -341.17)" fill="#6fc649"/>
      <path id="Path_108690" data-name="Path 108690" d="M354.409,739.634a29.472,29.472,0,0,0,.254,4.6,29.855,29.855,0,0,0,.974,4.569q.371,1.242.85,2.452a.366.366,0,0,0,.438.249.36.36,0,0,0,.249-.438,29.339,29.339,0,0,1-1.352-4.372q-.253-1.124-.419-2.266l-.02-.136a.492.492,0,0,0-.008-.061s-.014-.1-.006-.043-.006-.044-.006-.044l-.008-.06c-.007-.051-.013-.1-.019-.152q-.036-.288-.065-.577-.059-.569-.1-1.141-.084-1.287-.053-2.579a.356.356,0,0,0-.712,0Z" transform="translate(-350.321 -713.26)" fill="#09090b"/>
      <path id="Path_108691" data-name="Path 108691" d="M309.907,472.512a11.132,11.132,0,0,0,3.155-1.017,9.305,9.305,0,0,1,6.637-.266,7.185,7.185,0,0,1,4.5,4.737,12.689,12.689,0,0,1-.174,5.459l-1.55,8.659a17.021,17.021,0,0,1-1.82,5.9,10.665,10.665,0,0,1-6.623,4.565,20.514,20.514,0,0,1-8.2.084c-3.275-.527-6.617-1.556-9-3.865-2.234-2.167-3.373-5.219-4.127-8.239a16.948,16.948,0,0,1-.6-6.434,11.934,11.934,0,0,1,5.774-8.317,15.3,15.3,0,0,1,6.8-2.051,11.421,11.421,0,0,1,4.536.654A1.836,1.836,0,0,0,309.907,472.512Z" transform="translate(-292.008 -462.266)" fill="#f786b9"/>
      <ellipse id="Ellipse_12" data-name="Ellipse 12" cx="3.56" cy="3.56" rx="3.56" ry="3.56" transform="translate(8.342 16.311)" fill="#fff"/>
      <ellipse id="Ellipse_13" data-name="Ellipse 13" cx="1.566" cy="1.566" rx="1.566" ry="1.566" transform="translate(9.075 18.304)" fill="#0a090b"/>
      <ellipse id="Ellipse_14" data-name="Ellipse 14" cx="3.56" cy="3.56" rx="3.56" ry="3.56" transform="translate(16.971 16.311)" fill="#fff"/>
      <ellipse id="Ellipse_15" data-name="Ellipse 15" cx="1.566" cy="1.566" rx="1.566" ry="1.566" transform="translate(17.704 18.304)" fill="#0a090b"/>
      <path id="Path_108692" data-name="Path 108692" d="M469.478,723.34h6.578a1.4,1.4,0,0,1,1.308,1.93,5.058,5.058,0,0,1-.356.689,3.081,3.081,0,0,0-3.417.035,3.442,3.442,0,0,0-1.735,2.245,4.994,4.994,0,0,1-3.684-2.969A1.4,1.4,0,0,1,469.478,723.34Z" transform="translate(-456.551 -698.35)" fill="#0a090b"/>
      <path id="Path_108693" data-name="Path 108693" d="M528.734,756.338a3.08,3.08,0,0,1,3.417-.035,4.987,4.987,0,0,1-5.151,2.28A3.439,3.439,0,0,1,528.734,756.338Z" transform="translate(-511.634 -728.693)" fill="#cc534d"/>
      <path id="Path_108694" data-name="Path 108694" d="M.262,0H1.369A.262.262,0,0,1,1.63.262V1.41H0V.262A.262.262,0,0,1,.262,0Z" transform="translate(16.216 26.4) rotate(180)" fill="#fff"/>
      <path id="Path_108695" data-name="Path 108695" d="M.262,0H1.368a.262.262,0,0,1,.262.262V1.41H0V.262A.262.262,0,0,1,.262,0Z" transform="translate(17.968 26.4) rotate(180)" fill="#fff"/>
      <path id="Path_108696" data-name="Path 108696" d="M617.363,913.07l.046,2.187c.008.339.028.68.016,1.019,0,.035,0,.07-.006.105,0,.017,0,.035,0,.052,0,.065,0-.007,0-.017a.742.742,0,0,0-.018.1,1.142,1.142,0,0,1-.033.123.284.284,0,0,0-.017.048c-.007-.024.027-.058.005-.016s-.031.061-.05.09l-.029.042c-.014-.011.056-.065.018-.027-.01.009-.018.02-.027.029l-.022.02c-.021.018-.01.009.033-.025a.749.749,0,0,0-.077.048l-.035.018c-.037.021.078-.026.02-.01l-.1.026c-.031.008-.027-.014.037,0a.239.239,0,0,0-.048,0h-.048c-.061,0,.07.017.029,0l-.035-.009c-.057-.012.008,0,.025.014-.008-.006-.023-.011-.032-.016-.048-.027-.012-.03.013.014a.194.194,0,0,0-.027-.025c-.046-.041.046.065.009.012a.357.357,0,1,0-.618.356.829.829,0,0,0,.957.318,1.083,1.083,0,0,0,.711-.77,3.9,3.9,0,0,0,.065-1.12l-.026-1.216-.03-1.377a.356.356,0,0,0-.711,0Z" transform="translate(-595.141 -875.338)" fill="#09090b"/>
      <path id="Path_108697" data-name="Path 108697" d="M537.272,924.192q.026,1.032,0,2.064-.006.258-.016.516c0,.065-.006.131-.01.2,0,.035-.005.07-.009.105a.116.116,0,0,1,0,.039c-.009.09.014-.079,0,.01a1.848,1.848,0,0,1-.04.191c-.009.033-.02.065-.031.1,0,.006-.016.031-.014.036.018-.041.022-.05.011-.026l-.017.035c-.013.027-.028.052-.044.078s-.02.028-.029.043c-.026.042.045-.047.013-.017s-.032.035-.05.052a.206.206,0,0,0-.031.027c.042-.031.052-.039.031-.024l-.026.018c-.024.016-.048.027-.073.041-.05.029.02-.01.028-.01a.358.358,0,0,0-.059.021.4.4,0,0,0-.081.019c.044-.026.075-.007.034,0h-.09c-.065,0,.011-.007.026,0-.006,0-.114-.041-.05-.01s-.032-.026-.042-.027c.01,0,.065.059.026.018-.013-.015-.028-.029-.041-.044a.36.36,0,0,0-.5,0,.365.365,0,0,0,0,.5.868.868,0,0,0,.915.224,1.159,1.159,0,0,0,.734-.73,3.07,3.07,0,0,0,.138-1.011q.02-.571.023-1.144,0-.645-.012-1.29a.356.356,0,0,0-.712,0Z" transform="translate(-520.123 -885.735)" fill="#09090b"/>
      <path id="Path_108698" data-name="Path 108698" d="M727.084,739.869a18.67,18.67,0,0,1,.934,3.77c0,.016.01.07,0-.006a.483.483,0,0,0,.008.059c.005.039.01.079.015.119.01.079.02.158.028.237.018.164.034.327.048.492q.04.484.056.972a18.545,18.545,0,0,1-.042,1.944c-.014.179-.029.358-.048.537-.009.089-.019.178-.03.267-.005.044-.011.09-.016.131l-.008.059c0,.037-.007.06,0,.01-.044.365-.11.73-.182,1.092a.356.356,0,1,0,.687.189,18.814,18.814,0,0,0-.131-7.943,18.29,18.29,0,0,0-.63-2.122.364.364,0,0,0-.438-.248.36.36,0,0,0-.248.438Z" transform="translate(-698.62 -713.372)" fill="#09090b"/>
    </g>
    <g id="Laag_1-2" data-name="Laag 1" transform="translate(0 0)">
      <path id="Path_108710" data-name="Path 108710" d="M379.472,422.763a2.418,2.418,0,0,1-.478,1.076,2.209,2.209,0,0,1-.919.7,2.09,2.09,0,0,1-1.049.112,2.715,2.715,0,0,1-1.07-.4l-.02-.022h-.005l.086.147.092.156c.078.13.155.259.229.391a4.534,4.534,0,0,1,.386.821,1.967,1.967,0,0,1,.114.868,1.414,1.414,0,0,1-.149.5,1.672,1.672,0,0,1-.135.214,2.091,2.091,0,0,1-.171.2,2.49,2.49,0,0,1-.9.561,3.545,3.545,0,0,1-.92.217l-.012-.006c-.059.005-.116.009-.174.011a2.561,2.561,0,0,1-1.049-.151,1.722,1.722,0,0,1-.285-.142,1.112,1.112,0,0,1-.135-.1,1.36,1.36,0,0,1-.281-.336,1.6,1.6,0,0,1-.183-.786,6.731,6.731,0,0,1,.087-.964,7.177,7.177,0,0,0,.083-.879,2.373,2.373,0,0,0-.063-.518l-.025-.087a4.865,4.865,0,0,1-.757.973,2.751,2.751,0,0,1-1.242.74,2.022,2.022,0,0,1-1.464-.2c-.073-.04-.144-.082-.214-.126a2.278,2.278,0,0,1-.193-.135c-.112-.087-.217-.18-.318-.276a3.679,3.679,0,0,1-.48-.553,3.368,3.368,0,0,1-.618-1.686,4.153,4.153,0,0,1,.269-1.758,5.892,5.892,0,0,1,.923-1.606,6.826,6.826,0,0,1,1.362-1.3,6.28,6.28,0,0,1,.728-.448l.02-.02a5.43,5.43,0,0,1,.9-.371,7.562,7.562,0,0,1,2.574-.359,5.907,5.907,0,0,1,2.379.611c.2.1.392.212.562.32s.349.237.527.375a7,7,0,0,1,.543.485,5.76,5.76,0,0,1,.4.437,4.882,4.882,0,0,1,1.03,2.153A3.168,3.168,0,0,1,379.472,422.763Z" transform="translate(-365.431 -411.73)" fill="#fe8200"/>
      <path id="Path_108711" data-name="Path 108711" d="M393.8,466.92Z" transform="translate(-390.21 -458.102)" fill="#d47719"/>
      <path id="Path_108712" data-name="Path 108712" d="M393.78,467Z" transform="translate(-390.191 -458.177)" fill="#d47719"/>
      <path id="Path_108713" data-name="Path 108713" d="M411.583,517.83h-.013l.016,0Z" transform="translate(-406.785 -505.587)" fill="#d47719"/>
      <path id="Path_108714" data-name="Path 108714" d="M397.427,474.574a.249.249,0,0,0-.211-.032,4.131,4.131,0,0,0-1.989,1.526,2.821,2.821,0,0,0-.49,1.123,1.582,1.582,0,0,0-.015.5,1.5,1.5,0,0,0,.161.5,1.118,1.118,0,0,0,.394.428,1.168,1.168,0,0,0,.279.129.965.965,0,0,0,.854-.182,2.215,2.215,0,0,0,.648-.989,6.594,6.594,0,0,0,.324-1.292c.049-.3.088-.591.126-.888.021-.155.041-.311.063-.466a.289.289,0,0,0-.026-.192A.281.281,0,0,0,397.427,474.574Z" transform="translate(-391.058 -465.201)" fill="#d47719"/>
      <path id="Path_108715" data-name="Path 108715" d="M475.515,466.682a.25.25,0,0,1,.178-.118,4.126,4.126,0,0,1,2.449.538,2.829,2.829,0,0,1,.92.807,1.582,1.582,0,0,1,.227.45,1.509,1.509,0,0,1,.067.517,1.12,1.12,0,0,1-.176.554,1.151,1.151,0,0,1-.2.236.966.966,0,0,1-.855.2,2.234,2.234,0,0,1-1.009-.62,6.6,6.6,0,0,1-.842-1.033c-.17-.246-.331-.5-.492-.75q-.126-.2-.254-.4a.289.289,0,0,1-.058-.184.281.281,0,0,1,.038-.2Z" transform="translate(-466.383 -457.749)" fill="#d47719"/>
      <path id="Path_108716" data-name="Path 108716" d="M352.2,544.306a8.508,8.508,0,0,0-11.14,4.549,12.75,12.75,0,0,0-.628,4.659,15.144,15.144,0,0,0,2,7.9,10.2,10.2,0,0,0,18.229-8.863,18.033,18.033,0,0,0-1.648-3.277,14.45,14.45,0,0,0-3.979-4.749,5.538,5.538,0,0,0-5.884-.467" transform="translate(-340.432 -529.448)" fill="#fad700"/>
      <ellipse id="Ellipse_20" data-name="Ellipse 20" cx="3.662" cy="3.662" rx="3.662" ry="3.662" transform="translate(12.763 17.768)" fill="#fff"/>
      <ellipse id="Ellipse_21" data-name="Ellipse 21" cx="1.611" cy="1.611" rx="1.611" ry="1.611" transform="translate(16.11 19.819)" fill="#0a090b"/>
      <ellipse id="Ellipse_22" data-name="Ellipse 22" cx="3.662" cy="3.662" rx="3.662" ry="3.662" transform="translate(3.887 17.768)" fill="#fff"/>
      <ellipse id="Ellipse_23" data-name="Ellipse 23" cx="1.611" cy="1.611" rx="1.611" ry="1.611" transform="translate(7.234 19.819)" fill="#0a090b"/>
      <path id="Path_108717" data-name="Path 108717" d="M498.813,719.637a2.2,2.2,0,0,1-2.933-.307" transform="translate(-485.423 -693.533)" fill="none" stroke="#09090b" stroke-linecap="round" stroke-linejoin="round" stroke-width="5"/>
      <path id="Path_108718" data-name="Path 108718" d="M627.433,338.175c.079.2.182.371.43.35s.321-.219.384-.412a2.5,2.5,0,0,0,.086-.89c0-.158.011-.3,0-.433a1.339,1.339,0,0,0-.258-.764.505.505,0,0,0-.523-.172.4.4,0,0,0-.295.344,1.636,1.636,0,0,0-.035.668A5.991,5.991,0,0,0,627.433,338.175Z" transform="translate(-607.913 -335.838)" fill="#fff387"/>
      <path id="Path_108719" data-name="Path 108719" d="M569.54,368.263a.321.321,0,0,0,.159-.331.722.722,0,0,0-.057-.234,3.728,3.728,0,0,0-.834-1.206.443.443,0,0,0-.3-.142.56.56,0,0,0-.454.282.41.41,0,0,0,.009.459,4.853,4.853,0,0,0,1.134,1.149A.307.307,0,0,0,569.54,368.263Z" transform="translate(-552.68 -364.297)" fill="#fff387"/>
      <path id="Path_108720" data-name="Path 108720" d="M684.069,362.3c-.03-.471-.253-.6-.692-.422a1.356,1.356,0,0,0-.4.324,3.07,3.07,0,0,0-.712.844.389.389,0,0,0,.039.455c.11.118.251.054.383,0a4.567,4.567,0,0,0,1.234-.833A.35.35,0,0,0,684.069,362.3Z" transform="translate(-659.215 -360.053)" fill="#fff387"/>
      <path id="Path_108721" data-name="Path 108721" d="M711.684,412.963a.51.51,0,0,0-.569-.435,2.374,2.374,0,0,0-1.2.471c-.166.1-.286.221-.227.431s.239.18.4.179c.37-.021.74-.079,1.1-.122C711.491,413.448,711.717,413.276,711.684,412.963Z" transform="translate(-684.838 -407.368)" fill="#fff387"/>
      <path id="Path_108722" data-name="Path 108722" d="M544.262,418.284c-.436-.009-.64.134-.668.408-.03.3.1.455.471.524.316.06.635.1.955.135a.368.368,0,0,0,.4-.24.349.349,0,0,0-.127-.409A1.715,1.715,0,0,0,544.262,418.284Z" transform="translate(-529.923 -412.738)" fill="#fff387"/>
      <path id="Path_108723" data-name="Path 108723" d="M589.154,393.959a4.337,4.337,0,0,0-4.075,1.295,3.527,3.527,0,0,0-.833,2.125,3.415,3.415,0,0,0,.643,2.422c.418.538.918,1,1.334,1.537-.007.087.076.128.1.2h.347a1.574,1.574,0,0,1,.16.005l1.627.123a.8.8,0,0,0,.113.013c.114,0,.231.023.346.02l.265.02v-.095h0a1.784,1.784,0,0,1,.651-.605,5.1,5.1,0,0,0,1.16-.986,2.875,2.875,0,0,0,.762-1.278,4.4,4.4,0,0,0-.391-3.1A3.275,3.275,0,0,0,589.154,393.959Z" transform="translate(-567.834 -389.952)" fill="#fff387"/>
      <path id="Path_108724" data-name="Path 108724" d="M615.8,507.8a.258.258,0,0,0-.159-.044c-.574-.041-1.143-.117-1.723-.123a3.856,3.856,0,0,0-.977-.016,1.687,1.687,0,0,0-.135,1.062c.079.441.2.895.735,1.039.124.034.155.141.183.26s.027.247.168.327a.529.529,0,0,0,.82-.269c.031-.067.028-.165.135-.184a1.226,1.226,0,0,0,.979-1A1.27,1.27,0,0,0,615.8,507.8Z" transform="translate(-594.454 -496.027)" fill="#92c6c4"/>
      <path id="Path_108725" data-name="Path 108725" d="M639.191,628.118a4.158,4.158,0,0,0,1.859-1.832,7.244,7.244,0,0,0,.764-2.93c.046-.6.048-1.2.05-1.8a.367.367,0,0,0-.733,0c0,.521,0,1.043-.034,1.564-.015.254-.036.508-.067.761,0,.012-.013.118,0,.028,0,.032-.009.063-.013.094-.009.063-.02.126-.03.188-.022.125-.046.25-.074.373a6.2,6.2,0,0,1-.2.7c-.032.088-.067.176-.1.263s.034-.075,0,.006c-.01.024-.02.047-.031.067q-.036.082-.077.162a4.747,4.747,0,0,1-.3.53c-.028.042-.057.084-.086.125l-.045.061c-.015.02-.059.088,0,.007a2.186,2.186,0,0,1-.194.232c-.079.087-.161.17-.247.249-.043.04-.087.078-.135.116l-.048.039c-.073.059.045-.032-.015.012a3.474,3.474,0,0,1-.6.357.371.371,0,0,0-.135.5.381.381,0,0,0,.5.135Z" transform="translate(-618.58 -602.007)" fill="#09090b"/>
      <path id="Path_108726" data-name="Path 108726" d="M390.9,738.218a10.568,10.568,0,0,0,.411,2.5,10.744,10.744,0,0,0,.448,1.228,5.17,5.17,0,0,0,.52.959,3.179,3.179,0,0,0,.875.859,2.432,2.432,0,0,0,1.1.369,1.86,1.86,0,0,0,1.121-.269,2.508,2.508,0,0,0,.773-.8,4.852,4.852,0,0,0,.505-1.174l.2-.658c.035-.106.071-.212.111-.316l.028-.071.009-.025c.022-.057.05-.112.077-.167a.367.367,0,1,0-.636-.367,7.887,7.887,0,0,0-.42,1.148c-.055.181-.109.361-.172.538-.029.084-.06.168-.093.25-.009.023-.021.079,0,0a.406.406,0,0,1-.021.046c-.017.039-.035.078-.054.116a2.99,2.99,0,0,1-.247.421l-.03.041c-.048.067.038-.045,0,0s-.048.059-.073.088a2.2,2.2,0,0,1-.171.174c-.021.018-.05.057-.076.067l.034-.027-.03.022-.051.036a1.545,1.545,0,0,1-.206.116l-.011.005c-.037.016-.031.013.018-.007a.208.208,0,0,1-.048.018c-.037.013-.075.025-.113.035s-.076.019-.115.026a.205.205,0,0,1-.051.009c.055-.007.061-.008.02,0h-.026a1.712,1.712,0,0,1-.235,0l-.067-.005H394.2c-.041-.005-.034,0,.02,0a.357.357,0,0,1-.129-.026,1.9,1.9,0,0,1-.229-.067l-.05-.018c-.083-.03.052.024,0,0s-.089-.04-.135-.063a2.135,2.135,0,0,1-.207-.123l-.1-.067c-.044-.032.067.057,0,0l-.063-.053a3.39,3.39,0,0,1-.354-.374c-.037-.044.051.067,0,0l-.033-.045c-.024-.034-.048-.067-.072-.1q-.075-.111-.141-.225c-.09-.154-.172-.313-.246-.475l-.052-.116c-.009-.02-.062-.14-.024-.054-.042-.1-.08-.193-.117-.291q-.1-.269-.192-.548a10.175,10.175,0,0,1-.317-1.278c-.02-.108-.037-.216-.053-.325a.491.491,0,0,0-.009-.062c-.013-.088.006.054,0-.027-.007-.057-.014-.114-.021-.172q-.036-.336-.051-.673a.366.366,0,1,0-.732,0Z" transform="translate(-387.5 -710.811)" fill="#09090b"/>
      <path id="Path_108727" data-name="Path 108727" d="M470.345,873.861q.071,1.707-.015,3.417-.043.849-.126,1.7-.042.428-.093.854c-.017.135-.034.273-.052.41,0,.011-.011.079,0,.033s0,.011,0,.017c0,.033-.009.067-.013.1l-.03.213a1.246,1.246,0,0,0-.029.545.479.479,0,0,0,.269.3.64.64,0,0,0,.293.039l.988-.049a.366.366,0,0,0,0-.733l-.837.042c-.067,0-.135.009-.2.01-.155,0,.072-.034.164.127l.033.122a.275.275,0,0,1,0-.047l-.007.05a.647.647,0,0,1,.009-.067c.005-.032.01-.067.015-.1.011-.076.022-.152.033-.229q.116-.834.2-1.672.155-1.61.169-3.229.007-.925-.032-1.849a.366.366,0,0,0-.733,0Z" transform="translate(-461.246 -837.327)" fill="#09090b"/>
      <path id="Path_108728" data-name="Path 108728" d="M519.45,873.916l.153,3.515.077,1.758a11.5,11.5,0,0,0,.135,1.767,1.106,1.106,0,0,0,.171.471.594.594,0,0,0,.6.206c.317-.046.633-.129.947-.193a.369.369,0,0,0,.256-.451.376.376,0,0,0-.451-.256l-.807.167-.089.018c-.086.02.084-.007,0,0h-.025a.184.184,0,0,1,.149.063c-.059-.049.043.067,0,0,.047.083.014.027.005,0s-.016-.061-.024-.091c-.017-.072-.032-.145-.044-.217,0-.032-.01-.062-.014-.094.012.089,0-.016,0-.028-.007-.063-.013-.127-.018-.19-.01-.135-.016-.275-.022-.412l-.036-.837-.145-3.314-.081-1.875a.366.366,0,0,0-.732,0Z" transform="translate(-507.407 -837.383)" fill="#09090b"/>
    </g>
  </g>
</svg>
